<mxfile host="app.diagrams.net" modified="2023-05-31T06:35:27.548Z" agent="Mozilla/5.0 (Macintosh; Intel Mac OS X 10_15_7) AppleWebKit/537.36 (KHTML, like Gecko) Chrome/112.0.0.0 Whale/3.20.182.14 Safari/537.36" etag="r59XxYKFo9WB7mTKyarA" version="21.3.5" type="github">
  <diagram name="Page-1" id="2YBvvXClWsGukQMizWep">
    <mxGraphModel dx="860" dy="1194" grid="1" gridSize="10" guides="1" tooltips="1" connect="1" arrows="1" fold="1" page="1" pageScale="1" pageWidth="1100" pageHeight="850" math="0" shadow="0">
      <root>
        <mxCell id="0" />
        <mxCell id="1" parent="0" />
        <mxCell id="aM9ryv3xv72pqoxQDRHE-1" value="&lt;u&gt;:Customer&lt;/u&gt;" style="shape=umlLifeline;perimeter=lifelinePerimeter;whiteSpace=wrap;html=1;container=0;dropTarget=0;collapsible=0;recursiveResize=0;outlineConnect=0;portConstraint=eastwest;newEdgeStyle={&quot;edgeStyle&quot;:&quot;elbowEdgeStyle&quot;,&quot;elbow&quot;:&quot;vertical&quot;,&quot;curved&quot;:0,&quot;rounded&quot;:0};fontSize=15;" parent="1" vertex="1">
          <mxGeometry x="40" y="40" width="100" height="760" as="geometry" />
        </mxCell>
        <mxCell id="aM9ryv3xv72pqoxQDRHE-5" value=":&lt;u&gt;UserPanel&lt;/u&gt;" style="shape=umlLifeline;perimeter=lifelinePerimeter;whiteSpace=wrap;html=1;container=0;dropTarget=0;collapsible=0;recursiveResize=0;outlineConnect=0;portConstraint=eastwest;newEdgeStyle={&quot;edgeStyle&quot;:&quot;elbowEdgeStyle&quot;,&quot;elbow&quot;:&quot;vertical&quot;,&quot;curved&quot;:0,&quot;rounded&quot;:0};fontSize=15;" parent="1" vertex="1">
          <mxGeometry x="220" y="40" width="100" height="780" as="geometry" />
        </mxCell>
        <mxCell id="aM9ryv3xv72pqoxQDRHE-6" value="" style="html=1;points=[];perimeter=orthogonalPerimeter;outlineConnect=0;targetShapes=umlLifeline;portConstraint=eastwest;newEdgeStyle={&quot;edgeStyle&quot;:&quot;elbowEdgeStyle&quot;,&quot;elbow&quot;:&quot;vertical&quot;,&quot;curved&quot;:0,&quot;rounded&quot;:0};" parent="aM9ryv3xv72pqoxQDRHE-5" vertex="1">
          <mxGeometry x="45" y="80" width="10" height="630" as="geometry" />
        </mxCell>
        <mxCell id="aM9ryv3xv72pqoxQDRHE-7" value="&lt;span style=&quot;color: rgb(0, 0, 0); font-family: Helvetica; font-size: 13px; font-style: normal; font-variant-ligatures: normal; font-variant-caps: normal; font-weight: 400; letter-spacing: normal; orphans: 2; text-align: center; text-indent: 0px; text-transform: none; widows: 2; word-spacing: 0px; -webkit-text-stroke-width: 0px; background-color: rgb(255, 255, 255); text-decoration-thickness: initial; text-decoration-style: initial; text-decoration-color: initial; float: none; display: inline !important;&quot;&gt;&lt;br&gt;getBtnPress(pickBtn)&lt;br&gt;&lt;/span&gt;" style="html=1;verticalAlign=bottom;endArrow=block;edgeStyle=elbowEdgeStyle;elbow=vertical;curved=0;rounded=0;labelPosition=center;verticalLabelPosition=top;align=center;" parent="1" source="aM9ryv3xv72pqoxQDRHE-1" target="aM9ryv3xv72pqoxQDRHE-6" edge="1">
          <mxGeometry x="0.0313" relative="1" as="geometry">
            <mxPoint x="95" y="120" as="sourcePoint" />
            <Array as="points">
              <mxPoint x="240" y="130" />
              <mxPoint x="180" y="120" />
            </Array>
            <mxPoint x="1" as="offset" />
          </mxGeometry>
        </mxCell>
        <mxCell id="Djl-HkBQp77y9a95uv27-1" value="&lt;u&gt;:Controller&lt;/u&gt;" style="shape=umlLifeline;perimeter=lifelinePerimeter;whiteSpace=wrap;html=1;container=0;dropTarget=0;collapsible=0;recursiveResize=0;outlineConnect=0;portConstraint=eastwest;newEdgeStyle={&quot;edgeStyle&quot;:&quot;elbowEdgeStyle&quot;,&quot;elbow&quot;:&quot;vertical&quot;,&quot;curved&quot;:0,&quot;rounded&quot;:0};fontSize=15;" parent="1" vertex="1">
          <mxGeometry x="410" y="40" width="100" height="780" as="geometry" />
        </mxCell>
        <mxCell id="Djl-HkBQp77y9a95uv27-2" value="" style="html=1;points=[];perimeter=orthogonalPerimeter;outlineConnect=0;targetShapes=umlLifeline;portConstraint=eastwest;newEdgeStyle={&quot;edgeStyle&quot;:&quot;elbowEdgeStyle&quot;,&quot;elbow&quot;:&quot;vertical&quot;,&quot;curved&quot;:0,&quot;rounded&quot;:0};" parent="Djl-HkBQp77y9a95uv27-1" vertex="1">
          <mxGeometry x="45" y="80" width="10" height="630" as="geometry" />
        </mxCell>
        <mxCell id="Djl-HkBQp77y9a95uv27-3" value="&lt;u&gt;:Order&lt;/u&gt;" style="shape=umlLifeline;perimeter=lifelinePerimeter;whiteSpace=wrap;html=1;container=0;dropTarget=0;collapsible=0;recursiveResize=0;outlineConnect=0;portConstraint=eastwest;newEdgeStyle={&quot;edgeStyle&quot;:&quot;elbowEdgeStyle&quot;,&quot;elbow&quot;:&quot;vertical&quot;,&quot;curved&quot;:0,&quot;rounded&quot;:0};fontSize=15;" parent="1" vertex="1">
          <mxGeometry x="780" y="40" width="100" height="790" as="geometry" />
        </mxCell>
        <mxCell id="Djl-HkBQp77y9a95uv27-4" value="" style="html=1;points=[];perimeter=orthogonalPerimeter;outlineConnect=0;targetShapes=umlLifeline;portConstraint=eastwest;newEdgeStyle={&quot;edgeStyle&quot;:&quot;elbowEdgeStyle&quot;,&quot;elbow&quot;:&quot;vertical&quot;,&quot;curved&quot;:0,&quot;rounded&quot;:0};" parent="Djl-HkBQp77y9a95uv27-3" vertex="1">
          <mxGeometry x="45" y="180" width="10" height="30" as="geometry" />
        </mxCell>
        <mxCell id="bhrVy4N0abvp576ocAmw-2" value="&lt;u&gt;:CardReader&lt;/u&gt;" style="shape=umlLifeline;perimeter=lifelinePerimeter;whiteSpace=wrap;html=1;container=0;dropTarget=0;collapsible=0;recursiveResize=0;outlineConnect=0;portConstraint=eastwest;newEdgeStyle={&quot;edgeStyle&quot;:&quot;elbowEdgeStyle&quot;,&quot;elbow&quot;:&quot;vertical&quot;,&quot;curved&quot;:0,&quot;rounded&quot;:0};fontSize=15;" parent="1" vertex="1">
          <mxGeometry x="920" y="40" width="100" height="780" as="geometry" />
        </mxCell>
        <mxCell id="EBpRJGDtO_Jt4ufxIMyg-39" value="" style="html=1;points=[];perimeter=orthogonalPerimeter;outlineConnect=0;targetShapes=umlLifeline;portConstraint=eastwest;newEdgeStyle={&quot;edgeStyle&quot;:&quot;elbowEdgeStyle&quot;,&quot;elbow&quot;:&quot;vertical&quot;,&quot;curved&quot;:0,&quot;rounded&quot;:0};" parent="bhrVy4N0abvp576ocAmw-2" vertex="1">
          <mxGeometry x="45" y="395" width="10" height="30" as="geometry" />
        </mxCell>
        <mxCell id="bhrVy4N0abvp576ocAmw-4" value="&lt;u&gt;:BarcodeReader&lt;/u&gt;" style="shape=umlLifeline;perimeter=lifelinePerimeter;whiteSpace=wrap;html=1;container=0;dropTarget=0;collapsible=0;recursiveResize=0;outlineConnect=0;portConstraint=eastwest;newEdgeStyle={&quot;edgeStyle&quot;:&quot;elbowEdgeStyle&quot;,&quot;elbow&quot;:&quot;vertical&quot;,&quot;curved&quot;:0,&quot;rounded&quot;:0};fontSize=15;" parent="1" vertex="1">
          <mxGeometry x="1038" y="40" width="125" height="770" as="geometry" />
        </mxCell>
        <mxCell id="bhrVy4N0abvp576ocAmw-6" value="&lt;font style=&quot;font-size: 15px;&quot;&gt;&lt;u&gt;:Payment&lt;/u&gt;&lt;/font&gt;" style="shape=umlLifeline;perimeter=lifelinePerimeter;whiteSpace=wrap;html=1;container=0;dropTarget=0;collapsible=0;recursiveResize=0;outlineConnect=0;portConstraint=eastwest;newEdgeStyle={&quot;edgeStyle&quot;:&quot;elbowEdgeStyle&quot;,&quot;elbow&quot;:&quot;vertical&quot;,&quot;curved&quot;:0,&quot;rounded&quot;:0};" parent="1" vertex="1">
          <mxGeometry x="1190" y="40" width="100" height="780" as="geometry" />
        </mxCell>
        <mxCell id="bhrVy4N0abvp576ocAmw-7" value="" style="html=1;points=[];perimeter=orthogonalPerimeter;outlineConnect=0;targetShapes=umlLifeline;portConstraint=eastwest;newEdgeStyle={&quot;edgeStyle&quot;:&quot;elbowEdgeStyle&quot;,&quot;elbow&quot;:&quot;vertical&quot;,&quot;curved&quot;:0,&quot;rounded&quot;:0};" parent="bhrVy4N0abvp576ocAmw-6" vertex="1">
          <mxGeometry x="45" y="80" width="10" height="550" as="geometry" />
        </mxCell>
        <mxCell id="EBpRJGDtO_Jt4ufxIMyg-30" value="" style="edgeStyle=segmentEdgeStyle;endArrow=block;html=1;curved=0;rounded=0;endFill=1;" parent="bhrVy4N0abvp576ocAmw-6" edge="1">
          <mxGeometry width="50" height="50" relative="1" as="geometry">
            <mxPoint x="55" y="458" as="sourcePoint" />
            <mxPoint x="55" y="501" as="targetPoint" />
            <Array as="points">
              <mxPoint x="120" y="458" />
              <mxPoint x="120" y="501" />
            </Array>
          </mxGeometry>
        </mxCell>
        <mxCell id="bhrVy4N0abvp576ocAmw-8" value="&lt;font style=&quot;font-size: 15px;&quot;&gt;&lt;u&gt;:ReceiptPrinter&lt;/u&gt;&lt;/font&gt;" style="shape=umlLifeline;perimeter=lifelinePerimeter;whiteSpace=wrap;html=1;container=0;dropTarget=0;collapsible=0;recursiveResize=0;outlineConnect=0;portConstraint=eastwest;newEdgeStyle={&quot;edgeStyle&quot;:&quot;elbowEdgeStyle&quot;,&quot;elbow&quot;:&quot;vertical&quot;,&quot;curved&quot;:0,&quot;rounded&quot;:0};" parent="1" vertex="1">
          <mxGeometry x="1560" y="40" width="110" height="770" as="geometry" />
        </mxCell>
        <mxCell id="EBpRJGDtO_Jt4ufxIMyg-1" value="&lt;font style=&quot;font-size: 15px;&quot;&gt;&lt;u&gt;:CartMenu&lt;/u&gt;&lt;/font&gt;" style="shape=umlLifeline;perimeter=lifelinePerimeter;whiteSpace=wrap;html=1;container=0;dropTarget=0;collapsible=0;recursiveResize=0;outlineConnect=0;portConstraint=eastwest;newEdgeStyle={&quot;edgeStyle&quot;:&quot;elbowEdgeStyle&quot;,&quot;elbow&quot;:&quot;vertical&quot;,&quot;curved&quot;:0,&quot;rounded&quot;:0};" parent="1" vertex="1">
          <mxGeometry x="620" y="40" width="100" height="780" as="geometry" />
        </mxCell>
        <mxCell id="EBpRJGDtO_Jt4ufxIMyg-2" value="" style="html=1;points=[];perimeter=orthogonalPerimeter;outlineConnect=0;targetShapes=umlLifeline;portConstraint=eastwest;newEdgeStyle={&quot;edgeStyle&quot;:&quot;elbowEdgeStyle&quot;,&quot;elbow&quot;:&quot;vertical&quot;,&quot;curved&quot;:0,&quot;rounded&quot;:0};" parent="EBpRJGDtO_Jt4ufxIMyg-1" vertex="1">
          <mxGeometry x="45" y="80" width="10" height="70" as="geometry" />
        </mxCell>
        <mxCell id="EBpRJGDtO_Jt4ufxIMyg-6" value="ACK" style="endArrow=open;endSize=12;dashed=1;html=1;rounded=0;fontSize=13;" parent="1" source="EBpRJGDtO_Jt4ufxIMyg-2" target="Djl-HkBQp77y9a95uv27-2" edge="1">
          <mxGeometry width="160" relative="1" as="geometry">
            <mxPoint x="660" y="190" as="sourcePoint" />
            <mxPoint x="680" y="350" as="targetPoint" />
            <Array as="points">
              <mxPoint x="490" y="190" />
            </Array>
          </mxGeometry>
        </mxCell>
        <mxCell id="EBpRJGDtO_Jt4ufxIMyg-13" value="ACK" style="endArrow=open;endSize=12;dashed=1;html=1;rounded=0;fontSize=13;" parent="1" target="Djl-HkBQp77y9a95uv27-2" edge="1">
          <mxGeometry x="-0.0015" width="160" relative="1" as="geometry">
            <mxPoint x="820" y="250" as="sourcePoint" />
            <mxPoint x="510" y="300" as="targetPoint" />
            <Array as="points">
              <mxPoint x="630" y="250" />
            </Array>
            <mxPoint as="offset" />
          </mxGeometry>
        </mxCell>
        <mxCell id="EBpRJGDtO_Jt4ufxIMyg-17" value="getBtnPress(paymentBtn)" style="html=1;verticalAlign=bottom;endArrow=block;edgeStyle=elbowEdgeStyle;elbow=vertical;curved=0;rounded=0;fontSize=13;" parent="1" edge="1">
          <mxGeometry relative="1" as="geometry">
            <mxPoint x="90" y="317.5" as="sourcePoint" />
            <Array as="points">
              <mxPoint x="175" y="317.5" />
            </Array>
            <mxPoint x="265" y="317.5" as="targetPoint" />
          </mxGeometry>
        </mxCell>
        <mxCell id="EBpRJGDtO_Jt4ufxIMyg-18" value="accept(paymentBtn)" style="html=1;verticalAlign=bottom;endArrow=block;edgeStyle=elbowEdgeStyle;elbow=vertical;curved=0;rounded=0;fontSize=13;" parent="1" edge="1">
          <mxGeometry relative="1" as="geometry">
            <mxPoint x="278" y="339.5" as="sourcePoint" />
            <Array as="points">
              <mxPoint x="363" y="339.5" />
            </Array>
            <mxPoint x="453" y="340" as="targetPoint" />
          </mxGeometry>
        </mxCell>
        <mxCell id="EBpRJGDtO_Jt4ufxIMyg-20" value="&lt;span style=&quot;font-size: 13px;&quot;&gt;getBtnPress(cardBtn)&lt;/span&gt;" style="html=1;verticalAlign=bottom;endArrow=block;edgeStyle=elbowEdgeStyle;elbow=vertical;curved=0;rounded=0;" parent="1" edge="1">
          <mxGeometry relative="1" as="geometry">
            <mxPoint x="90" y="410" as="sourcePoint" />
            <Array as="points">
              <mxPoint x="175" y="410" />
            </Array>
            <mxPoint x="265" y="410.5" as="targetPoint" />
          </mxGeometry>
        </mxCell>
        <mxCell id="EBpRJGDtO_Jt4ufxIMyg-21" value="&lt;font style=&quot;font-size: 13px;&quot;&gt;accept(card)&lt;/font&gt;" style="html=1;verticalAlign=bottom;endArrow=block;edgeStyle=elbowEdgeStyle;elbow=vertical;curved=0;rounded=0;" parent="1" edge="1">
          <mxGeometry relative="1" as="geometry">
            <mxPoint x="278" y="424" as="sourcePoint" />
            <Array as="points">
              <mxPoint x="363" y="424" />
            </Array>
            <mxPoint x="455" y="424" as="targetPoint" />
          </mxGeometry>
        </mxCell>
        <mxCell id="EBpRJGDtO_Jt4ufxIMyg-22" value="" style="endArrow=open;endFill=1;endSize=12;html=1;rounded=0;" parent="1" source="Djl-HkBQp77y9a95uv27-1" edge="1">
          <mxGeometry width="160" relative="1" as="geometry">
            <mxPoint x="430" y="320" as="sourcePoint" />
            <mxPoint x="270" y="370" as="targetPoint" />
            <Array as="points">
              <mxPoint x="380" y="370" />
            </Array>
          </mxGeometry>
        </mxCell>
        <mxCell id="EBpRJGDtO_Jt4ufxIMyg-24" value="displayPrompt(&quot;Input Card&quot;)" style="text;html=1;align=center;verticalAlign=bottom;resizable=0;points=[];autosize=1;strokeColor=none;fillColor=none;labelPosition=center;verticalLabelPosition=top;fontSize=13;" parent="1" vertex="1">
          <mxGeometry x="280" y="370" width="180" height="30" as="geometry" />
        </mxCell>
        <mxCell id="EBpRJGDtO_Jt4ufxIMyg-25" value="&lt;font style=&quot;font-size: 13px;&quot;&gt;inputCardInfo(card)&lt;/font&gt;" style="html=1;verticalAlign=bottom;endArrow=block;edgeStyle=elbowEdgeStyle;elbow=vertical;curved=0;rounded=0;fontSize=13;" parent="1" edge="1">
          <mxGeometry relative="1" as="geometry">
            <mxPoint x="462" y="437" as="sourcePoint" />
            <Array as="points">
              <mxPoint x="547" y="437" />
            </Array>
            <mxPoint x="969.5" y="437" as="targetPoint" />
          </mxGeometry>
        </mxCell>
        <mxCell id="EBpRJGDtO_Jt4ufxIMyg-27" value="&lt;font style=&quot;font-size: 13px;&quot;&gt;ACK&lt;/font&gt;" style="endArrow=open;endSize=12;dashed=1;html=1;rounded=0;" parent="1" edge="1">
          <mxGeometry x="-0.0015" width="160" relative="1" as="geometry">
            <mxPoint x="969.5" y="464" as="sourcePoint" />
            <mxPoint x="465" y="464" as="targetPoint" />
            <Array as="points" />
            <mxPoint as="offset" />
          </mxGeometry>
        </mxCell>
        <mxCell id="EBpRJGDtO_Jt4ufxIMyg-28" value="getCardInfo(cardNumber, cardExpirationDate)" style="html=1;verticalAlign=bottom;endArrow=block;edgeStyle=elbowEdgeStyle;elbow=vertical;curved=0;rounded=0;fontSize=13;" parent="1" target="bhrVy4N0abvp576ocAmw-6" edge="1">
          <mxGeometry relative="1" as="geometry">
            <mxPoint x="470" y="500" as="sourcePoint" />
            <Array as="points">
              <mxPoint x="555" y="500" />
            </Array>
            <mxPoint x="978" y="500" as="targetPoint" />
          </mxGeometry>
        </mxCell>
        <mxCell id="EBpRJGDtO_Jt4ufxIMyg-29" value="&lt;span data-buffer=&quot;&lt;!--(figma)ZmlnLWtpd2kZAAAAMDoAALWdeZhkS1XgI25m1tLVy9s3Hovsu2/nsZPLrcrszu3lzazqfuJLsipvdSWdlZnkzep+/cYFERERERFRERERERERERERERERERERERURERnGcRjHcRzHcZz5nYi4N29W92Pmn3nf9zpOnDhxYjvnxIkTkbf+VdfCKOqdDdsXJ6FSV51sVOrdoJ1vtRX/1Rslv1ss5+sbfkBWdwK/lcp7htqvl4AzQWWjnq8CZYP2maoPkDNAN/CF15KhNZy7walKs9vyq4281FyuN9qV9TPdoNzoVEvdTnOjlS9J/RUHdkuNuuRX43zLX2/5QRnUkaDo1/0u6Ga5e0/Hb50BuZZGtvxmVZBHS5X1ddJjxWrFr7e7hRatF/OB9O14qm8nG50W4/ClZyeCdsvP12wJ+Stc3o74yvz9g4hJOA2spAmd39lhMkFBVeo26qZhZTJbrUpbxqDr437Y3OtFIWRFitqmJYhqjU0D6q3BqD8YnW0dDIWm3qjf67caFKhGyZQLB7taj6DQB6VKjWKnxqgAdTFf38wHQN5Gq9FpAmTWW/ma0GULjUbVz9e7jabfyrcrjTrI3KZfbDdaQEsyTtLlasWwXfGr1UozEHC1BRHLbtb1SMvf6FTzrW6zUT2zYZis0VS95JeY7jnd0bZ/Wrp0LKhWioI4HpypFRoiIycqdRqrGyyzWimekqm6Mijnm353q9Iud13dq4qNeh2epoNXF0UeC9VG8RS5a7YqpQ0jW9fCqyYjva7mlyp5gOvLlY1ylf+l+IYABnawNzqwy2S3qnlp9KatfFCudNu0TO4hm/lWJV8w/b+57YCHGqBbZD7IPSwmcZL98GCvNwm3BrO9dnj/zK7MTcE9nXzLp1RRyU2ipm+1hpEdrw0LmSbEnWwmyZYaW9LP7OXmM9fMt/LVKnqDaNe6LTe8pUV01V8X7LJf3+iW8vQ8bxpfkTwa0pHMqmTWK4brEQM3qiVfpnitjdb49zYq0sujzZZf8teRhlK32WoU/UDk6hjT5Vel/Hgsd92g4vp4IkHVOtV2pWmQV9Ty9U6+2q3Umx3p25Vl/3TeCs5VxbK/2TLg1U2qOfQ1DYZtQVlc6dl1zWpHmr8+32o1tuJh3mBz8VzcWBiGo34NDRF++SDotstM5YbYClVvtGrGQulSvnXKF+ae66UIQkbEHqkuYADIZouNaiPJ5YwwmTpLAXprIKMo1Cg1EETyK7ZKnF2dC9mRoLHe7hoe5NbK+VYpyRnL5Ld8qw3H/NNFBoqMkjleNst1Isi3O4nCXmFaAbiy2qlV6o2g0pYmrmr2BiMnfitBo2pWUCESpQrzSmvSVTA6QUlq5gNLASgoRE00G1wmwUHkpDZbqeXNyHJYq5MVgKXNSskX47Rc2WcTCXZ6w9DOPrtAy28XzcSvV2ScGoEzrbWt4GX83d1wx/U4W0HNW+wBeTSAQlVqNZrzrF5vYHRYyXoJ/e9IB71CvnhqEZURBSwa27rUQCQqGHLQqtPE3pHqamPLAHShbfsQIBHVbjHfFNHKznNoRKto7HFOmJbCnfG0NxuMR9SJrS4ts77MK7BmuJVT/lzavGrYEzPeng72ycV14N0t+27ldf1gfzucdkaDWQTfVl6GqpqV0341AND0mp1MKL3ieBTNpvMVXmblwSspN0PStbxsRB79cNOeCYrsYwDZdTiWurZGzmUM9VIwm47Phfnh4OyICgkzhXlmYQF0o9N2oGeJi70JEhmPh+Ea0dCJwfOsRsq8yCAyNuvf06lU2eywVCCzTqbEBtmtNsf0IXxYwAS1lLbhy3Mr3b2V/Eoqfxv51VT+dvJHUvk7yK+l8neSP5rK30X+WLHSKqZbP25He3I8kJmpsXu3wKqCv+nLCHQ8cK8wHg/D3qgxCWMByXbqVlOZRqrJlgOsg04B42pg77RRYCOvZvLL4+nggfFo1htS3Zm21Noiy2YWvJMdNsv1iunhvPZmOJ0NUD3BNZoUpaoWGu12owbk1cYHUVg8mEbjKfODXc9j+yhQxVYjQNMqLWDtn/FF9RA9ch6unmmqmWco2MIiIk4+i6kmyZEUK1WgpZpYVKmyzBLjJQKtJOtnsqubKPt4WhtMp9KBRIvMqpNqA2CBsIxsSW0RYa/Ui/asPfGKbKOg1FzAtbE5Vh+yzfoGKHWy6Uuqg01JvGZJfL6Mf/9kPJ0d1qEMvgUmnd3LKYqKEXgWpn0dIxKV9aq9i+OD2cZ00LdMslatUjM+76BntSwzr9PszWbhdEQRVJWm0RBstLHV2qznwWzcCqPBA7BOpsh0x8xM0g+dQJ5Ua08PRjtO/LxSJRD3RHgqXFW2ZgAdzC4OwyB0Y2fpWkHD2cc2Ti2JLiJdVlbwr/EV6kXZWDJtv9ZstPLGt87GbJjMWZjM5CX7DaCOdwsMR2/nnF3GZExlDPS9zK7pgWajxAk0sKU2ck1zl8yunVKvgJCJiQHOmArF8QEdmrp6Sw9Wj2l3i5PJd9qyc2VTrHKG1cmDaDbYvUjRg3Jp5ot+F1NgXXzbg8AumrGvIHHpg8q9frfdwKiY+VhAIGOsaaXWxDcmJyXQ2ME3x9FA1pLtA5Trp8oXmOWOPUUYsq2pmGK2Fk4X+SZo5VJbnJ4Rt1pQx9zsEAp+e8v6MhqSERpKs3ZNV+KVQvN9ORJ15TRIXndaZp0K7L+kmWK1YTzMLO5wN/aNyec6TfxPv2t88m6rU29XzClkCaUqVcSZMeu9XKFr016q5eP452i74a7y67TelarsROR1rcEpFFcS2LOwLchQqyweF3DWFuA7CFnO5oynvQQVXq1xZDl4mhGulFr5DdJVyk75Z+JqR8huNuzJZQ3YjqNs1vJokkfByB9rT3sju2h2DDexg+K4t7uYfPZSGS1kCtVkETd9QL3OUZbU43TEqWa91Uh890wKFZv+bApnjXwuhUms/FKzE5QtzjFbnmNiXitzlGW1OkcknI7IgdTiHKe1OSbmdHSOspyOzREJp+O2oywTRDGzEwvImN8VC1jL8soFXML1KtOSwzqmV6dxMc9r0kjL8to0KuF4HfaqUuxKGbnrcQaJB+TrmDGjdDfg9zdwD+eYG/1ehI7aFT9OCKHYKVSKFChhHWc0Pnoq64mtsS42NUSJkqKs0C1gcrbuAm7Jmukkvxw0W9bGr2xgqNhDE8SqI00QRyxkVABttfK/tohsb4mBOHoIWebMA/pYsDMdD4elwdTaCjrttOjrWHRm2FhcWxdDMxN9D/uYqVlIuX+6yeZmrWYRDuIlmZze6LCtaC8irEJjwMtKD8e4Ogb0iuMhvoTOTtWq0mf5x9vmn0yPf7LW3aDy/eT0Rf7xWqCgniMu8E9mj3+yhlMwG0+osCOweoHSE2eHIfBqvdl0cL/SS/u33EJe799yK4m3f8ttJJn9WwWZ3b9VkLn9WwW51OxNsbmVUT+knnf2YNBX96WYrinP+v8Unu8ND0Lq6ANzFrhZeevMUr23Hyqd2e3tD4YXodeRbL4AHkxm0c50MJmRywjtZm866FHlYD+cDnbWB2cPpkwt26078yrEjvUE0Jz1TWQO2DSzWDWY9HYQ6oW6HP7xAMSImbwmquCOiZdhsC6LKwNMc8BUcpw3MA4S4mzWN1272JtECPO8CvpnzouapBtnvKbP2U26ngHRTXLicxPNEzAHisFuAC6l+DfjeU93C5+cf3HNcYcATH8CM8ksTkJVQaaNqmm8fGPg18PezEzw3+gmRzqKVPG2piFxvfCKzUDwGekNqekgac5F85YImYhvutxoleqkK/n1lpSvlurGGB2pd2rSpTU8aIloHWVHlCEdK9n0uLjWpCc4gUp6RT5vvPkriza9iuOMpFcHNn9Na9MEMq4VxSS9LtgyEdTri8GWpDewOIK/sVg0obSbAusmPaRcMTHSm52H8tBGqy79e5hMCunD2d9kKR9RaptD6zesV/MyjkfWNlqygT8qQNZIH83xQNp/zDreLOljyzZ9XNm2+/i2zT/hHps+sWnTJ8mRh/TJ1fWC5J/SaJr0qa22Sb+xaevf0jxVl3m6tYr5IL2NVPp5e6tdlfwdpJK/M19obZLelS9sSv5ppNLvuzctn6dv0iHSZxSqW7I+zyQVumeRCt2z86fKMo7nFE+ao9xzi+tGEZ5XbJp8vthpCV2BrV7yRYybpKV1y98nnCb9WSe9jXSD9HbSMs1KexVS4X+ybMdDaxvSn2q5cVLkBpfUeCD1Co4EaeNk82l3kzZPNu8WPvecbD79FtLWyeYtd5AG1ZM1qdcmair0HXY1WZdNcV9It0ilH6drp2qCP1OvGsfr3nrnVJv0m9gApF/PJw1Iv3mTCSe9rxm0Bd8lFfwLWqdaku+1mmVJt1udgqz7ToCLS9pv236E7bo5bOyyTLJ+ZzeJbZHubdrywaYd9ws3Txl5ObfZardIh6S3ke4HAZZXqRGp5Mekt5NOSO8gfRHpnaRT0rtII9Knkc5IZZ4OSJ9Oej4IsNlKXSAVfveTCr+LpMLvAVLh9+9Ihd+3kAq/byUVft9GKvy+nVT4vVgHwW3C8Dt0cdP08CUCCMvvFEB4vlQAYfpdAgjXlwkgbL9bAOH7cgGE8fcIIJxfAWC6+r0CCOdXCiCcv08A4fwqAYTz9wsgnF8tgHD+AQGE82sEEM4/KIBwfi2A6fMPCSCcXyeAcP5hAYTzjwggnH9UAOH8egGE848JIJzfIIBw/nEBhPMbAW4Xzj8hgHB+kwDC+ScFEM5vFkA4/5QAwvktAgjnnxZAOL9VAOH8MwII57cB3CGcf1YA4fx2AYTzzwkgnN8hgHD+eQGE8zsFEM6/IIBwfpcAwvkXBRDO7wa4Uzj/kgDC+T0CCOdfFkA4v1cA4fwrAgjn9wkgnH9VAOH8fgGE868JIJw/AHCXcP51AYTzBwUQzr8hgHD+kADC+TcFEM4fFkA4/5YAwvkjAgjn3xZAOH8U4GnC+XcEEM4fE0A4/64AwvnjAgjn3xNAOH9CAOH8+wII508KIJz/QADh/CmAu4XzHwognD8tgHD+IwGE82cEEM5/LIBw/qwAwvlPBBDOnxNAOP+pAML5zwCMifpzAYTz5wUQzn8hgHD+ggDC+S8FEM5fFEA4/5UAwvlLAgjnvxZAOH9ZHw704FrN2K7VHUrHLpYnPmWtN5mIk6O93el4X9yy2Zh/vcJwvK203r44CyOV0TbCpLwMF3Z7kh+JR4b/1e/NeoZ2WWU2B/1wrDwvpolu70yHQrQ+GHKyLYo3me+/kKCC0isz6RR+XrTX648vRIDe3uDsHmf0Pfw+PMl+OOsNhkDZkLFE4mTgUZ7nDB8SOgJemoX7JtZoi5bPD7Y5e+4IvGKuAGyz7lpXeUf+/za5g8c07TG2VbW6PRWeI1omd8R0RnnXmQW4QukdmQj1AuWNxcOciQOeOT+IBtt4W1plSdzNzXGVi/DEI7Wrl+A9inbH0321p5YHZjVeqtWKgdp7uM8j6Tqo1d4IJIeKihQJ5gqLweXDI2XZltWV5NOXFFepIxazNz4Y9ovSv1pvBIL+XDcdczqhMt1ci6QKwNFdM7eG0i3py7U6NpGRrpsirLU6Hu6PXzgo0kKT6DFzvKxPnDdC8jKtriLSe3Yw4gQjLW8N+jMGpq5ewJZDmUfQ1+xISziw6vMZda04pzXWqoTwKS93LryoRkrvgq0ORnElVlcwpcHZkN5lOD2Qsy7tAyormS1LmOMqgBzMB3acXqbHhXa7d5aGtYB1mTXkONYcE3C2jV+1s9cTNz+cRlDoJGcaqpRkyF4kcON8OCXuGbZ7rK96laczQxMMNcGybVad25ohvY/YaHTu7PDiZC9ih9FL/eTGJWJ/0cvbHPvOvehgLIr5Rq2vsGw26QAk9Hhll8Eks/MqrVd3e8PhNnGwdQoiNdJH9hDEKY2dK4zvh8trtV4jB/RVTx+dJRFUTqVTd2rLqWMOH/aT+T0+HJ+VaLshaY+L8dgbu7tROMOyqFV9Yn8Qx9ySelfuk4O/bf11Wl9VTnVIedltAnb9SPU5BVoD4o6Mmb2YDo84R3Ar4bNQKZr3m6MxyhTDmUG02RvCCi0ruPlW3gqqbg9EWLwLRg6RHSk7A5ARIOl6VnL5aIeGyS1jGcbTsJq64MIQ7A6m0SyZDJrN0YV0fmlDVld5yzvj/f0enS5YAzo/EW8rKzQMk17vMn9GTGj/Uua9/nlngpYuVbflUiI9GOYpx35mCMucMBdD78QJuT/v7k8KKBqzZNC13pRlcXOb7paNKxgpk5qSqYezC2PI3XiYnH3m+wECHPyTjOpSVZCdiBsB5kTLUkfqPq2Di/vb46FjH5kM7bJBWThmEgkDj2iB2MaAvofrTA32laWL2SKKZpPzPNYeDhNweF2cbJmrjXAkFp0Zcm2N05z1QRSus+YbsosyjosjExPQ7HyD3d3GaHixxayf7w0NdabEuf+8mN79g5mMzhhcy9db5EvGKayXj1CXVrgLjZgyzEhciOgHGF9aHx9MKkx/rAm6F9d5hxYaZrXy4MVmwioPWm4sH51lev8vFEE4e3CiAKmUGZLGwIXEfBBLb3V3MAxP2XFFphAWeBhujOUezgKhG2HZZF3cWkV4vDobux+54YCNdnpRFrQ9Dg62JeSzDZkg1IuxkqjSZDxCLW1Lywej3aFcMcnVQZrlyiDqxEUhIq5WbbeLcf1aL0Kx7JJldmKs5aonB9vDQbQHM2lYutset8PefnXePWnEO9xIpoIfJlraYNQiA8FMhj2XNWHV2A0u0FOkxxGLiOIsLHRhUYouz3fztv8nzih+bxikViSuYlnbRwmYR+O2XCM9YQs2boux76hzZorhOxAfJzv3X3Ikif+yFE2mYa8PxXK0N77AXON5FUJmsC+6B/lKWxwbY/Yqo11xH017m0r3D6xaUtlr4oSMpaAUnh/sxFedccBVTuTmOlYXiZGYqJFncMRgJVZHHs2Uiq3Yl0H3XeVicatrvHB9qBH2FMlw2EBwnf1iNAy90mc9BrsDDDCSSy3L86NsKw3mkB256Sx5WxioleTeTBF2j2P0WuCkxJNcHKnPEChmHDFl1mUT4pxDxPTcOtc7Jhqx7DpQYL8/i9WQzQ95xiTSG1pJRi13VYS97f2S3AC4xw36EgZ2DElNoi2VUjd+enMpeR5BY3sSKfO87QRtuHySqZyjirFA1Xv42GYODZXK1fObBPtMPFNxCeHeDulgy0QYPUnlLaIhyLjbCHObl/Vx3OXcA2eWU0wPFPFTLAhU0NowkU6iUk3Ydpu3dzfvAOHZmgGePuodcVyIDnZ3CXSj9gPxRU3X0KwdHLGZ7AYz9W0qE50/K7bCeIgsP1nOVCLZn0MTyDUOZuIyiMNIOWaK1WBrlo2D/DIU6+PpDnorbyywPeci0CtsOvntaDw8mIVu68VQ7aQH9Rmtjrgeb264JpVXWe/Wfd9dIOSrW/kzAYCuGhdRrt0xxzMZx13Ybhxb5WGHE83NjA72A3SedYgU7pXTc45AkcUGogX4GWcPsGxTl8OLoV8s48pEDB53+ner1Q2sOetvHGka0QmreOvINLFLEFzAEjDf5o3nisLGLHhE1l/AOuFuBAK2pfMSG7eyKI9USAiktxqnBOO515IZf33dvjbJEnZstATKuecFS1ghLL7hl9qnbFvWysYbsNuc4q1NCFgjBilrTu8jwbgqEWsRqz15T5bJFrnrHswecs5UgTAiK2vDELgl726VfVSxXKmWuo31ri0mcs/9oX2wyghR0zOuRCp6+elO0gv8XSYxPzrLLHLAxf6mst6A++xpKzbVGWvyq3jR1D2YDuih7g+iybB30Yjxmvg2Jmuklv43hwecyVxrE5NhJqmG38OBiArn7ECbpqwVDnucFfZshezEIG2FfY7E6BIgemSWGhC3vBQOQ44WCGG2djCcDaT1cLo+CIf9TbsULNAOqsDcIww6fQ/G5RcDFJ+v1pOTeko+3B2/WFoSz5nTjLWeQNnYgOYS07qUcPNH/Yn40Yw5dKDsWbSJ5zOJV3qbqy/b7D+gQUllAFR62JRadD1FbhWPapBYWpnmAEjKuV+rlEpcXXIfi4UzgkuoO0bZS/b4iYKtWhvYztFMBFK4/DN2dq5yCTVrjqVBZGnGrxYaW9ZQoD15Nw/aeTK18fnQbcfjYf+UWV3cZkR/PRFrL0VbHhComF6sEB+hSjQ+wKaZyerLZNl88ZAnwy4bDscc6EReWHx6dw5xGSXVdudNDSlzwikHsnMdcy7Mbg36Z0O0jtEjFx4Hjriu3x9wBJQBZGcDpG7W259UovHddxGRZigY2CmEwplBCXHYz0ugIbODvxJnslLAJBuj45V8ednPJKmtMndthUa+JdOnsQjnLEkmX22WJWYv197orw+kzdtU98LbC1gHFijAY0AZ2fmcoBY6qD6pedPO8W6Ejnhfio2lORTZeMSdk71eFKol5RnAIu+aYJ7iC9YXqkwqawmeNpP+HVHGobGou0d2OnOSWtTTB1HTOrji66OL79Q4g3jaE+kztB/0hvMlN7P7b1q9OI10cgBS/6gzCr9hDStqs6xudaBtLxxEwXh35nQ/kCIafZcm4DIedSZ91sF15BfBrQ+Gw5jmx8nbLTPG/KSOBGozPvVFTSTdZEsL3f+N2KwD/5xmlJex6V/WnGVSRfMN4kuaKPohI/8hb/xCvNfgAClmaaehsRDGbAmnP0Uhz9fG49FwQGRqeDFu4fOY5D1OihIqs2Nidu4jmuPQqaGZgjfHBaLuc/TPxGjnCCQFb0sKjA8/L/jZuEB8gTn67TE61R/cEtsNyn9VRwbZBykkrJH6hFtWwVnCuOT3UyXSYcF9MoWznRLsH6Sw0iPBfSrlMzZ7KHbELY/+TX3ZHhYSUnr5YSMUCM0GmInSBMijJIvfxBrNLm7KjtWY9hEE9WVPfy1ea7Mnzhf7fVo9ADeDXdSJfweUVEifLL8lXbAJfysi32bRifFLydr7NbG+yNAvCuqr9UF8fIR7upG3EOXElHYepPjL8QmVaRLl/mycN8v8J+Je2V6cMqr5OWaseBuD+tOYLky22zWuJ2wstrhY6V/nXGRSS+FupD7q6VewPafQTGWEeujv9dwAZcBv0epF86w1ArIUEjIJErycPr8VWyJnUQ5atsAM4PsXm87jA5wd7ZOL1Ec8/UpOZwTL89OwcLDNYok38YvJoTaQkzEXUPqf9QKKw/IHtf4XY2KNT/pmrcZxxnZxEleoyo6lcuo3TWTZ+b/XxrAlrmB8e2envcme2F925VV13SGUJTyZYOOHJqvq+sM4S3pqhhrluadIP49+vHrEZdC2Qjsp2UToJaKnnqi+4RKkJe4Ivshmoq5Tj4xhW7Qp2VQI8Qb1qEWMJdtiS45jpHRsnrPFz5cZqrPNEKV/Qgzbom827GTRX6PVE+OMLbtPSE3kacSBbn9/PKrKKfGAIzgr++0Lpez/988Oeni1c4oXoysJSWmAgoXSZXaqNNV3pKns9iVTkyZ5SZoE2yHXE6C/M40O8CPQnnvD6Ziil6aL6u41kH2JNOHO+9JCt9xqys3IpaVEEY3boGZcj6eKi/JS6Dw3Lylcsjvdz8U5GyvGJmY+5DrZUCYq/nEoeozHxq5vUh/m7m6Eyp9t4r8zn4aRVn8Yo6vMD/k/wuW9v8oqyzHxL9nkTO9QJ3FqXumpL3qyHB18rKo5ecYNLnPzOhuf5VjSb4wa7XU8LaYkUt+ifz/BE1RNF3xSJzF/9ZIMt6Ci7sLrpRn1GaOGZtyCirCb+qWm6cKgP5g3+sMG17b3F4J6lvoRRhSVe/1Wu9qmjDG9JXUQXnKglcNnECg7Z6zJsoUs+pnz27sVB9qCZ1EzCYCtJhlb+OwIS4H3vyapRT2XaEJytcf1i8vYwuf1kStMEcs44jrlWCprCfL7uJ/07QpJLaokYCVq2NADZVctICzRuuCMu/QKT/16atNt2LEwrKsvQdqqG2h/+kTJ5dw8b0nKkXEJ3A3bqropnbckdYsyBkk9Qj00lbUE91gMQq4eqR6WZGxhy+bNr1IerR4+z9niYBc/Ye4+PHaeteX32goWJRSPSyMszTeFxlFhG9P6SQ62Jd35xBRd8OO2QyhLuCvtboTj/XCGU/wFrW9PIyzNWdtyjBSqOxZRlm5Pbm9QQ8RyPKmGu1i9+awzxT+g0wQtmehDFK+ZUxTGs9l4/zJcfvAwzeUYvXZONC8ZyOY2QdhRUGTuhw7TtMfs4pTOSV6nZcPGc0UnI2w4o2b6jab9sJzQ8tuHQmAv8bbH4i8wvrLxDcD9hMPZ3iboNzm0DDFB/qRDmjEl2Dc7LIuL042gi8q81SFpygotw/4Zh7NNJei3ObQ0lSB/1iFNUwn27Q4bmPW16GhxUn7O22MHspt5Micz9TB18+XwVjSakfzMQYyMKihMtMvYwheavIwLA04fzqXzlmRoUM1eX7YCSPbTeUtCg6CKrASmxyipWlf3G+TJA/srkbK6aPK2tKQ+pU22nHTbMaSBP7RFmGjjh8wLPm0LONfjiZ1Uf2Sz1pkg/xmbb7JbsY0Hgwek1kn1Nwto036FSEREl75ii9Idt0Ul9e9d0d5g2HdVN6ZjeQn9VVviumWWEOx/WMBaIQD9txZt2Bj+QTjcZXL+zuLj/Zgqqqq+jxMPyBaO5DQK75Wlv59F/36LNr9jqavfsjnXZ7dStPQRj8t0Bh2qr2TUb8seHGc+ulDD9AIZ4XwwU031J1xHBSNke6O3jy71pqJgn/MQIHfvImdW419/ryikvQIJJKaYFLxyXlCgnbNzO4fp+z49Z2WCAh/W6kdTuDa1uM95fQpVml/t/JgOe8lvB06rN6SomrgA4fR8GJjwKZ3+Zfx/E8qi0NC31HtTKPk5zpr6lXlfiTDJPc7HNOc5lCW+BmlTpNrq11JNtYkRjQ9klT+Qpqz1yPC/sUm/rsnEJakRfFCiJMRfTZ5dlqUd9iS6/6FUA4F5WRMgZLO8eY0jRuYP5l2tzFlH6h88/aV5kVkKZsiEudS/eup/aBtSFVcZMdOfcHmJo+Hj2Ljr17T+83hu5IQOD/WPmiBlgvM5NYP5r3NMlZGawzWHPIoSvKnN1ss+/N/mWOpb3D/NcUWkjsUyXY0o0P9rXiaOVhKr/Bet/rfmaHzoewFH1X+x2A4r79R+Vf13ZtgcEi9zr/52TRDqQYs3UTOmVP29Vp/2Rojzodv+t2mKdsBz4bBzrsp2dSDh6S946ju9IT4nInh+EF4wtK/IqNd5pnPOlcRB1er1sftbZOgoXJTsKz+GR9kPx02EYRulUa/21DtET/cnht3LM+rnvQsmgCmvCjgB4z+HeKbqB1Loov2Z6rJ6jUOW7FC5A59Nw/hXrK/z1A+68mJvh3NIHoYRc65e6qnXupLKaHIwSy4hPuOpH3cFsjMTckd33ugw5fF5DI+RhNd66qcwIFsGH2Cuz8kEM7yfdrS1cNbry4A+66mXOZx/XmaCKdff7TBNdnqs/cVaODqwBvjznv4ez6xWa3whtpJEMTz1HovGvhzsjxZKftmWUMHKRsSOqt5rkZZ8S3YOg/4VgmzoFGc1f3Swvy7yx+Hli576n1aPKSjR7bjgS576DkIYGFAm+4gB7M73nJ75JeoIiWLUx+c5W1yQtbUG0R9JP8RUnLgEaYmLoYnUxaLSsLeAV16KteR+hOJVUJ+pediCJtywiLFk1f0B46kOSCC5kcTlbHFtJtqFcTmHEYHgIem8JWlsIwILv91+rHr0YZwlPY1kIAVpJwTn5DGXYi35GU6OfSKs5sfOtKeeqp58CGUJX2AnIeDECi4idKWfsoiydOgIUQyzCJHsfs9QT13EWLJttA6DLlHFiEiW/sZU3lLs2CdLIgPqTVrdMs/a8v6uGJEapyRiB2YNlVbRJUhLjC6atsfrrIFWcniNs5bgvB1LgVm3chHXh/qChJswJp/X+hWamTOyKVJA2at0ZHa/+e/M7lU/gcUSjzrYH49ne0wNi/omR8f5OeLWZ1u9VdsW2zI5EZfEAsDwFxwhC8U67ZjAO3Oqnq/eDdsER+9h8kvcwdxP8FJ8m2k4Kg3Eosmjh/c4Lok5+YomnNlzV5Jf1eq3Yptsw3eCrpoV2HQWOac+okfUJcxC1hj/T2v12yY4Nzz0gOLjWn00LpBNbgbjmIBe/k5cNp/diswiIxGCT2g8gEso8vNnCp/S6ncNAcJhLpzuU39s5qLHfjgluC/z6O4fxG/Ps/GZBRD7/3nr5hXhSZPMm6zHSfUXcwZyPSAcHoTBF/S58CLxl7NnmdkXZ7i9OD/Ga/HFhDb3psTimO+/1tJTsegc/vcK4e54indDeEcGeJ/+jy6MXGXLivBI9X/SM5ZbwjUy8+ornvrPLAgd3WsQZEZP6Si75Bi7SOwKmI58FzteNJu7my/3wv3tsG8YvCxDVJZI1F4t7A/sy9JPZNjREArWWVaZ7jlJYgf7IS8a7E+GnAriF0fN3igcynDf4O3N9k3k8R8z6p2eBG9a2Bn11Yz6Ba+3wyBN6KXa2ybUuqbe5Z0XEjCm0c9n1LsTTBFbc7DPeMRRm8BZ/VJSJuefwsWA7YmSN3vqA0mJ4CiM1Bcy+n1pLJ7ue7X61QTVCjl+IsFGBD+VUe9PSqQr5iIhUl/MqF9L8G3WdlTHQNDxLyTYYGc8gfLLGf1XHs7FqN+LZVf69k5P/Y5DxzupoN/jqY/h7hMLFsKAieXk/bcZ9bvsxalLMyb04x5LwuaO4/0yT/0eexhuOdvtrlwB/H1G/bFnF57lMTJS6aPpbNY7otQtG/6bW5d/yqg/Y1UN1p5O1tSfe/3xDpFIAo5p3v+QUX8Bb0LijC99iRtxUNdf8jbRprn342V6mOgJWfqs9+lzrzqWX5lyf84ZX0aSqQk2bzuiVuV5DleiqpnvBHJJyi3+hnwYQ/DdGOnV7IcAMp26g7KOTLLdBJszn1pbb7S27K3tkskX8sVTDrFsEOa5wApOBC5Lygnylhgxx9QB2zOHIY3Oix7PEemn/L2puQqzhcgVI8uCC1JVLDY3iBq2ms0v2XZLznAueHhcqotmcMCQe1SMizE3gF7qvYQIjqdZp+kAgXu9p/VioU/JRVhhcFjW+euNTSepJSd8cx5vhMehUp8imGTEm7Y3nfTnfIpGlDQRfkvxJk9lNhcw6uZaJQgq5sepqthoyTePWvlSpROQ1/Ihr42WfLVOvs5gqbw5slIv+eY1VyYwD3+6W/E3QLJBmyVN1cpZRDNfks9/xA/q5ANvKax9HrK8iIyfhqwsopO3I6ublaBSqIpwHZFXR+YbY2TWtrjflh+MHk2+THIs+XiZNGU60T085uOLNKb1S4hOzIlsPy7P64pLyC7P7spCo1UCIQ0mU3iVQ7qaCf5qhzctJthrHNY2kKCvNZ+/qLe78oNpv9Wu+NLedXYqi42OPLZJrdL1tUq9G8/bDbX86SRzo5QkE3mTFCW5h8QiJfY8MfZz4X1LSnjTJD7lSHAio2DRKmx/IsZCDeo+5bUly3kDy8fpIm245+28jXYelM6HSBob9GE3fzaE1i1WkU0Y8hTbd1zC1tH4EMxZRiAxO17e7CFN1wBkKVbvgtUl5T6FczYTVyA9s6QVjmlm75NnKuZtqIq/OOiYpTeseWPvTRpLlfsUzhsTpHqfF7cU02FnRz2ze+qZNPxuKDjvYBPr8YJkZkRqOAGx273fU9nz4xmhEzIf8FRu/yAa7JjcBz21ZFm3E3JPzwSuhqOzxBaxWZZgM+bg4XfN8CkwrPPSWsISAzxmSyxJ5yI6NWvDrRZB6nE5Ob+U5uJbebkR/bWGDlb9cJd6CNMD4/3tQbjufo5Tt0PN7KSr15OKH2Z46YdxueLl6VR2bohU2hBpeTnbqpSwld3AfG+ySzdYzUq97Lcq7a68nuwG8gEEW5BZaGF+u87Y4yGgIbJnfIyFWSAuyahX7OKO7Lg4fiNQveFmXCPDPja/nlxTWS6759UrUjdnlv3jrF565MuTqTzMwM00vCL1CU+tLDRv8OxJcmS1MMosHrDNvEbbd6c2hxAtVG5Lm/LG2vyM3EwhiY5fODNdmK160e/Ks2MQi7Wbh/qGnKAGo7Muu6b1wLnA8gbfYT/paa+SQi8ygcdM+vQpT8nZgKn6OsRtoWQ1GrVmo253RUV/8X3kk4DSX23dCl8OFGyI9htA7tM+yjz/JtUy7K5fQizsG0Mv38ZYl/0SEgKJfMoo6Nov3koxO28HUy4tddJ49yRvMdakMu57TKrd6tSL+bYPqM0XJ90rOc9WmxuChWemFt7kvITkGJSLKtWtqGW2TE6WgzBEEmOyU7OcL7rfAKjAFx/CfkJ1vr7ylTc3HRmD7AZ+lQ3UlDpvEihHV2WmnJeWboyIP+7zeCpnK0Tbwxs0AF2fIZF4YIBuiOl60knUZuJQbjTpOgMozDA+h/4MdgzPrOVOWMPTucg0zb25wVGK5rTtVTo6sMyl4S5ItIXtbyHEqa5on2n6QbFVMV9lUMWmLJB2HyvwioFs2JmT+c18QpMtt2uiIrmTgZnPJeON3SOo5eaZdtkgVzbEhV4NDPpIsFUxDtfaqYY8iAQ62uoEgjlWyJvPbhzHnZcPaxmlO1ERr5boh58K2WHI7NvIuLCEhMSFWHUSYwnzxBTkg18P+uKLhZk4JHNiTZloqNfGUlQ5+wpj5WWHgEgZ3LYPhhghswB/i8kbcCDiUC8zHT8FkteoYf2Ag/KUXNZyGlk/2FsZApraf4cqX6a2148PXr0hxwD1NVZ5ESVjRm3/ns2gP74w4jwo75Y4k2AvcyqHRET0NhztXJxjl2QATMR05qJBObUs7yenkelbY7dKOdKxUpgPT2WNH2d0WHXq84xOnG28gG7VfssjI3xsvZxZP3DK1YlpdMIlxnjGfbin0zD6nyn7eYqBsqWFIUNYNV+6UC3zwRi9WOxmBJtYs5+Mg0T5pxN4/jMeoYyDQF5uIBuMZuKp/I8spi2I1L94evEBesQa4WbJz5/3IXZmh0nMJZx9w8VbHsxbaIPmUolVTlALt0cIT1KQujzKYODb8+APDs0lsZ8cMTlWWSqIz0EMjXpL+3JWLhNeBEV+OenbpvNh28ZxQkEY+HvYDovjEXECmPSGedML2at6DmISOFM6AnOAS/jlDYnybpp3Q5wPFITpnOPakHLL580x6VEu3PFl5zTSezug1Cgve1cmP52ReyTKDZuW/PAkxtibvxU5sHPWNaEIjtCJr7GtVi8NNR6ZN8iOynVT6qJxzfZ3nWseKVer+iiKPe1ZAqdV2+rYzMxxPONmSo4v4jbFyKhPZ9QJs2BuMl/jqStg55pv0frMRkviHnMpgKEadabDyqgeXuAYAOqqRdbqnzx19SLKmB1W7xrTWHBuMGmPZYqZ32sTVOFift94uavqOqbQrjnR54y+PsnOZeSfPX3Doa7aWUj19cZDBJVY1M+Hia8ksb+bEqEK6LcE9ZvmMpBggtv6iMul3sHOfzbBHu+0pMSF3E6I3Tnln4mf4GOwTtXZwTlZ1gkIVKvGrOjThcbpLk4RsNcM7iDJsB+1i2U5lZLLnprrngmKyC4ZqZxGrA3WtfVvWIsynbav0DzvwPz4wLwYZcG9GqOTPnpZk9f7Nh/25Q6z0ofUS1CFiwkys0sQ7ZRx77I++4cNtHpHHfdoutMxkDcbzFhsKszizzzYguwFuetiFXN75jIMaCkURm36SvlyQl/Zx5aVe5H8lmllF01gndO41cl0fB75k8j+Ee5kzg4QANnKyK8xJaklOcrKuQtML3MQj0WOTqxm4EJUgsINhnBxxFXmD11LblS9lQMzEh0PUfbnuCOZxYazlx1N7jKjWVqk3HKzdHg64jlb2aQ7Ep9nAXd6o/O9SELgoXt0hOmecAUydN1GiD2TL4Ui8CbeZyttWGnI1uTjwsLKxu2erLQtN0yr452eGc+28lLogM0HbbFfMugf5lgccumqtBydOUxOjMZQPzikheZ6G3p3M5MYKa/NgiLM+IjWPCptfhwM5FrQe+NZNBnPXNaLOGQ4ONa6pLJdt9zY5hzV12PAilqVr8RGYTxyZVlXrYCJnHBmmlX68vqabRYjAnU/kJ0YhdtmIwx2CIaK809zrvVIvS6D85bYnsRPQN/nkV7V8jkHm2CxbsvLOVyvJrW3OYLHv7RZHrPfmMZ+JKP0KLyQZLxL+liSPmaA4tGAYSyDqGwpK6N6eOHQEBhUP+nc6zM46fF5biZmW+50hOtyZY4mFOE6l4skZ1rRh5uNuxcs8KF3Ucwnhc6anwypt2RUTpS7aCXUy0SL4ucE1i2SeTtbR7RcPtMmH8Q1DtXGevZxJL5u/cW5b5ouqYx8zK3CwdCsWJ6gogU5pdVqlbbNeItVsZ3mNpY+TAwXBiavZs4y9/JKEcPpfvhFJhPIJBKIkt9KoJ7RwszoYS+axcJhuas3sPiXogPYcBPz1gzmOMU+i3iidAn/zPaivMQiW+EMIF8i8SJDnyhpMiv2Z09I5KVNS48u09Eg6ZFj6joRqbdn9GInje0gBDa3QlxBxNzWZS4tS+R1iUrJfBHizOhlyjig299vEqFgWTG2TDiGEZvXtnlvUxzY+TlevEpx0rhEJuxVkW1Al7l4nW2HvRlLip76EqgwMQdVIDyc5HSHjYNGpUPezREt02emEyOYMKWnnvMdiKNxOaVegCqKfbcuYU6MtjHur0Tr9ulnqF6VUcuJ0HJ5ujLepqHzjFMt69V+yIYS1i3PI+gsamwscKRendFrdopjqxup12TkizmLNjJSr83oYzQ1pbdr6rhZs5imbBUWTTixgG9exk5S/T5xFB1JzL4kM4vpu3JCbi40RIwzWr5HlKzSOzPq6vML6/EufEPUc2tKYIG5u1a+f7WOmxaw2giRVtelTEdsgrgGwjecscDOZLwpo26QbJDM4psz6sZkUfLmUBKwUDftcnEYNUZtiF1drR6yl6z/uzPq5oAZ5sTem+zdcxCaGHHknEOxGkwATuEENUVpBOG6lIzI09tDFtBEAJw6ISC2sVZo5xEiKxPW25DeuZjwyiBq9lgpESQ9A98K93sELkdnbWiXJcETAm+ymRmQLOqyytJQQXy3nAsLL3PsZj1bCAzz2Q/AtqFmLPsTU3k5AtWRL4TghNXmcWVUcN4FKsjKQUTjUgEI0f76nNl7gtl4grMFi2T3dCPUC4qDJFNWmI57/R14EnBfKN5ZnLb3Y1NmNDVVH8DeTWLG6kMcVCexvDbTaBuDVx9E2WowZijKe7hQiT6nm/IQWwOYe0S3qOpVns4yFU7rI/WejM6Z5VUv0XpJoEIvQkOsEX2YBKh7Q6ery72dHRpQWbUSSSgkSMKDq3G+LR15jjoS54tj+j2y6OepNfP7ZjqVU0cN6MSJc57Jrif++nHbcLN3cchEgjgRLQixuQXJ6CtSQ0vk9X0ZdeUunDZdWGFZXWW4V5ACpB4jebFxMIsG/dAf7QyxMxxDxTKztFcbwiaTih29T10ziIocndHiIQZ92Bn1xwEX/efURzL6OoNqhSnU9dvxqkfqwxl9wzTcsQobhC86CNF4F8VaVjeadgr4VTt7gfnp9jodtkO/yZT5nBIJwMm8vdxTD5mMiTddHO3kjdgQUlM3J78n5BohNI6hfNTpoXhBs4vy7qRiLweqdIkRPLw02N0t7h3I8WotNWsYZG339iWJlZmPEtQpRlCw98bNMFORtbBb75zNVSJjSlkoWljaEe5R3vyMgzlt7zF7gqKJ5W1O+zL9yEJ5gPGd7uxdpAm9MrkUt3o54nh8RyaXx6/J+GJx4ZKLIcQjhKW1YCLijNHNQ6Q+yu4t2YK0J2TZbYGapoX6Iofc5HLYpVb8YMeslPLcB9tLXRLzBylU/FeLdEJaEiH1OLECl+2BSk/jQsPn41iFdMDBIAkmcn/i5+swU+vVRr5Nqrmetxe8Xr5aMX+LzUbYAeS7HC0/cH/fKVcz9wNL6Xuq5biRVmgf4swbW/r6jSVtWK65NNelmGt+ZEPDbAIPcm20prxdVszl8CGJP/YwSnjSxtew+BeoXHj/ZIrpQfYt6rOYv3132aP+TNwN9/LGYt5N6NVPqiRBJnWlPDFI7ircH8mxWfmTGfLnEuyflbDhWHN/4v5iV6kiKwmU9e/p5Ksy07l6g7scyZFZ4vZG/gSYmbLlJNPlsiMmWdloyR/ha5kC8qvpfJrwiP3O9ZqZ4qO0QnLMTn5lXXpznFp1+1dSTtDfbo3b42610ThlrqOumA8dOQuTTDIPn8HNnaPz07MHEj4xAapE7mrx7Jq4DStlo/nQzGUTGrY/g4/U5zLztwAiR7jopkRCc7oPwgjWJ6lOu4vS9in2vrhqwB0VSkbtgdgdPbIWh6164WozoRcmm9IOwdbkgvxLh/piCXxKxfvZhz+SCvPzKZqFkZkXZbIQcn9bbHCNw7yai0sTAbPheo5Oi689PPOmYv58IrNhtCMrXOQqWGhy5oMzJktuKTB/htDllk0DLrPCgjfMJ3dW7dUTF71YVhw8N+Vsm1pktSWP+9QL3JdYVKHTbluJ5jpIrtOy+Rb3i1Uf8OF1G6y7Q27pzN0SmbvacvUI8Bz3USirEOXYhLXkGgHRM38MK4gzt5Fpx5nbyXTizB1kNuOMfE93K87IN3VPS8ZED8+sN7inEOhe+TJWwXzb/JvkT1jZDjy/xrXHfLa/2XSz6/4y4n1Mtf2LjFyN+sVTBCKBPfkAkaPI1Px6p9L25SVRLoZTtEsxTpZPZm650XQtrxC9RDeDwPZpNaY4wkUdsU+LXQv8fKtYtsyOpi8+5Y9Q2iEeD5qVerIgJ2xsFOgKxkJyJUkzXzd/5esqWXvL7Op2y/elZ8DXcDwvNCz+Whkd6XVy22NR18sgSG+Q1PbrRtNbOeOJ7N1EE0IO+BBhS3qzpI7VQ/NNudaJ1/xhC/dHjyjm4xn5Bjepj8Twd2r1ZA0fVZKPzMcm9dElrnUd/JhSRd5INYyRemxp/n2wx/m1ZjkfVALgx6/7Ju7whPXKRqclbT5xw0elzJ8veFI8hidLc8gP4FMqNUmeWqkHPlJtWvpGN75bJHXTdiu7sEz0bTXfitjtWFHhf6dsiXQkHvHTWuaP/t1NEjf3dGBp0dR7RoAWmqafyX7B+tuL2meZP+OQZJ9NI9Lsc+WPB5E+r83uaZcDmWjILgJYKOTlLw8CFVnVZtWXGbFWvOTkvFJfF0HzObQLv3VRAVKEccP2t2KlDuhkniC8NH6q2pD+VWv51j0ds8I1+2gACI4102LDUJcqeUvcTKB7aoeewHq6H/WL8rsE84kP870cc/az1j7EiIqJ/RomNl3kg8e4mq9MimndFTyuronw1Mb4WQNOVocd4UxRtvmme+9KyNV+O07Nvx1HRpc448oOtUicqfobefNnwy7zyTlynlymyzNoVY1t49wS6rmd8TB7JBlk0m7wZTF0ufJt/LtUFk7L5Tv4d6V8J/+ulu/i3yPlWFrWElE5mtizY7gZiFkAeFxoTpQFewWiR3Llgo5dZZ7EXN2Rf69BHjqk11blryVcVxLc9aU2/95QEi25MdGSm4DmyvkQJyU346OQPFSeJj3MqMHDE+l9RFBjFwL4BunVI7nIFT6Puod/Hl1al9qPyRcK0s3HugcKjzPC9fiWDOAJ7sHTE0WcSJ8kfx2X9Mk4HyRPCezfxH3qKft3MtAUklvQEZJbZTC3CeJ2GdwdiKnsSncWzN+EuKtQkpV5WoAdJL3bdOHpWyZ5RrNSbNsBPzNodFrmA0/Pshbg2U5DnlPNF4z9fG78F1+fl9jbvH1lAlSQ/ot5AGY3b8eLVwK2c4iZOI0u+jLK9UanbXltxBsBcDk2JZV1+Zu09nOYJ5FB+5rnVPGyr71Vxm25yrzqbM//VpQ2gGCkBIT3fwDCCwAAnZd7dNTVEcfnt7vZvEh4iN2ABRFUkEeiFoyF7G9TdVfUqkR6LB67tNEGhEZE3ICChiQQBDZQtL4fLWxEsZVWhePBTTbFKGpBI9lijWnVVGncxVrOoUGwltrP3F8Ce9o/ek49Lnd+M3NnvvO4c28syyVuGbTxtZ46T8E62V20VurWF4YuWTRr/gW3XTZz1uzqOaHZ8+bU3BSqKZXTZLhYp8sZMko8HkvEJR4r67Lbbq65tWpRRLxWzkoRyZUhknCJWGJMy1nicWXNqpxfNeaCUyqDdOE/sxj905QcbC3TjS6zcaxuvGJRpGrJosrqMdcuqr5rzKWVi5ZW3iFe+d9mNloA2GTdrqYsMBRkLa6867IFd1QurVxQXXlTddWE8+T0BpG6MSCc0CiyyXWecSbXVc2vqa5cIjLR+u8tnjUiIbbtzsJ+Qyq2wtUoPfXuBSPCEQ/snmz++VGWeIfyP4EYFbeoqA5urcjFYlmuepEDmRLLW3t+fAwJczVITzxT4vLWhnyjxHK7VsmsmZkSt1pbLJZHJclMicd799LOv4iVhaTn60xJlrf2UCxfEayWogszJd5+BF4ks+ZlSrL7EeieCY9lSnL693iQlO/PlOT2I8hGkvNppiSvX6LW9p/IlOT3W8sho30jMiWDvLWRTr9aa5TXSjMlBf3WcpFMuDRTUuitbSqeKFYekqIfZkoGe++Jp5aIlY/k7sWZkiGOJCc317L+oxVcKyOd09zDD6z6+I3j7snzLt5/+Tdqv/pss3uw9wqPZG32yiDaQVvNI9mSI1JgFa60aMShUq+lpqgUaSa/pJZEk69p1oRq6jRJmg4NXEPUYBS2ApSVVp1l1dNslqyyZLUljZasseReS9Zass6SrTjea8k+y/22JR1ouORhl+W1wKFnIVfyB1rWOS3rpPwBc2A47bcUOKdmpH6Pco2WM+VcC3t8Kcet/3DELRkvD1vyTSm0RhAPA+AcmSyNqHkH/ZXjFfI96Z8bqWhzKZGO5Qdc4chZ9kmiJXXIdqVjkwzhDvmm2U3FR+yazqA9N3LCdrekrrc5PYHm6FI7nsoJuJPBKIwCGE+b1V3T+TtDlMQPYtUTcKdjX0Mcs4vC2YFk8D3bHU8VBlpSL7G/MBBPrXcYIZ/faIgc95stId+t/pbUQdZEmbupeC84prcmg8+Y1V0UbjJEUfhOwO2ZwQiaA+T2suZoiC1+v4Ee8m0gxEm4/5XfVRQ++xRxMgNKiBVPjUUWVShjbTUVjkyDMd7G7kw7GTyMmZ/YJfFdiu1ekDf4w5EtZgVKqyGKwh1safG7m6M9eD7KljSQJmrSjiC5kQ9d8aJEyPcsyNMY3a2MHrs52sVHB1notd0l8VaIPnBsMSt5vtcQLamFbP1UGZeDtJuPaQjaHegtqV+CxYlFdmWJ1ZJaorG2Uha/IZqjw9jywQxQdvibirvL0rHH/QrfjdQvsl8z4m+OjrYNozl6DcA2Ely1TaQ7/clgI9b/7q/p3GC7w5ER+H4IRgCtx2zqNA//P+djjYFO+jYT1FNE+hs0n7bB8VsKtw0Mb8B4zlYcqD/PrwP4cdulhObUSLRhnC29GvIL7DuKu5+ZFWMLDNGSCsEkKSJno9rNltNh7rVdJfG1BPS+g91J+wmCEm3ccSDLpnGvwXdewN1UvBzMBYGm4vvNSqV/YYiQ7wUM5gcoSjuA8mD8HoRZqvEJGoKNv2H4c03Zl2i8T6a/pDi7bJdDMJM0GFaHSAYf1jZ8yxCAfhP7VaQ0QfKGaYvtQLeurCQeI5r4dOK8D5MVrQPV5NqVOlXxU4JHDaGVF9mm3dcKsZ/+3ENOsgfSOJ4gO7B25UCCmzR9+4C9Dkk7jDVaz5dBsoqYtrPW2yDZgrE6pA+heY+WIIr6chiryd6dypjPR8RYbo4uVBtTUK3E9xnYuFp7Io9aTEcjj9/IAUY3rTQJze1+8vpd9UL3OUHJQZ4DNZ1ZGmsb6emhhBVtpIcUXd0GqMcp4ZVt2pecgjYXOYI4lsDQcU6du60oPJwYrDaqPtlujv4r0ZKysdyVIOQKQLyYmBupZJ2eoEC3K9HCzMtnL1OQIgEegukBzo/9cDY5BAfHEQEuYIiQ70FqFkswbjYA98tEMlhPUCPaONIL7ZrOaW3p2FV2OnZpG+Amo6FxOIEx+bWOmwFGW2h/sjoEgNT0VkWmnfpHQ8RTwngs0U4dzgAdFwhHRtOLg7UxJzBv+6jIBARxu5+hdRuN1hSbJA4H8A4sCxoX+tHoMo4HAIhVFJ4KtVmjfNIQON5nCB1kyeCn2qkeRriP3Obj+AadOcOwv4EUDMMsjpUQSZH0fDSZ/k3FHhwPR/0z0IzS++FtojmXY6bNfW6AgKeeItSdvEL5AeHkQwmTah3bJwkkjojVYO9jiI1Vd+2GqOl8kljHB+iACEdhUsBZLxhglBqNkvgMZ4tIORp9ZiXs07BfDuRzyCgayWApIZcSkK7YcIhJRsN40S3qVm3oKv8wN+3n7O/SA/e6rWHTE+2UXidaCxnqUcZOPvSa2MZ6WPP3BMRRrK43K31VaQingw8pYxSJ/JAm0/WtAYZeF1Nh7rA5H1ex5Vk+7iFhzTb9uw24j+rZfBu1TUg/oqAr9CgewdX1/PRmOsNhMHOZ9wdhRLVP/oBfIZltGmEZ1reiPr015Gs0Kxpav+mtdD+F2leGl3WoL/cng9/nwGbZrmQwG42RGt0wiG4k3wIdJ1/ke1ivw91qs1KdmCFEdhLyi37aZQ+p6sXQHoD5dGjtIYapoGtBc6YG9QLED2Bq6qr09XIj0hXqrhDMa+C+i8HHdBTqxNiOwY0g3Oswajr/jPqraHDNahAhn5tmnog73jdzIzeQO70V1puV+HcYQg9HUZgOD/k+weAXBOSUW2ab4UXXm159CnD0qs4ZVgHd/zFnpER7XO82BoMSbD7V/4Y4KVJC9KWnkwRpxkgROd+IDaEPPEpTagiqWI7oCO1Zwe+EpuYm4vTQ4/UkkUyEfPfBKKDHnzMrmXjHEM3RQ6AlEyVxF2iPkbg80vOe1moomXyJAgxleq13GLzOjIZ56ekWfemVxA+RQF56XF3g0PbablY68n5DiDRgh5deOnYzkNvLmoqvYwsvPYVODqlsKTh44IV8U04RJMDJACuTojlajIw3mBLCSy/k+w6M8XpsZoPrMGaWUcdderXqYGuA8YxZgdJuiKbiA2zhpadPNd4f/rmRw0CaqFk8juRG9uuKFyX0pZeOHYa5Wxm9dEsXvwO0T6/i0Mu3D9fPmJU8bzCEPrHNS68ldR1Iu9lfjoCXnkLX+15X9SKHTLWfMHkig7cYQuc+f0iUod5L8Is1DvJ83HnpkTnqXMEoXKddX8ER3KkYELyrHnTLF1ifhC1KWxT+sam1yCNmpZLbDRHyvUpZclWjC1UvczWN23/qy+ArJJ/x0xJ36h2UQ/O8hDSH9vipzqUcztVy26VNn0HEbAp2EGsxG7MHsfAy8XYTPOMuHevk40M+dgMvrX70admH2UfMSorvNgTzBw0S2FR8IZnUS3Q0W19XRh7ZfBFGHhqP27wg8rSyjkT/hBAZwzpSGRfh/wNKHIb5vNa8QVXJ1xNmxf92Q+j9V9P5oPbjm6TmWXKdZMt+ZfwJMMeI7GPcFtnmWPM+0Ty7OD6/ZiAcBWFYW0w7KlEWjrwDuvgM9u6C0D90nPJKF5ejzlDOvKLrNvOrJD6EH2XRYZyOTSS/ywj1Ev2bboshwP0AxLc5h2tRnax31gpUz6QCC8HPK0Jv9GRQ2HstGD7S0xpEI0FUQRi4U0KPX3P0en55mvv5KgVDPVvf0+bbhKQjoW4Z120MmGWGMMhK4nMSClXvYIO9JH4+UTnBmMhIpONKCZXWdFYOqNsw5iQ0kWqQ7ik3hEbGe7AXn6+Q4uUJUB3WW7i1JJ5jehzcI0DVi/o43F2kZ2wKkrtwpY9V3ClRFH6T3zfJEk3E1MXdEKrzIdGN04bfSokv4gSUs5JZBaKEQaY5V6imCIpdq6KrWhf5Nw==(/figma)--&gt;&quot;&gt;&lt;/span&gt;&lt;span style=&quot;&quot;&gt;payDisavailable()&lt;/span&gt;" style="endArrow=open;endSize=12;dashed=1;html=1;rounded=0;fontSize=13;" parent="1" edge="1">
          <mxGeometry x="-0.0015" width="160" relative="1" as="geometry">
            <mxPoint x="1230" y="540" as="sourcePoint" />
            <mxPoint x="465" y="540" as="targetPoint" />
            <Array as="points">
              <mxPoint x="740" y="540" />
            </Array>
            <mxPoint as="offset" />
          </mxGeometry>
        </mxCell>
        <mxCell id="EBpRJGDtO_Jt4ufxIMyg-33" value="&lt;font style=&quot;font-size: 13px;&quot;&gt;checkForValid (cardNumbers, cardExpirationDate, totalPrice)&lt;/font&gt;" style="text;html=1;align=center;verticalAlign=middle;resizable=0;points=[];autosize=1;strokeColor=none;fillColor=none;" parent="1" vertex="1">
          <mxGeometry x="1302" y="510" width="370" height="30" as="geometry" />
        </mxCell>
        <mxCell id="EBpRJGDtO_Jt4ufxIMyg-34" value="" style="endArrow=open;endFill=1;endSize=12;html=1;rounded=0;" parent="1" source="Djl-HkBQp77y9a95uv27-2" target="aM9ryv3xv72pqoxQDRHE-6" edge="1">
          <mxGeometry width="160" relative="1" as="geometry">
            <mxPoint x="670" y="575" as="sourcePoint" />
            <mxPoint x="280" y="580" as="targetPoint" />
            <Array as="points">
              <mxPoint x="450" y="580" />
            </Array>
          </mxGeometry>
        </mxCell>
        <mxCell id="EBpRJGDtO_Jt4ufxIMyg-35" value="&lt;span data-buffer=&quot;&lt;!--(figma)ZmlnLWtpd2kZAAAAMDoAALWdeZhkS1XgI25m1tLVy9s3Hovsu2/nsZPLrcrszu3lzazqfuJLsipvdSWdlZnkzep+/cYFERERERFRERERERERERERERERERERERURERnGcRjHcRzHcZz5nYi4N29W92Pmn3nf9zpOnDhxYjvnxIkTkbf+VdfCKOqdDdsXJ6FSV51sVOrdoJ1vtRX/1Rslv1ss5+sbfkBWdwK/lcp7htqvl4AzQWWjnq8CZYP2maoPkDNAN/CF15KhNZy7walKs9vyq4281FyuN9qV9TPdoNzoVEvdTnOjlS9J/RUHdkuNuuRX43zLX2/5QRnUkaDo1/0u6Ga5e0/Hb50BuZZGtvxmVZBHS5X1ddJjxWrFr7e7hRatF/OB9O14qm8nG50W4/ClZyeCdsvP12wJ+Stc3o74yvz9g4hJOA2spAmd39lhMkFBVeo26qZhZTJbrUpbxqDr437Y3OtFIWRFitqmJYhqjU0D6q3BqD8YnW0dDIWm3qjf67caFKhGyZQLB7taj6DQB6VKjWKnxqgAdTFf38wHQN5Gq9FpAmTWW/ma0GULjUbVz9e7jabfyrcrjTrI3KZfbDdaQEsyTtLlasWwXfGr1UozEHC1BRHLbtb1SMvf6FTzrW6zUT2zYZis0VS95JeY7jnd0bZ/Wrp0LKhWioI4HpypFRoiIycqdRqrGyyzWimekqm6Mijnm353q9Iud13dq4qNeh2epoNXF0UeC9VG8RS5a7YqpQ0jW9fCqyYjva7mlyp5gOvLlY1ylf+l+IYABnawNzqwy2S3qnlp9KatfFCudNu0TO4hm/lWJV8w/b+57YCHGqBbZD7IPSwmcZL98GCvNwm3BrO9dnj/zK7MTcE9nXzLp1RRyU2ipm+1hpEdrw0LmSbEnWwmyZYaW9LP7OXmM9fMt/LVKnqDaNe6LTe8pUV01V8X7LJf3+iW8vQ8bxpfkTwa0pHMqmTWK4brEQM3qiVfpnitjdb49zYq0sujzZZf8teRhlK32WoU/UDk6hjT5Vel/Hgsd92g4vp4IkHVOtV2pWmQV9Ty9U6+2q3Umx3p25Vl/3TeCs5VxbK/2TLg1U2qOfQ1DYZtQVlc6dl1zWpHmr8+32o1tuJh3mBz8VzcWBiGo34NDRF++SDotstM5YbYClVvtGrGQulSvnXKF+ae66UIQkbEHqkuYADIZouNaiPJ5YwwmTpLAXprIKMo1Cg1EETyK7ZKnF2dC9mRoLHe7hoe5NbK+VYpyRnL5Ld8qw3H/NNFBoqMkjleNst1Isi3O4nCXmFaAbiy2qlV6o2g0pYmrmr2BiMnfitBo2pWUCESpQrzSmvSVTA6QUlq5gNLASgoRE00G1wmwUHkpDZbqeXNyHJYq5MVgKXNSskX47Rc2WcTCXZ6w9DOPrtAy28XzcSvV2ScGoEzrbWt4GX83d1wx/U4W0HNW+wBeTSAQlVqNZrzrF5vYHRYyXoJ/e9IB71CvnhqEZURBSwa27rUQCQqGHLQqtPE3pHqamPLAHShbfsQIBHVbjHfFNHKznNoRKto7HFOmJbCnfG0NxuMR9SJrS4ts77MK7BmuJVT/lzavGrYEzPeng72ycV14N0t+27ldf1gfzucdkaDWQTfVl6GqpqV0341AND0mp1MKL3ieBTNpvMVXmblwSspN0PStbxsRB79cNOeCYrsYwDZdTiWurZGzmUM9VIwm47Phfnh4OyICgkzhXlmYQF0o9N2oGeJi70JEhmPh+Ea0dCJwfOsRsq8yCAyNuvf06lU2eywVCCzTqbEBtmtNsf0IXxYwAS1lLbhy3Mr3b2V/Eoqfxv51VT+dvJHUvk7yK+l8neSP5rK30X+WLHSKqZbP25He3I8kJmpsXu3wKqCv+nLCHQ8cK8wHg/D3qgxCWMByXbqVlOZRqrJlgOsg04B42pg77RRYCOvZvLL4+nggfFo1htS3Zm21Noiy2YWvJMdNsv1iunhvPZmOJ0NUD3BNZoUpaoWGu12owbk1cYHUVg8mEbjKfODXc9j+yhQxVYjQNMqLWDtn/FF9RA9ch6unmmqmWco2MIiIk4+i6kmyZEUK1WgpZpYVKmyzBLjJQKtJOtnsqubKPt4WhtMp9KBRIvMqpNqA2CBsIxsSW0RYa/Ui/asPfGKbKOg1FzAtbE5Vh+yzfoGKHWy6Uuqg01JvGZJfL6Mf/9kPJ0d1qEMvgUmnd3LKYqKEXgWpn0dIxKV9aq9i+OD2cZ00LdMslatUjM+76BntSwzr9PszWbhdEQRVJWm0RBstLHV2qznwWzcCqPBA7BOpsh0x8xM0g+dQJ5Ua08PRjtO/LxSJRD3RHgqXFW2ZgAdzC4OwyB0Y2fpWkHD2cc2Ti2JLiJdVlbwr/EV6kXZWDJtv9ZstPLGt87GbJjMWZjM5CX7DaCOdwsMR2/nnF3GZExlDPS9zK7pgWajxAk0sKU2ck1zl8yunVKvgJCJiQHOmArF8QEdmrp6Sw9Wj2l3i5PJd9qyc2VTrHKG1cmDaDbYvUjRg3Jp5ot+F1NgXXzbg8AumrGvIHHpg8q9frfdwKiY+VhAIGOsaaXWxDcmJyXQ2ME3x9FA1pLtA5Trp8oXmOWOPUUYsq2pmGK2Fk4X+SZo5VJbnJ4Rt1pQx9zsEAp+e8v6MhqSERpKs3ZNV+KVQvN9ORJ15TRIXndaZp0K7L+kmWK1YTzMLO5wN/aNyec6TfxPv2t88m6rU29XzClkCaUqVcSZMeu9XKFr016q5eP452i74a7y67TelarsROR1rcEpFFcS2LOwLchQqyweF3DWFuA7CFnO5oynvQQVXq1xZDl4mhGulFr5DdJVyk75Z+JqR8huNuzJZQ3YjqNs1vJokkfByB9rT3sju2h2DDexg+K4t7uYfPZSGS1kCtVkETd9QL3OUZbU43TEqWa91Uh890wKFZv+bApnjXwuhUms/FKzE5QtzjFbnmNiXitzlGW1OkcknI7IgdTiHKe1OSbmdHSOspyOzREJp+O2oywTRDGzEwvImN8VC1jL8soFXML1KtOSwzqmV6dxMc9r0kjL8to0KuF4HfaqUuxKGbnrcQaJB+TrmDGjdDfg9zdwD+eYG/1ehI7aFT9OCKHYKVSKFChhHWc0Pnoq64mtsS42NUSJkqKs0C1gcrbuAm7Jmukkvxw0W9bGr2xgqNhDE8SqI00QRyxkVABttfK/tohsb4mBOHoIWebMA/pYsDMdD4elwdTaCjrttOjrWHRm2FhcWxdDMxN9D/uYqVlIuX+6yeZmrWYRDuIlmZze6LCtaC8irEJjwMtKD8e4Ogb0iuMhvoTOTtWq0mf5x9vmn0yPf7LW3aDy/eT0Rf7xWqCgniMu8E9mj3+yhlMwG0+osCOweoHSE2eHIfBqvdl0cL/SS/u33EJe799yK4m3f8ttJJn9WwWZ3b9VkLn9WwW51OxNsbmVUT+knnf2YNBX96WYrinP+v8Unu8ND0Lq6ANzFrhZeevMUr23Hyqd2e3tD4YXodeRbL4AHkxm0c50MJmRywjtZm866FHlYD+cDnbWB2cPpkwt26078yrEjvUE0Jz1TWQO2DSzWDWY9HYQ6oW6HP7xAMSImbwmquCOiZdhsC6LKwNMc8BUcpw3MA4S4mzWN1272JtECPO8CvpnzouapBtnvKbP2U26ngHRTXLicxPNEzAHisFuAC6l+DfjeU93C5+cf3HNcYcATH8CM8ksTkJVQaaNqmm8fGPg18PezEzw3+gmRzqKVPG2piFxvfCKzUDwGekNqekgac5F85YImYhvutxoleqkK/n1lpSvlurGGB2pd2rSpTU8aIloHWVHlCEdK9n0uLjWpCc4gUp6RT5vvPkriza9iuOMpFcHNn9Na9MEMq4VxSS9LtgyEdTri8GWpDewOIK/sVg0obSbAusmPaRcMTHSm52H8tBGqy79e5hMCunD2d9kKR9RaptD6zesV/MyjkfWNlqygT8qQNZIH83xQNp/zDreLOljyzZ9XNm2+/i2zT/hHps+sWnTJ8mRh/TJ1fWC5J/SaJr0qa22Sb+xaevf0jxVl3m6tYr5IL2NVPp5e6tdlfwdpJK/M19obZLelS9sSv5ppNLvuzctn6dv0iHSZxSqW7I+zyQVumeRCt2z86fKMo7nFE+ao9xzi+tGEZ5XbJp8vthpCV2BrV7yRYybpKV1y98nnCb9WSe9jXSD9HbSMs1KexVS4X+ybMdDaxvSn2q5cVLkBpfUeCD1Co4EaeNk82l3kzZPNu8WPvecbD79FtLWyeYtd5AG1ZM1qdcmair0HXY1WZdNcV9It0ilH6drp2qCP1OvGsfr3nrnVJv0m9gApF/PJw1Iv3mTCSe9rxm0Bd8lFfwLWqdaku+1mmVJt1udgqz7ToCLS9pv236E7bo5bOyyTLJ+ZzeJbZHubdrywaYd9ws3Txl5ObfZardIh6S3ke4HAZZXqRGp5Mekt5NOSO8gfRHpnaRT0rtII9Knkc5IZZ4OSJ9Oej4IsNlKXSAVfveTCr+LpMLvAVLh9+9Ihd+3kAq/byUVft9GKvy+nVT4vVgHwW3C8Dt0cdP08CUCCMvvFEB4vlQAYfpdAgjXlwkgbL9bAOH7cgGE8fcIIJxfAWC6+r0CCOdXCiCcv08A4fwqAYTz9wsgnF8tgHD+AQGE82sEEM4/KIBwfi2A6fMPCSCcXyeAcP5hAYTzjwggnH9UAOH8egGE848JIJzfIIBw/nEBhPMbAW4Xzj8hgHB+kwDC+ScFEM5vFkA4/5QAwvktAgjnnxZAOL9VAOH8MwII57cB3CGcf1YA4fx2AYTzzwkgnN8hgHD+eQGE8zsFEM6/IIBwfpcAwvkXBRDO7wa4Uzj/kgDC+T0CCOdfFkA4v1cA4fwrAgjn9wkgnH9VAOH8fgGE868JIJw/AHCXcP51AYTzBwUQzr8hgHD+kADC+TcFEM4fFkA4/5YAwvkjAgjn3xZAOH8U4GnC+XcEEM4fE0A4/64AwvnjAgjn3xNAOH9CAOH8+wII508KIJz/QADh/CmAu4XzHwognD8tgHD+IwGE82cEEM5/LIBw/qwAwvlPBBDOnxNAOP+pAML5zwCMifpzAYTz5wUQzn8hgHD+ggDC+S8FEM5fFEA4/5UAwvlLAgjnvxZAOH9ZHw704FrN2K7VHUrHLpYnPmWtN5mIk6O93el4X9yy2Zh/vcJwvK203r44CyOV0TbCpLwMF3Z7kh+JR4b/1e/NeoZ2WWU2B/1wrDwvpolu70yHQrQ+GHKyLYo3me+/kKCC0isz6RR+XrTX648vRIDe3uDsHmf0Pfw+PMl+OOsNhkDZkLFE4mTgUZ7nDB8SOgJemoX7JtZoi5bPD7Y5e+4IvGKuAGyz7lpXeUf+/za5g8c07TG2VbW6PRWeI1omd8R0RnnXmQW4QukdmQj1AuWNxcOciQOeOT+IBtt4W1plSdzNzXGVi/DEI7Wrl+A9inbH0321p5YHZjVeqtWKgdp7uM8j6Tqo1d4IJIeKihQJ5gqLweXDI2XZltWV5NOXFFepIxazNz4Y9ovSv1pvBIL+XDcdczqhMt1ci6QKwNFdM7eG0i3py7U6NpGRrpsirLU6Hu6PXzgo0kKT6DFzvKxPnDdC8jKtriLSe3Yw4gQjLW8N+jMGpq5ewJZDmUfQ1+xISziw6vMZda04pzXWqoTwKS93LryoRkrvgq0ORnElVlcwpcHZkN5lOD2Qsy7tAyormS1LmOMqgBzMB3acXqbHhXa7d5aGtYB1mTXkONYcE3C2jV+1s9cTNz+cRlDoJGcaqpRkyF4kcON8OCXuGbZ7rK96laczQxMMNcGybVad25ohvY/YaHTu7PDiZC9ih9FL/eTGJWJ/0cvbHPvOvehgLIr5Rq2vsGw26QAk9Hhll8Eks/MqrVd3e8PhNnGwdQoiNdJH9hDEKY2dK4zvh8trtV4jB/RVTx+dJRFUTqVTd2rLqWMOH/aT+T0+HJ+VaLshaY+L8dgbu7tROMOyqFV9Yn8Qx9ySelfuk4O/bf11Wl9VTnVIedltAnb9SPU5BVoD4o6Mmb2YDo84R3Ar4bNQKZr3m6MxyhTDmUG02RvCCi0ruPlW3gqqbg9EWLwLRg6RHSk7A5ARIOl6VnL5aIeGyS1jGcbTsJq64MIQ7A6m0SyZDJrN0YV0fmlDVld5yzvj/f0enS5YAzo/EW8rKzQMk17vMn9GTGj/Uua9/nlngpYuVbflUiI9GOYpx35mCMucMBdD78QJuT/v7k8KKBqzZNC13pRlcXOb7paNKxgpk5qSqYezC2PI3XiYnH3m+wECHPyTjOpSVZCdiBsB5kTLUkfqPq2Di/vb46FjH5kM7bJBWThmEgkDj2iB2MaAvofrTA32laWL2SKKZpPzPNYeDhNweF2cbJmrjXAkFp0Zcm2N05z1QRSus+YbsosyjosjExPQ7HyD3d3GaHixxayf7w0NdabEuf+8mN79g5mMzhhcy9db5EvGKayXj1CXVrgLjZgyzEhciOgHGF9aHx9MKkx/rAm6F9d5hxYaZrXy4MVmwioPWm4sH51lev8vFEE4e3CiAKmUGZLGwIXEfBBLb3V3MAxP2XFFphAWeBhujOUezgKhG2HZZF3cWkV4vDobux+54YCNdnpRFrQ9Dg62JeSzDZkg1IuxkqjSZDxCLW1Lywej3aFcMcnVQZrlyiDqxEUhIq5WbbeLcf1aL0Kx7JJldmKs5aonB9vDQbQHM2lYutset8PefnXePWnEO9xIpoIfJlraYNQiA8FMhj2XNWHV2A0u0FOkxxGLiOIsLHRhUYouz3fztv8nzih+bxikViSuYlnbRwmYR+O2XCM9YQs2boux76hzZorhOxAfJzv3X3Ikif+yFE2mYa8PxXK0N77AXON5FUJmsC+6B/lKWxwbY/Yqo11xH017m0r3D6xaUtlr4oSMpaAUnh/sxFedccBVTuTmOlYXiZGYqJFncMRgJVZHHs2Uiq3Yl0H3XeVicatrvHB9qBH2FMlw2EBwnf1iNAy90mc9BrsDDDCSSy3L86NsKw3mkB256Sx5WxioleTeTBF2j2P0WuCkxJNcHKnPEChmHDFl1mUT4pxDxPTcOtc7Jhqx7DpQYL8/i9WQzQ95xiTSG1pJRi13VYS97f2S3AC4xw36EgZ2DElNoi2VUjd+enMpeR5BY3sSKfO87QRtuHySqZyjirFA1Xv42GYODZXK1fObBPtMPFNxCeHeDulgy0QYPUnlLaIhyLjbCHObl/Vx3OXcA2eWU0wPFPFTLAhU0NowkU6iUk3Ydpu3dzfvAOHZmgGePuodcVyIDnZ3CXSj9gPxRU3X0KwdHLGZ7AYz9W0qE50/K7bCeIgsP1nOVCLZn0MTyDUOZuIyiMNIOWaK1WBrlo2D/DIU6+PpDnorbyywPeci0CtsOvntaDw8mIVu68VQ7aQH9Rmtjrgeb264JpVXWe/Wfd9dIOSrW/kzAYCuGhdRrt0xxzMZx13Ybhxb5WGHE83NjA72A3SedYgU7pXTc45AkcUGogX4GWcPsGxTl8OLoV8s48pEDB53+ner1Q2sOetvHGka0QmreOvINLFLEFzAEjDf5o3nisLGLHhE1l/AOuFuBAK2pfMSG7eyKI9USAiktxqnBOO515IZf33dvjbJEnZstATKuecFS1ghLL7hl9qnbFvWysYbsNuc4q1NCFgjBilrTu8jwbgqEWsRqz15T5bJFrnrHswecs5UgTAiK2vDELgl726VfVSxXKmWuo31ri0mcs/9oX2wyghR0zOuRCp6+elO0gv8XSYxPzrLLHLAxf6mst6A++xpKzbVGWvyq3jR1D2YDuih7g+iybB30Yjxmvg2Jmuklv43hwecyVxrE5NhJqmG38OBiArn7ECbpqwVDnucFfZshezEIG2FfY7E6BIgemSWGhC3vBQOQ44WCGG2djCcDaT1cLo+CIf9TbsULNAOqsDcIww6fQ/G5RcDFJ+v1pOTeko+3B2/WFoSz5nTjLWeQNnYgOYS07qUcPNH/Yn40Yw5dKDsWbSJ5zOJV3qbqy/b7D+gQUllAFR62JRadD1FbhWPapBYWpnmAEjKuV+rlEpcXXIfi4UzgkuoO0bZS/b4iYKtWhvYztFMBFK4/DN2dq5yCTVrjqVBZGnGrxYaW9ZQoD15Nw/aeTK18fnQbcfjYf+UWV3cZkR/PRFrL0VbHhComF6sEB+hSjQ+wKaZyerLZNl88ZAnwy4bDscc6EReWHx6dw5xGSXVdudNDSlzwikHsnMdcy7Mbg36Z0O0jtEjFx4Hjriu3x9wBJQBZGcDpG7W259UovHddxGRZigY2CmEwplBCXHYz0ugIbODvxJnslLAJBuj45V8ednPJKmtMndthUa+JdOnsQjnLEkmX22WJWYv197orw+kzdtU98LbC1gHFijAY0AZ2fmcoBY6qD6pedPO8W6Ejnhfio2lORTZeMSdk71eFKol5RnAIu+aYJ7iC9YXqkwqawmeNpP+HVHGobGou0d2OnOSWtTTB1HTOrji66OL79Q4g3jaE+kztB/0hvMlN7P7b1q9OI10cgBS/6gzCr9hDStqs6xudaBtLxxEwXh35nQ/kCIafZcm4DIedSZ91sF15BfBrQ+Gw5jmx8nbLTPG/KSOBGozPvVFTSTdZEsL3f+N2KwD/5xmlJex6V/WnGVSRfMN4kuaKPohI/8hb/xCvNfgAClmaaehsRDGbAmnP0Uhz9fG49FwQGRqeDFu4fOY5D1OihIqs2Nidu4jmuPQqaGZgjfHBaLuc/TPxGjnCCQFb0sKjA8/L/jZuEB8gTn67TE61R/cEtsNyn9VRwbZBykkrJH6hFtWwVnCuOT3UyXSYcF9MoWznRLsH6Sw0iPBfSrlMzZ7KHbELY/+TX3ZHhYSUnr5YSMUCM0GmInSBMijJIvfxBrNLm7KjtWY9hEE9WVPfy1ea7Mnzhf7fVo9ADeDXdSJfweUVEifLL8lXbAJfysi32bRifFLydr7NbG+yNAvCuqr9UF8fIR7upG3EOXElHYepPjL8QmVaRLl/mycN8v8J+Je2V6cMqr5OWaseBuD+tOYLky22zWuJ2wstrhY6V/nXGRSS+FupD7q6VewPafQTGWEeujv9dwAZcBv0epF86w1ArIUEjIJErycPr8VWyJnUQ5atsAM4PsXm87jA5wd7ZOL1Ec8/UpOZwTL89OwcLDNYok38YvJoTaQkzEXUPqf9QKKw/IHtf4XY2KNT/pmrcZxxnZxEleoyo6lcuo3TWTZ+b/XxrAlrmB8e2envcme2F925VV13SGUJTyZYOOHJqvq+sM4S3pqhhrluadIP49+vHrEZdC2Qjsp2UToJaKnnqi+4RKkJe4Ivshmoq5Tj4xhW7Qp2VQI8Qb1qEWMJdtiS45jpHRsnrPFz5cZqrPNEKV/Qgzbom827GTRX6PVE+OMLbtPSE3kacSBbn9/PKrKKfGAIzgr++0Lpez/988Oeni1c4oXoysJSWmAgoXSZXaqNNV3pKns9iVTkyZ5SZoE2yHXE6C/M40O8CPQnnvD6Ziil6aL6u41kH2JNOHO+9JCt9xqys3IpaVEEY3boGZcj6eKi/JS6Dw3Lylcsjvdz8U5GyvGJmY+5DrZUCYq/nEoeozHxq5vUh/m7m6Eyp9t4r8zn4aRVn8Yo6vMD/k/wuW9v8oqyzHxL9nkTO9QJ3FqXumpL3qyHB18rKo5ecYNLnPzOhuf5VjSb4wa7XU8LaYkUt+ifz/BE1RNF3xSJzF/9ZIMt6Ci7sLrpRn1GaOGZtyCirCb+qWm6cKgP5g3+sMG17b3F4J6lvoRRhSVe/1Wu9qmjDG9JXUQXnKglcNnECg7Z6zJsoUs+pnz27sVB9qCZ1EzCYCtJhlb+OwIS4H3vyapRT2XaEJytcf1i8vYwuf1kStMEcs44jrlWCprCfL7uJ/07QpJLaokYCVq2NADZVctICzRuuCMu/QKT/16atNt2LEwrKsvQdqqG2h/+kTJ5dw8b0nKkXEJ3A3bqropnbckdYsyBkk9Qj00lbUE91gMQq4eqR6WZGxhy+bNr1IerR4+z9niYBc/Ye4+PHaeteX32goWJRSPSyMszTeFxlFhG9P6SQ62Jd35xBRd8OO2QyhLuCvtboTj/XCGU/wFrW9PIyzNWdtyjBSqOxZRlm5Pbm9QQ8RyPKmGu1i9+awzxT+g0wQtmehDFK+ZUxTGs9l4/zJcfvAwzeUYvXZONC8ZyOY2QdhRUGTuhw7TtMfs4pTOSV6nZcPGc0UnI2w4o2b6jab9sJzQ8tuHQmAv8bbH4i8wvrLxDcD9hMPZ3iboNzm0DDFB/qRDmjEl2Dc7LIuL042gi8q81SFpygotw/4Zh7NNJei3ObQ0lSB/1iFNUwn27Q4bmPW16GhxUn7O22MHspt5Micz9TB18+XwVjSakfzMQYyMKihMtMvYwheavIwLA04fzqXzlmRoUM1eX7YCSPbTeUtCg6CKrASmxyipWlf3G+TJA/srkbK6aPK2tKQ+pU22nHTbMaSBP7RFmGjjh8wLPm0LONfjiZ1Uf2Sz1pkg/xmbb7JbsY0Hgwek1kn1Nwto036FSEREl75ii9Idt0Ul9e9d0d5g2HdVN6ZjeQn9VVviumWWEOx/WMBaIQD9txZt2Bj+QTjcZXL+zuLj/Zgqqqq+jxMPyBaO5DQK75Wlv59F/36LNr9jqavfsjnXZ7dStPQRj8t0Bh2qr2TUb8seHGc+ulDD9AIZ4XwwU031J1xHBSNke6O3jy71pqJgn/MQIHfvImdW419/ryikvQIJJKaYFLxyXlCgnbNzO4fp+z49Z2WCAh/W6kdTuDa1uM95fQpVml/t/JgOe8lvB06rN6SomrgA4fR8GJjwKZ3+Zfx/E8qi0NC31HtTKPk5zpr6lXlfiTDJPc7HNOc5lCW+BmlTpNrq11JNtYkRjQ9klT+Qpqz1yPC/sUm/rsnEJakRfFCiJMRfTZ5dlqUd9iS6/6FUA4F5WRMgZLO8eY0jRuYP5l2tzFlH6h88/aV5kVkKZsiEudS/eup/aBtSFVcZMdOfcHmJo+Hj2Ljr17T+83hu5IQOD/WPmiBlgvM5NYP5r3NMlZGawzWHPIoSvKnN1ss+/N/mWOpb3D/NcUWkjsUyXY0o0P9rXiaOVhKr/Bet/rfmaHzoewFH1X+x2A4r79R+Vf13ZtgcEi9zr/52TRDqQYs3UTOmVP29Vp/2Rojzodv+t2mKdsBz4bBzrsp2dSDh6S946ju9IT4nInh+EF4wtK/IqNd5pnPOlcRB1er1sftbZOgoXJTsKz+GR9kPx02EYRulUa/21DtET/cnht3LM+rnvQsmgCmvCjgB4z+HeKbqB1Loov2Z6rJ6jUOW7FC5A59Nw/hXrK/z1A+68mJvh3NIHoYRc65e6qnXupLKaHIwSy4hPuOpH3cFsjMTckd33ugw5fF5DI+RhNd66qcwIFsGH2Cuz8kEM7yfdrS1cNbry4A+66mXOZx/XmaCKdff7TBNdnqs/cVaODqwBvjznv4ez6xWa3whtpJEMTz1HovGvhzsjxZKftmWUMHKRsSOqt5rkZZ8S3YOg/4VgmzoFGc1f3Swvy7yx+Hli576n1aPKSjR7bjgS576DkIYGFAm+4gB7M73nJ75JeoIiWLUx+c5W1yQtbUG0R9JP8RUnLgEaYmLoYnUxaLSsLeAV16KteR+hOJVUJ+pediCJtywiLFk1f0B46kOSCC5kcTlbHFtJtqFcTmHEYHgIem8JWlsIwILv91+rHr0YZwlPY1kIAVpJwTn5DGXYi35GU6OfSKs5sfOtKeeqp58CGUJX2AnIeDECi4idKWfsoiydOgIUQyzCJHsfs9QT13EWLJttA6DLlHFiEiW/sZU3lLs2CdLIgPqTVrdMs/a8v6uGJEapyRiB2YNlVbRJUhLjC6atsfrrIFWcniNs5bgvB1LgVm3chHXh/qChJswJp/X+hWamTOyKVJA2at0ZHa/+e/M7lU/gcUSjzrYH49ne0wNi/omR8f5OeLWZ1u9VdsW2zI5EZfEAsDwFxwhC8U67ZjAO3Oqnq/eDdsER+9h8kvcwdxP8FJ8m2k4Kg3Eosmjh/c4Lok5+YomnNlzV5Jf1eq3Yptsw3eCrpoV2HQWOac+okfUJcxC1hj/T2v12yY4Nzz0gOLjWn00LpBNbgbjmIBe/k5cNp/diswiIxGCT2g8gEso8vNnCp/S6ncNAcJhLpzuU39s5qLHfjgluC/z6O4fxG/Ps/GZBRD7/3nr5hXhSZPMm6zHSfUXcwZyPSAcHoTBF/S58CLxl7NnmdkXZ7i9OD/Ga/HFhDb3psTimO+/1tJTsegc/vcK4e54indDeEcGeJ/+jy6MXGXLivBI9X/SM5ZbwjUy8+ornvrPLAgd3WsQZEZP6Si75Bi7SOwKmI58FzteNJu7my/3wv3tsG8YvCxDVJZI1F4t7A/sy9JPZNjREArWWVaZ7jlJYgf7IS8a7E+GnAriF0fN3igcynDf4O3N9k3k8R8z6p2eBG9a2Bn11Yz6Ba+3wyBN6KXa2ybUuqbe5Z0XEjCm0c9n1LsTTBFbc7DPeMRRm8BZ/VJSJuefwsWA7YmSN3vqA0mJ4CiM1Bcy+n1pLJ7ue7X61QTVCjl+IsFGBD+VUe9PSqQr5iIhUl/MqF9L8G3WdlTHQNDxLyTYYGc8gfLLGf1XHs7FqN+LZVf69k5P/Y5DxzupoN/jqY/h7hMLFsKAieXk/bcZ9bvsxalLMyb04x5LwuaO4/0yT/0eexhuOdvtrlwB/H1G/bFnF57lMTJS6aPpbNY7otQtG/6bW5d/yqg/Y1UN1p5O1tSfe/3xDpFIAo5p3v+QUX8Bb0LijC99iRtxUNdf8jbRprn342V6mOgJWfqs9+lzrzqWX5lyf84ZX0aSqQk2bzuiVuV5DleiqpnvBHJJyi3+hnwYQ/DdGOnV7IcAMp26g7KOTLLdBJszn1pbb7S27K3tkskX8sVTDrFsEOa5wApOBC5Lygnylhgxx9QB2zOHIY3Oix7PEemn/L2puQqzhcgVI8uCC1JVLDY3iBq2ms0v2XZLznAueHhcqotmcMCQe1SMizE3gF7qvYQIjqdZp+kAgXu9p/VioU/JRVhhcFjW+euNTSepJSd8cx5vhMehUp8imGTEm7Y3nfTnfIpGlDQRfkvxJk9lNhcw6uZaJQgq5sepqthoyTePWvlSpROQ1/Ihr42WfLVOvs5gqbw5slIv+eY1VyYwD3+6W/E3QLJBmyVN1cpZRDNfks9/xA/q5ANvKax9HrK8iIyfhqwsopO3I6ublaBSqIpwHZFXR+YbY2TWtrjflh+MHk2+THIs+XiZNGU60T085uOLNKb1S4hOzIlsPy7P64pLyC7P7spCo1UCIQ0mU3iVQ7qaCf5qhzctJthrHNY2kKCvNZ+/qLe78oNpv9Wu+NLedXYqi42OPLZJrdL1tUq9G8/bDbX86SRzo5QkE3mTFCW5h8QiJfY8MfZz4X1LSnjTJD7lSHAio2DRKmx/IsZCDeo+5bUly3kDy8fpIm245+28jXYelM6HSBob9GE3fzaE1i1WkU0Y8hTbd1zC1tH4EMxZRiAxO17e7CFN1wBkKVbvgtUl5T6FczYTVyA9s6QVjmlm75NnKuZtqIq/OOiYpTeseWPvTRpLlfsUzhsTpHqfF7cU02FnRz2ze+qZNPxuKDjvYBPr8YJkZkRqOAGx273fU9nz4xmhEzIf8FRu/yAa7JjcBz21ZFm3E3JPzwSuhqOzxBaxWZZgM+bg4XfN8CkwrPPSWsISAzxmSyxJ5yI6NWvDrRZB6nE5Ob+U5uJbebkR/bWGDlb9cJd6CNMD4/3tQbjufo5Tt0PN7KSr15OKH2Z46YdxueLl6VR2bohU2hBpeTnbqpSwld3AfG+ySzdYzUq97Lcq7a68nuwG8gEEW5BZaGF+u87Y4yGgIbJnfIyFWSAuyahX7OKO7Lg4fiNQveFmXCPDPja/nlxTWS6759UrUjdnlv3jrF565MuTqTzMwM00vCL1CU+tLDRv8OxJcmS1MMosHrDNvEbbd6c2hxAtVG5Lm/LG2vyM3EwhiY5fODNdmK160e/Ks2MQi7Wbh/qGnKAGo7Muu6b1wLnA8gbfYT/paa+SQi8ygcdM+vQpT8nZgKn6OsRtoWQ1GrVmo253RUV/8X3kk4DSX23dCl8OFGyI9htA7tM+yjz/JtUy7K5fQizsG0Mv38ZYl/0SEgKJfMoo6Nov3koxO28HUy4tddJ49yRvMdakMu57TKrd6tSL+bYPqM0XJ90rOc9WmxuChWemFt7kvITkGJSLKtWtqGW2TE6WgzBEEmOyU7OcL7rfAKjAFx/CfkJ1vr7ylTc3HRmD7AZ+lQ3UlDpvEihHV2WmnJeWboyIP+7zeCpnK0Tbwxs0AF2fIZF4YIBuiOl60knUZuJQbjTpOgMozDA+h/4MdgzPrOVOWMPTucg0zb25wVGK5rTtVTo6sMyl4S5ItIXtbyHEqa5on2n6QbFVMV9lUMWmLJB2HyvwioFs2JmT+c18QpMtt2uiIrmTgZnPJeON3SOo5eaZdtkgVzbEhV4NDPpIsFUxDtfaqYY8iAQ62uoEgjlWyJvPbhzHnZcPaxmlO1ERr5boh58K2WHI7NvIuLCEhMSFWHUSYwnzxBTkg18P+uKLhZk4JHNiTZloqNfGUlQ5+wpj5WWHgEgZ3LYPhhghswB/i8kbcCDiUC8zHT8FkteoYf2Ag/KUXNZyGlk/2FsZApraf4cqX6a2148PXr0hxwD1NVZ5ESVjRm3/ns2gP74w4jwo75Y4k2AvcyqHRET0NhztXJxjl2QATMR05qJBObUs7yenkelbY7dKOdKxUpgPT2WNH2d0WHXq84xOnG28gG7VfssjI3xsvZxZP3DK1YlpdMIlxnjGfbin0zD6nyn7eYqBsqWFIUNYNV+6UC3zwRi9WOxmBJtYs5+Mg0T5pxN4/jMeoYyDQF5uIBuMZuKp/I8spi2I1L94evEBesQa4WbJz5/3IXZmh0nMJZx9w8VbHsxbaIPmUolVTlALt0cIT1KQujzKYODb8+APDs0lsZ8cMTlWWSqIz0EMjXpL+3JWLhNeBEV+OenbpvNh28ZxQkEY+HvYDovjEXECmPSGedML2at6DmISOFM6AnOAS/jlDYnybpp3Q5wPFITpnOPakHLL580x6VEu3PFl5zTSezug1Cgve1cmP52ReyTKDZuW/PAkxtibvxU5sHPWNaEIjtCJr7GtVi8NNR6ZN8iOynVT6qJxzfZ3nWseKVer+iiKPe1ZAqdV2+rYzMxxPONmSo4v4jbFyKhPZ9QJs2BuMl/jqStg55pv0frMRkviHnMpgKEadabDyqgeXuAYAOqqRdbqnzx19SLKmB1W7xrTWHBuMGmPZYqZ32sTVOFift94uavqOqbQrjnR54y+PsnOZeSfPX3Doa7aWUj19cZDBJVY1M+Hia8ksb+bEqEK6LcE9ZvmMpBggtv6iMul3sHOfzbBHu+0pMSF3E6I3Tnln4mf4GOwTtXZwTlZ1gkIVKvGrOjThcbpLk4RsNcM7iDJsB+1i2U5lZLLnprrngmKyC4ZqZxGrA3WtfVvWIsynbav0DzvwPz4wLwYZcG9GqOTPnpZk9f7Nh/25Q6z0ofUS1CFiwkys0sQ7ZRx77I++4cNtHpHHfdoutMxkDcbzFhsKszizzzYguwFuetiFXN75jIMaCkURm36SvlyQl/Zx5aVe5H8lmllF01gndO41cl0fB75k8j+Ee5kzg4QANnKyK8xJaklOcrKuQtML3MQj0WOTqxm4EJUgsINhnBxxFXmD11LblS9lQMzEh0PUfbnuCOZxYazlx1N7jKjWVqk3HKzdHg64jlb2aQ7Ep9nAXd6o/O9SELgoXt0hOmecAUydN1GiD2TL4Ui8CbeZyttWGnI1uTjwsLKxu2erLQtN0yr452eGc+28lLogM0HbbFfMugf5lgccumqtBydOUxOjMZQPzikheZ6G3p3M5MYKa/NgiLM+IjWPCptfhwM5FrQe+NZNBnPXNaLOGQ4ONa6pLJdt9zY5hzV12PAilqVr8RGYTxyZVlXrYCJnHBmmlX68vqabRYjAnU/kJ0YhdtmIwx2CIaK809zrvVIvS6D85bYnsRPQN/nkV7V8jkHm2CxbsvLOVyvJrW3OYLHv7RZHrPfmMZ+JKP0KLyQZLxL+liSPmaA4tGAYSyDqGwpK6N6eOHQEBhUP+nc6zM46fF5biZmW+50hOtyZY4mFOE6l4skZ1rRh5uNuxcs8KF3Ucwnhc6anwypt2RUTpS7aCXUy0SL4ucE1i2SeTtbR7RcPtMmH8Q1DtXGevZxJL5u/cW5b5ouqYx8zK3CwdCsWJ6gogU5pdVqlbbNeItVsZ3mNpY+TAwXBiavZs4y9/JKEcPpfvhFJhPIJBKIkt9KoJ7RwszoYS+axcJhuas3sPiXogPYcBPz1gzmOMU+i3iidAn/zPaivMQiW+EMIF8i8SJDnyhpMiv2Z09I5KVNS48u09Eg6ZFj6joRqbdn9GInje0gBDa3QlxBxNzWZS4tS+R1iUrJfBHizOhlyjig299vEqFgWTG2TDiGEZvXtnlvUxzY+TlevEpx0rhEJuxVkW1Al7l4nW2HvRlLip76EqgwMQdVIDyc5HSHjYNGpUPezREt02emEyOYMKWnnvMdiKNxOaVegCqKfbcuYU6MtjHur0Tr9ulnqF6VUcuJ0HJ5ujLepqHzjFMt69V+yIYS1i3PI+gsamwscKRendFrdopjqxup12TkizmLNjJSr83oYzQ1pbdr6rhZs5imbBUWTTixgG9exk5S/T5xFB1JzL4kM4vpu3JCbi40RIwzWr5HlKzSOzPq6vML6/EufEPUc2tKYIG5u1a+f7WOmxaw2giRVtelTEdsgrgGwjecscDOZLwpo26QbJDM4psz6sZkUfLmUBKwUDftcnEYNUZtiF1drR6yl6z/uzPq5oAZ5sTem+zdcxCaGHHknEOxGkwATuEENUVpBOG6lIzI09tDFtBEAJw6ISC2sVZo5xEiKxPW25DeuZjwyiBq9lgpESQ9A98K93sELkdnbWiXJcETAm+ymRmQLOqyytJQQXy3nAsLL3PsZj1bCAzz2Q/AtqFmLPsTU3k5AtWRL4TghNXmcWVUcN4FKsjKQUTjUgEI0f76nNl7gtl4grMFi2T3dCPUC4qDJFNWmI57/R14EnBfKN5ZnLb3Y1NmNDVVH8DeTWLG6kMcVCexvDbTaBuDVx9E2WowZijKe7hQiT6nm/IQWwOYe0S3qOpVns4yFU7rI/WejM6Z5VUv0XpJoEIvQkOsEX2YBKh7Q6ery72dHRpQWbUSSSgkSMKDq3G+LR15jjoS54tj+j2y6OepNfP7ZjqVU0cN6MSJc57Jrif++nHbcLN3cchEgjgRLQixuQXJ6CtSQ0vk9X0ZdeUunDZdWGFZXWW4V5ACpB4jebFxMIsG/dAf7QyxMxxDxTKztFcbwiaTih29T10ziIocndHiIQZ92Bn1xwEX/efURzL6OoNqhSnU9dvxqkfqwxl9wzTcsQobhC86CNF4F8VaVjeadgr4VTt7gfnp9jodtkO/yZT5nBIJwMm8vdxTD5mMiTddHO3kjdgQUlM3J78n5BohNI6hfNTpoXhBs4vy7qRiLweqdIkRPLw02N0t7h3I8WotNWsYZG339iWJlZmPEtQpRlCw98bNMFORtbBb75zNVSJjSlkoWljaEe5R3vyMgzlt7zF7gqKJ5W1O+zL9yEJ5gPGd7uxdpAm9MrkUt3o54nh8RyaXx6/J+GJx4ZKLIcQjhKW1YCLijNHNQ6Q+yu4t2YK0J2TZbYGapoX6Iofc5HLYpVb8YMeslPLcB9tLXRLzBylU/FeLdEJaEiH1OLECl+2BSk/jQsPn41iFdMDBIAkmcn/i5+swU+vVRr5Nqrmetxe8Xr5aMX+LzUbYAeS7HC0/cH/fKVcz9wNL6Xuq5biRVmgf4swbW/r6jSVtWK65NNelmGt+ZEPDbAIPcm20prxdVszl8CGJP/YwSnjSxtew+BeoXHj/ZIrpQfYt6rOYv3132aP+TNwN9/LGYt5N6NVPqiRBJnWlPDFI7ircH8mxWfmTGfLnEuyflbDhWHN/4v5iV6kiKwmU9e/p5Ksy07l6g7scyZFZ4vZG/gSYmbLlJNPlsiMmWdloyR/ha5kC8qvpfJrwiP3O9ZqZ4qO0QnLMTn5lXXpznFp1+1dSTtDfbo3b42610ThlrqOumA8dOQuTTDIPn8HNnaPz07MHEj4xAapE7mrx7Jq4DStlo/nQzGUTGrY/g4/U5zLztwAiR7jopkRCc7oPwgjWJ6lOu4vS9in2vrhqwB0VSkbtgdgdPbIWh6164WozoRcmm9IOwdbkgvxLh/piCXxKxfvZhz+SCvPzKZqFkZkXZbIQcn9bbHCNw7yai0sTAbPheo5Oi689PPOmYv58IrNhtCMrXOQqWGhy5oMzJktuKTB/htDllk0DLrPCgjfMJ3dW7dUTF71YVhw8N+Vsm1pktSWP+9QL3JdYVKHTbluJ5jpIrtOy+Rb3i1Uf8OF1G6y7Q27pzN0SmbvacvUI8Bz3USirEOXYhLXkGgHRM38MK4gzt5Fpx5nbyXTizB1kNuOMfE93K87IN3VPS8ZED8+sN7inEOhe+TJWwXzb/JvkT1jZDjy/xrXHfLa/2XSz6/4y4n1Mtf2LjFyN+sVTBCKBPfkAkaPI1Px6p9L25SVRLoZTtEsxTpZPZm650XQtrxC9RDeDwPZpNaY4wkUdsU+LXQv8fKtYtsyOpi8+5Y9Q2iEeD5qVerIgJ2xsFOgKxkJyJUkzXzd/5esqWXvL7Op2y/elZ8DXcDwvNCz+Whkd6XVy22NR18sgSG+Q1PbrRtNbOeOJ7N1EE0IO+BBhS3qzpI7VQ/NNudaJ1/xhC/dHjyjm4xn5Bjepj8Twd2r1ZA0fVZKPzMcm9dElrnUd/JhSRd5INYyRemxp/n2wx/m1ZjkfVALgx6/7Ju7whPXKRqclbT5xw0elzJ8veFI8hidLc8gP4FMqNUmeWqkHPlJtWvpGN75bJHXTdiu7sEz0bTXfitjtWFHhf6dsiXQkHvHTWuaP/t1NEjf3dGBp0dR7RoAWmqafyX7B+tuL2meZP+OQZJ9NI9Lsc+WPB5E+r83uaZcDmWjILgJYKOTlLw8CFVnVZtWXGbFWvOTkvFJfF0HzObQLv3VRAVKEccP2t2KlDuhkniC8NH6q2pD+VWv51j0ds8I1+2gACI4102LDUJcqeUvcTKB7aoeewHq6H/WL8rsE84kP870cc/az1j7EiIqJ/RomNl3kg8e4mq9MimndFTyuronw1Mb4WQNOVocd4UxRtvmme+9KyNV+O07Nvx1HRpc448oOtUicqfobefNnwy7zyTlynlymyzNoVY1t49wS6rmd8TB7JBlk0m7wZTF0ufJt/LtUFk7L5Tv4d6V8J/+ulu/i3yPlWFrWElE5mtizY7gZiFkAeFxoTpQFewWiR3Llgo5dZZ7EXN2Rf69BHjqk11blryVcVxLc9aU2/95QEi25MdGSm4DmyvkQJyU346OQPFSeJj3MqMHDE+l9RFBjFwL4BunVI7nIFT6Puod/Hl1al9qPyRcK0s3HugcKjzPC9fiWDOAJ7sHTE0WcSJ8kfx2X9Mk4HyRPCezfxH3qKft3MtAUklvQEZJbZTC3CeJ2GdwdiKnsSncWzN+EuKtQkpV5WoAdJL3bdOHpWyZ5RrNSbNsBPzNodFrmA0/Pshbg2U5DnlPNF4z9fG78F1+fl9jbvH1lAlSQ/ot5AGY3b8eLVwK2c4iZOI0u+jLK9UanbXltxBsBcDk2JZV1+Zu09nOYJ5FB+5rnVPGyr71Vxm25yrzqbM//VpQ2gGCkBIT3fwAqEgAAnZkPdNTVlcffbyaZhGAA+TcBCQZE/gmJVEAWMhPWmlHZtop6LF2ctNmKCCIinSBiieH/n0QX1qpoQWBSFLRURHRhJpNiXJRFRSZLBbOigIgTwKXLomBbdT/f9xvCrGfP2bP1OL4779537/f+fW+i43iM11zyu29Wv56Vv8zsLFhqapZ3CF03/ZbJw+6//sZbbps2IXTb3ROq/iFUda3pYroap5u5zBSarCzHGI/JcrKvv//nVfdNmh4xPif3EWNMO9PJJDzGOMaqNn1Mlif7lsrJk4qGXRS5RAv/2MXKdxHZ0XlQBz32YF8dvGl6ZNLM6ZXTim6ePu2hou9XTp9V+QvjM/+3msccAGxyrCoHDPnZE++fNWnmD6bcNyUSLrpryi9mTKt86JaZ9983IzLwaM3qm+EVWebRmjWDTLf5xtQUgX3gImNWeAZZGObWSZOrplXONGaw8/9RlrXEmDtQuDMbTPNT0Yc9i82bO7xTeoQjWWwfzuE/P8s2vgH8i/NWxGvEqmF3biw10ziOZ54Zm5/JcXzVFZFhBNkz34y9K5Pj8VWH/IXG8XoWmLE9MjleX3Vd8WDjZMExyzI5Wb65If9c42TDmbEvk5PtqzamyDg+z0Izqncmx+f75azkp8bJgWNGZHJyhCDhnpmxNJOTmz6TC2fU2kxOO9/cgnDEOO3gFDRlcvLSMciDc/hYJqe9b67F1l6cbzM5l/iqI8mAECwyOwszOflpBJfA6Tcok9PBV30i2t44+XBGXZfJ6agYjDJOBzizf5rJ6ZTW1hHOh1MzOZf6qq+Oga0TnPMLMzmdFZ1C41wKZ8vaTE4XccqVn0VmYGMmp2s6Pw6cUe9lcrql6yAHzocnMzndpS0hfxabPXmZHH/an1w4U/9HhRSks9AZTt++mZwe6Sx0gbN/cCanp2/urOQi43SFc/6aTM5lvmrL8cAZG8rk9BK2QtXoYtPvtkxOYVuNLja9KjM5vdMxyIOTNzWTc3m6DrLh7JmRySmSp3B8cMZVZ3L6pDOXA+cvCzI5fYUt4Z45uCqTc0X6jOK2/NlMTr903LrB+ePzmZwr09HpDqfry5mc/m5Ec9u1c5zvDBjPI5HkCG/X/QuOvnXeO+TuUftu6F7955PrvB19N2WZ7HU+cwmjRKMty+SYXGPynQ6POAy+AcaOCQaCWl9Nrnam1XqrRdWM0GvVYDTMMT7fqj3UCJTVdSpuimiqClalqSJk/z32ThLYPBWLykIFoFQrqUqfEqWUIDNDYVZAFToFSeGQ4+YRp8Zx5jlmvmMWOGahYxY5ZrFjljhmqWOWOWYDDu1xzNuO913H7EXCY57yOD4H/zTT25n2F8aoO/WXmbF/bwc/xOx8d/r31PdCT29zuenvoI9v2vHqP1xVjhlgnnJML9PB6TGPrcvMlWaIWYSYz3+bcSoi/xloLvc3ekTEU9eVwdgYbCNC/mFlnrricRcJY9ZhFFYb0XZchNnM1VMSWxWsKx7d4K1KTrJESWwIOptKvcakAhWRBwKcC9QV/yngrYiMD1QlA0GtdcXLg+mNV1G/MVAQfj9oj8RTXwalg8ujzCoNR/LLZEWrt7620RLxVAsrEhWRc5j7Mtga9ZZZHa3R9mVSqtVaESGzkkjjOAeGB7DUwlGQSqkL3fXF9SqWmh/whiOvWsKY3cGqZCKAbAvwzuPZJ8GC8JCgtyB8CuJOPqc4jD2XeA4TkmgM2iP1te/j5m42Pw1apQXhs+hZZVf8nm2JeOpWV6IqOTR9pBcMdNQV51ml7ooVETLrSoBDRwRMOixSKRV0WdFqKIGqZHaZ4uEpCP+GozQigXAJtgN8VAuGWEGE/I+C6GiAnRUuEfIfclkX9JgTlEBBeDWYKAFj7rFEODIUnTsV2ONEbgbV8jwwziv04wMhv1sC4cgytwQKwtsorOdh/EHB0hHl8yp0keCC8F1kOr/MmHQJVCU3WyLkfwNH20niIKI+ktyK2b8Evc3lf4Zzko8HqaTim0txvAY3t6y5/B+DeJRLLcwJeuRWBhENEpljaIsqj8fQsAPPW4jwOyqkJF8+4stO4LXKzkt8OYvaVXb1lsR+aYnm8h8j8Zmy9D3a6d9R2Jujb2ojjyxtZSMPiV8H6bM8Zcfl1NeGUFbE2lMbI7F/iEoLs7klAKD5EiVeq+2K/c2WiKdiSD4RwP5uQrOJWDdzZJ82PgTMOTw7itmCoE1cOOIozp6y+trfkfIvQBgOYO44RKI0HHkPdLExnN0OMbpB5rSaT3hxhvxrSA/lIkIV4AlH+uBJmgj5Pw96mssHWAIbI8FnsFNBWHLKALwAoPnkYrVdvSH/ekvUFW8EHxsKaWtU/b0VT/LLyMtWPDit2G5B9DRh1Mz6o6K/HlxnOLfKrsRnoSVKYvegg/yE/Ddx9gjhHIn9Zkn0g/MGX/ohtUXJ7keg0u6wGvO3qudtloa7jciNVrcMR3OaYBgG6BYvFdlGpIVZjXnd+d/CJEttBByXxWpk8GwglupbRg6aLFGVXIPhASrtCH1yFQHTOuzCxrVWoiQ2xj1izFgkztqVsHRB/1gK/0p8RKK5/FpCeS2FrxUdLnGVlbBWdERmpUOrWU9XX4BncVrkSnAGcTLoKYkNtAQoRmPUQWUlKnPK6LiF2MjH6Fq7elWjIprL33UlqpIf2yN1xSesDux8bgk45yAMA8ZHaBEtCF9K0apsiuxKYq+xhDFlXA2OtI9D0SkKYxylE1M7j4ML+nBkxEVCLKbvCML3AcaHgpcmra/th+qz1GwPu2IvzxLN5eqRo9rQbN5H3ZylBl9V3ZzlPFrVcawu0Vz+e9XpbjQd4MsOvLCzfJM9GI6stCsSNZbQZKuI4HBr9AZq9CiqR5CydJ1qvGmlSWXvu0WzxKNbah0mSIiIeOqM5pphGqSJNpYISacYsUPdq72N0LghfePAe46Kuh09zQEQ/ZSNlxg1M6iMqAZJDRtPUZXL7UrNrLQEc4d8PqPp9AwOrMHEGpTSGVXJDXBGjyHg6yFiO1qjT+PePXEishIiFa9KLrIryiZboiB8PTqyS5Hog5KdpbFUHuvPZD+F31tAmOKTq9JzvdGtpgFunzEi9DKhK9tz6aQJ0CSQH4imNGFfOGK1EW3HRRjHnKIDSmIrwM291hqdaIm64v4cTZRyax3h6H18NqD9O/daLMX1LCKeeg3xDQA5oI0jJOQc6exPPuy9diclkU8dr7QrLv7WEvW1DcQ8V2+dd9jIomr3o/hr6TgEjjN8joLzhKb5pxcJEGq66GJLExSBYRp/huNpojX6YgA3j1rC6uOSJ6D7WQN6MryDvqbSqmScPOwag+cvSi8vIzcUxqmvfRJ085XvLZZgAJG77Tq8n+Cfxl09Egaor45jeQIuH2ej1t2Ip17AmUOUdpPqfD8Seh01AeAztcYWOGfZeNKuHJllibriW1mPq1SL4R7kWC/M7tRGHmc3IZHnWnGJiYj3wtrgIMOhGIkvyMetMOKq3QctdFnRav5EtjV+SmIHg5762jdx/l2dawLqAb7EMXlYG9v40orWjazcSbGU7rEvsL3crgymSkvEU0EQntBGIUA+wr5WHhEu0cBnOJuvqPn/jiOb+DIXdPVq3Y2k/WkNqncRWwH3YwL7sDxT7u/gcwbRy9wNqos2PcZGrdrkfewaktKIZ31L0b4B8dENIf8iuyIx3BIVka+ox7dLsbIM8Tmk7cc0c7au7xwkesq7zhAtcK4B3WZl+Ha012BuoV3JX9QSxmzD5a0B+nYXoTqOol0A82v47cKH4aCLI3mjnHoZ4k42FbpJQbpvItyHZa4DmBez+wcUPqPcP4btzSh8DIR73I2q5BHE30CC6pATIb+XDhmMOVqmIvITYqf3xHK74v8rlmgufxuTtF3I/wkKv8QhN92205lZPLPGN9rxyji4cMWlCdtiepCKQMMIwnIGnOWUB20ZT92BjSwadxYOgKK5vJYNdfJzdiUK/2qJkpjyBIrW6LcQ54CUA7QD1nm8eI3zHcrsABFBT1oJO2J0RDMnnjrGyhBSSJRJns52JRt1ligIzwYc3avmo4hL9axEV8BCV8PLF1o7wJTod5Foi4AI41A/8GgoEVLFxcnGAD2nbyTcp1FzLzHcLmxLQD6fl8l6uwJFM0xP1b0coeXUP+pBvcuULYKmGp7IF61YEaE+VoPZxo6nDpOpg3zZSxRo/ZJYA4Qu0vV2Jc5LLBFPTeXoZ9q4AaQtfBkBgwEj6Jo4WmXFlOi11U9h0ojshzSTUT6zukQbS4TZnm2ceGqmYtNAGu2Eb6iv7YyJQ2Pwai/yLaW85Bn7+A0XTfsUQaZLb1WoiB/hyGMEY5pG3jaKehFo/otaflQN0QOsT7JRhhRlX1d8N3if5cti6yrhXkcQfkNk9HPjOTXV70G3EQxvsfFbNcZexLfw2Yu7PH9EKAeWowJzjxxXiF7m3BeYe9yuKJtiiXgqxCZBNEa+t3CkG5t7dNUuxaEPXOxumr7GKaNCvwJkORT6j7Cdp9foHDCr//7JrlSG+/4L+V9GYXvdck0AymPj30CYLYlPkNCPhP9A8ecK2VdIfECkvyI924P8RBVBeuQMq0vo8UGe3rEEoHejfxIhTRC8zirJV5CtKS2JRfEmNho/V6JyfMOFbHLJmxqJ6Ef+05ZQpTB9Va0NEPuo513EJOdCGAfg5F60jbsQ4DqF721gL4PTxMZi5XMHSBbg02bWeRrw61GmJ9+TSM5VCmoRn8PGQqI3WxuT+RKxmutrp0rHUEQrsX0ZOn6omsgjF6ORyOPT88KGZvNVSDKbS2I/kBWqz3XKHONniOY5vjYSnsOkcHwj4SFEP2wE1K9J4bhG1SVd08ijIAZxLoGi83Spt7Eg3BUfnEayPiRYX/tNwr3TDiZweTwgtiYqIpWsoxMk6AERcWbkX/E3BHaeIGfRBOPpUeB+lWgun4dTPRoZAVODPIobdUe2Rr/fCLghSMgP1zGzlmewyhKDhmpI/15TIkUg/74l6mt1UX5PFZvDi2swI1XjtVASXRnLHfl0ReqboN1ojR7C1Q5sMkM0gauSz4NeM/8pXQAH4C4F0Yt29Wi6ZBD8rqwrViVtUZ52W6Ig3MInpko6RdL/hY9+APD3KpoJiCkc/lphdjfCkTyMnwVzF70DT8HtRVNpsvXRdfIWR/rjiJ49/TWuhl8kiIQbClbyRRlwkGtyjdC0kP4jGO/Eh/bUa6A1Opg76EH84wmsgSMCr38F8TdcRksRHaLIPYzo5aCYSrY66ib9CfgMZ28G1sdqhXIkEgSpnA3MiWiN/hy37uCT5xY6m2CYx9ED+ovRCjh7EzLLe6GRx8eDlrDISmITEoJKb+jvEy2BktjV+Ok6Y38BSRlOqpjKma+dFBup95PgGdRCkTZ03w0kua8FwpGr9dP0MKKjSH8+yoJ6/4/B1HBFQz+3hpD+LuC+oozrwwPengTBg0SnMhLsUXxdeyKMo0tQFGruBWknTbR7OeUnUrMwAIT62hr0DSSjepVcrdA9gegoDNUjAQQNbQshHHnJQoinnuMIEOprn0VZT+A/iwQQRLTZE2H/DNsavQZ71JeI+tpqOIOwN1Dl25vy3UBQ2lMwl2q4nSGBfRmETXYlK49bwv1FgkRdcWds6ofLe4Tc6ogwLarBHCGoWBGhS0MS/J9JDf7OnL2Sn813knv7R4bHwVuKI012tWZFCIeVEDAdEVKrQ9ClVKusKL2FliKJhXh1AgXdSAa3hqq3vrY7Bw1nLtfGMQ4OsPa0EuP1lmiNLgKRlbid0HYH4nDcRYcmnJRqtVZEVCWXsaG3+fhg+kgH9OiH6sGAVUpnBGRFKxLHLCEcVsIF1gHxbgBDh6BLqVZZsXWrGa65xKDoCWeQAtgTRX3ppo6g6yG4Wdi+FA8PU7/tFNF/Jon6g8kczJ3XD4Ua/lqHI1wTiMhuBSXeXVW0khK/nPCuZGOQ2noliUvbEyEI7oxk64ULEF6wEPTWsBDCkbUWgsrVQtDLVBB0a1kIurEsBPe2ysfTB9iwEOahTBDmsWEhzLtoT4QdTbyaCDWzQoTauypZybmIijDIxoQEl1JAEwF3x1qCNP2KajyeCEdex6k5CSJzmudX3wb9YYBbIUDMewD8OOJXYGqkZupQOA9hShcr5kQUhHfz0Y9E3pLcRJjrRAw/Iso0nhognhpJ/MeyMhoFRIRFpqEpqEq3xa6xqlXajflv(/figma)--&gt;&quot;&gt;&lt;/span&gt;&lt;span style=&quot;&quot;&gt;[overLimit] displayPrompt(“Over Limit”)&lt;/span&gt;" style="text;html=1;align=center;verticalAlign=middle;resizable=0;points=[];autosize=1;strokeColor=none;fillColor=none;" parent="1" vertex="1">
          <mxGeometry x="255" y="550" width="230" height="30" as="geometry" />
        </mxCell>
        <mxCell id="EBpRJGDtO_Jt4ufxIMyg-42" value="&lt;font style=&quot;font-size: 12px;&quot;&gt;displayPrompt (&quot;Order Complete&quot;)&lt;/font&gt;" style="endArrow=open;endFill=1;endSize=12;html=1;rounded=0;labelPosition=center;verticalLabelPosition=top;align=center;verticalAlign=bottom;fontSize=13;labelBackgroundColor=none;" parent="1" edge="1" target="aM9ryv3xv72pqoxQDRHE-6" source="Djl-HkBQp77y9a95uv27-2">
          <mxGeometry x="0.0556" width="160" relative="1" as="geometry">
            <mxPoint x="450" y="700" as="sourcePoint" />
            <mxPoint x="272.5" y="700" as="targetPoint" />
            <Array as="points">
              <mxPoint x="370" y="700" />
            </Array>
            <mxPoint as="offset" />
          </mxGeometry>
        </mxCell>
        <mxCell id="vUubDAguj0lbm-HI8i-3-2" value="&lt;span style=&quot;color: rgb(0, 0, 0); font-family: Helvetica; font-size: 13px; font-style: normal; font-variant-ligatures: normal; font-variant-caps: normal; font-weight: 400; letter-spacing: normal; orphans: 2; text-indent: 0px; text-transform: none; widows: 2; word-spacing: 0px; -webkit-text-stroke-width: 0px; text-decoration-thickness: initial; text-decoration-style: initial; text-decoration-color: initial; float: none; display: inline !important;&quot;&gt;getMenu(menuName, menuPrice)&lt;br&gt;&lt;/span&gt;" style="html=1;verticalAlign=bottom;endArrow=block;edgeStyle=elbowEdgeStyle;elbow=vertical;curved=0;rounded=0;labelPosition=center;verticalLabelPosition=top;align=center;labelBackgroundColor=none;" parent="1" edge="1">
          <mxGeometry x="0.0426" relative="1" as="geometry">
            <mxPoint x="466" y="166" as="sourcePoint" />
            <Array as="points">
              <mxPoint x="616" y="166" />
              <mxPoint x="556" y="156" />
            </Array>
            <mxPoint as="offset" />
            <mxPoint x="665.5" y="166" as="targetPoint" />
          </mxGeometry>
        </mxCell>
        <mxCell id="vUubDAguj0lbm-HI8i-3-4" value="&lt;span style=&quot;color: rgb(0, 0, 0); font-family: Helvetica; font-size: 13px; font-style: normal; font-variant-ligatures: normal; font-variant-caps: normal; font-weight: 400; letter-spacing: normal; orphans: 2; text-align: center; text-indent: 0px; text-transform: none; widows: 2; word-spacing: 0px; -webkit-text-stroke-width: 0px; background-color: rgb(255, 255, 255); text-decoration-thickness: initial; text-decoration-style: initial; text-decoration-color: initial; float: none; display: inline !important;&quot;&gt;getCustomerInput(pickBtn)&lt;br&gt;&lt;/span&gt;" style="html=1;verticalAlign=bottom;endArrow=block;edgeStyle=elbowEdgeStyle;elbow=vertical;curved=0;rounded=0;labelPosition=center;verticalLabelPosition=top;align=center;" parent="1" target="Djl-HkBQp77y9a95uv27-2" edge="1">
          <mxGeometry x="0.0286" relative="1" as="geometry">
            <mxPoint x="270" y="150" as="sourcePoint" />
            <Array as="points">
              <mxPoint x="420" y="150" />
              <mxPoint x="360" y="140" />
            </Array>
            <mxPoint as="offset" />
            <mxPoint x="445" y="150" as="targetPoint" />
          </mxGeometry>
        </mxCell>
        <mxCell id="vUubDAguj0lbm-HI8i-3-6" value="&lt;span style=&quot;color: rgb(0, 0, 0); font-family: Helvetica; font-size: 13px; font-style: normal; font-variant-ligatures: normal; font-variant-caps: normal; font-weight: 400; letter-spacing: normal; orphans: 2; text-align: center; text-indent: 0px; text-transform: none; widows: 2; word-spacing: 0px; -webkit-text-stroke-width: 0px; background-color: rgb(255, 255, 255); text-decoration-thickness: initial; text-decoration-style: initial; text-decoration-color: initial; float: none; display: inline !important;&quot;&gt;setTotalPrice(cartItems)&lt;br&gt;&lt;/span&gt;" style="html=1;verticalAlign=bottom;endArrow=block;edgeStyle=elbowEdgeStyle;elbow=vertical;curved=0;rounded=0;labelPosition=center;verticalLabelPosition=top;align=center;" parent="1" edge="1">
          <mxGeometry x="0.0286" relative="1" as="geometry">
            <mxPoint x="460" y="223" as="sourcePoint" />
            <Array as="points">
              <mxPoint x="610" y="223" />
              <mxPoint x="550" y="213" />
            </Array>
            <mxPoint as="offset" />
            <mxPoint x="830" y="223" as="targetPoint" />
          </mxGeometry>
        </mxCell>
        <mxCell id="vUubDAguj0lbm-HI8i-3-7" value="&lt;span style=&quot;color: rgb(0, 0, 0); font-family: Helvetica; font-size: 13px; font-style: normal; font-variant-ligatures: normal; font-variant-caps: normal; font-weight: 400; letter-spacing: normal; orphans: 2; text-align: center; text-indent: 0px; text-transform: none; widows: 2; word-spacing: 0px; -webkit-text-stroke-width: 0px; background-color: rgb(255, 255, 255); text-decoration-thickness: initial; text-decoration-style: initial; text-decoration-color: initial; float: none; display: inline !important;&quot;&gt;getOrderInfo(cartItems, totalPrice)&lt;br&gt;&lt;/span&gt;" style="html=1;verticalAlign=bottom;endArrow=block;edgeStyle=elbowEdgeStyle;elbow=vertical;curved=0;rounded=0;labelPosition=center;verticalLabelPosition=top;align=center;" parent="1" source="Djl-HkBQp77y9a95uv27-2" edge="1">
          <mxGeometry x="0.0286" relative="1" as="geometry">
            <mxPoint x="470" y="298" as="sourcePoint" />
            <Array as="points">
              <mxPoint x="610" y="298" />
              <mxPoint x="550" y="288" />
            </Array>
            <mxPoint as="offset" />
            <mxPoint x="1239.5" y="298" as="targetPoint" />
          </mxGeometry>
        </mxCell>
        <mxCell id="kOkCrrmOxWz7fs_OmsVv-2" value="" style="endArrow=open;endFill=1;endSize=12;html=1;rounded=0;" edge="1" parent="1" source="Djl-HkBQp77y9a95uv27-2">
          <mxGeometry width="160" relative="1" as="geometry">
            <mxPoint x="460" y="620" as="sourcePoint" />
            <mxPoint x="275" y="620" as="targetPoint" />
            <Array as="points">
              <mxPoint x="455" y="620" />
            </Array>
          </mxGeometry>
        </mxCell>
        <mxCell id="kOkCrrmOxWz7fs_OmsVv-3" value="&lt;span data-buffer=&quot;&lt;!--(figma)ZmlnLWtpd2kZAAAAMDoAALWdeZhkS1XgI25m1tLVy9s3Hovsu2/nsZPLrcrszu3lzazqfuJLsipvdSWdlZnkzep+/cYFERERERFRERERERERERERERERERERERURERnGcRjHcRzHcZz5nYi4N29W92Pmn3nf9zpOnDhxYjvnxIkTkbf+VdfCKOqdDdsXJ6FSV51sVOrdoJ1vtRX/1Rslv1ss5+sbfkBWdwK/lcp7htqvl4AzQWWjnq8CZYP2maoPkDNAN/CF15KhNZy7walKs9vyq4281FyuN9qV9TPdoNzoVEvdTnOjlS9J/RUHdkuNuuRX43zLX2/5QRnUkaDo1/0u6Ga5e0/Hb50BuZZGtvxmVZBHS5X1ddJjxWrFr7e7hRatF/OB9O14qm8nG50W4/ClZyeCdsvP12wJ+Stc3o74yvz9g4hJOA2spAmd39lhMkFBVeo26qZhZTJbrUpbxqDr437Y3OtFIWRFitqmJYhqjU0D6q3BqD8YnW0dDIWm3qjf67caFKhGyZQLB7taj6DQB6VKjWKnxqgAdTFf38wHQN5Gq9FpAmTWW/ma0GULjUbVz9e7jabfyrcrjTrI3KZfbDdaQEsyTtLlasWwXfGr1UozEHC1BRHLbtb1SMvf6FTzrW6zUT2zYZis0VS95JeY7jnd0bZ/Wrp0LKhWioI4HpypFRoiIycqdRqrGyyzWimekqm6Mijnm353q9Iud13dq4qNeh2epoNXF0UeC9VG8RS5a7YqpQ0jW9fCqyYjva7mlyp5gOvLlY1ylf+l+IYABnawNzqwy2S3qnlp9KatfFCudNu0TO4hm/lWJV8w/b+57YCHGqBbZD7IPSwmcZL98GCvNwm3BrO9dnj/zK7MTcE9nXzLp1RRyU2ipm+1hpEdrw0LmSbEnWwmyZYaW9LP7OXmM9fMt/LVKnqDaNe6LTe8pUV01V8X7LJf3+iW8vQ8bxpfkTwa0pHMqmTWK4brEQM3qiVfpnitjdb49zYq0sujzZZf8teRhlK32WoU/UDk6hjT5Vel/Hgsd92g4vp4IkHVOtV2pWmQV9Ty9U6+2q3Umx3p25Vl/3TeCs5VxbK/2TLg1U2qOfQ1DYZtQVlc6dl1zWpHmr8+32o1tuJh3mBz8VzcWBiGo34NDRF++SDotstM5YbYClVvtGrGQulSvnXKF+ae66UIQkbEHqkuYADIZouNaiPJ5YwwmTpLAXprIKMo1Cg1EETyK7ZKnF2dC9mRoLHe7hoe5NbK+VYpyRnL5Ld8qw3H/NNFBoqMkjleNst1Isi3O4nCXmFaAbiy2qlV6o2g0pYmrmr2BiMnfitBo2pWUCESpQrzSmvSVTA6QUlq5gNLASgoRE00G1wmwUHkpDZbqeXNyHJYq5MVgKXNSskX47Rc2WcTCXZ6w9DOPrtAy28XzcSvV2ScGoEzrbWt4GX83d1wx/U4W0HNW+wBeTSAQlVqNZrzrF5vYHRYyXoJ/e9IB71CvnhqEZURBSwa27rUQCQqGHLQqtPE3pHqamPLAHShbfsQIBHVbjHfFNHKznNoRKto7HFOmJbCnfG0NxuMR9SJrS4ts77MK7BmuJVT/lzavGrYEzPeng72ycV14N0t+27ldf1gfzucdkaDWQTfVl6GqpqV0341AND0mp1MKL3ieBTNpvMVXmblwSspN0PStbxsRB79cNOeCYrsYwDZdTiWurZGzmUM9VIwm47Phfnh4OyICgkzhXlmYQF0o9N2oGeJi70JEhmPh+Ea0dCJwfOsRsq8yCAyNuvf06lU2eywVCCzTqbEBtmtNsf0IXxYwAS1lLbhy3Mr3b2V/Eoqfxv51VT+dvJHUvk7yK+l8neSP5rK30X+WLHSKqZbP25He3I8kJmpsXu3wKqCv+nLCHQ8cK8wHg/D3qgxCWMByXbqVlOZRqrJlgOsg04B42pg77RRYCOvZvLL4+nggfFo1htS3Zm21Noiy2YWvJMdNsv1iunhvPZmOJ0NUD3BNZoUpaoWGu12owbk1cYHUVg8mEbjKfODXc9j+yhQxVYjQNMqLWDtn/FF9RA9ch6unmmqmWco2MIiIk4+i6kmyZEUK1WgpZpYVKmyzBLjJQKtJOtnsqubKPt4WhtMp9KBRIvMqpNqA2CBsIxsSW0RYa/Ui/asPfGKbKOg1FzAtbE5Vh+yzfoGKHWy6Uuqg01JvGZJfL6Mf/9kPJ0d1qEMvgUmnd3LKYqKEXgWpn0dIxKV9aq9i+OD2cZ00LdMslatUjM+76BntSwzr9PszWbhdEQRVJWm0RBstLHV2qznwWzcCqPBA7BOpsh0x8xM0g+dQJ5Ua08PRjtO/LxSJRD3RHgqXFW2ZgAdzC4OwyB0Y2fpWkHD2cc2Ti2JLiJdVlbwr/EV6kXZWDJtv9ZstPLGt87GbJjMWZjM5CX7DaCOdwsMR2/nnF3GZExlDPS9zK7pgWajxAk0sKU2ck1zl8yunVKvgJCJiQHOmArF8QEdmrp6Sw9Wj2l3i5PJd9qyc2VTrHKG1cmDaDbYvUjRg3Jp5ot+F1NgXXzbg8AumrGvIHHpg8q9frfdwKiY+VhAIGOsaaXWxDcmJyXQ2ME3x9FA1pLtA5Trp8oXmOWOPUUYsq2pmGK2Fk4X+SZo5VJbnJ4Rt1pQx9zsEAp+e8v6MhqSERpKs3ZNV+KVQvN9ORJ15TRIXndaZp0K7L+kmWK1YTzMLO5wN/aNyec6TfxPv2t88m6rU29XzClkCaUqVcSZMeu9XKFr016q5eP452i74a7y67TelarsROR1rcEpFFcS2LOwLchQqyweF3DWFuA7CFnO5oynvQQVXq1xZDl4mhGulFr5DdJVyk75Z+JqR8huNuzJZQ3YjqNs1vJokkfByB9rT3sju2h2DDexg+K4t7uYfPZSGS1kCtVkETd9QL3OUZbU43TEqWa91Uh890wKFZv+bApnjXwuhUms/FKzE5QtzjFbnmNiXitzlGW1OkcknI7IgdTiHKe1OSbmdHSOspyOzREJp+O2oywTRDGzEwvImN8VC1jL8soFXML1KtOSwzqmV6dxMc9r0kjL8to0KuF4HfaqUuxKGbnrcQaJB+TrmDGjdDfg9zdwD+eYG/1ehI7aFT9OCKHYKVSKFChhHWc0Pnoq64mtsS42NUSJkqKs0C1gcrbuAm7Jmukkvxw0W9bGr2xgqNhDE8SqI00QRyxkVABttfK/tohsb4mBOHoIWebMA/pYsDMdD4elwdTaCjrttOjrWHRm2FhcWxdDMxN9D/uYqVlIuX+6yeZmrWYRDuIlmZze6LCtaC8irEJjwMtKD8e4Ogb0iuMhvoTOTtWq0mf5x9vmn0yPf7LW3aDy/eT0Rf7xWqCgniMu8E9mj3+yhlMwG0+osCOweoHSE2eHIfBqvdl0cL/SS/u33EJe799yK4m3f8ttJJn9WwWZ3b9VkLn9WwW51OxNsbmVUT+knnf2YNBX96WYrinP+v8Unu8ND0Lq6ANzFrhZeevMUr23Hyqd2e3tD4YXodeRbL4AHkxm0c50MJmRywjtZm866FHlYD+cDnbWB2cPpkwt26078yrEjvUE0Jz1TWQO2DSzWDWY9HYQ6oW6HP7xAMSImbwmquCOiZdhsC6LKwNMc8BUcpw3MA4S4mzWN1272JtECPO8CvpnzouapBtnvKbP2U26ngHRTXLicxPNEzAHisFuAC6l+DfjeU93C5+cf3HNcYcATH8CM8ksTkJVQaaNqmm8fGPg18PezEzw3+gmRzqKVPG2piFxvfCKzUDwGekNqekgac5F85YImYhvutxoleqkK/n1lpSvlurGGB2pd2rSpTU8aIloHWVHlCEdK9n0uLjWpCc4gUp6RT5vvPkriza9iuOMpFcHNn9Na9MEMq4VxSS9LtgyEdTri8GWpDewOIK/sVg0obSbAusmPaRcMTHSm52H8tBGqy79e5hMCunD2d9kKR9RaptD6zesV/MyjkfWNlqygT8qQNZIH83xQNp/zDreLOljyzZ9XNm2+/i2zT/hHps+sWnTJ8mRh/TJ1fWC5J/SaJr0qa22Sb+xaevf0jxVl3m6tYr5IL2NVPp5e6tdlfwdpJK/M19obZLelS9sSv5ppNLvuzctn6dv0iHSZxSqW7I+zyQVumeRCt2z86fKMo7nFE+ao9xzi+tGEZ5XbJp8vthpCV2BrV7yRYybpKV1y98nnCb9WSe9jXSD9HbSMs1KexVS4X+ybMdDaxvSn2q5cVLkBpfUeCD1Co4EaeNk82l3kzZPNu8WPvecbD79FtLWyeYtd5AG1ZM1qdcmair0HXY1WZdNcV9It0ilH6drp2qCP1OvGsfr3nrnVJv0m9gApF/PJw1Iv3mTCSe9rxm0Bd8lFfwLWqdaku+1mmVJt1udgqz7ToCLS9pv236E7bo5bOyyTLJ+ZzeJbZHubdrywaYd9ws3Txl5ObfZardIh6S3ke4HAZZXqRGp5Mekt5NOSO8gfRHpnaRT0rtII9Knkc5IZZ4OSJ9Oej4IsNlKXSAVfveTCr+LpMLvAVLh9+9Ihd+3kAq/byUVft9GKvy+nVT4vVgHwW3C8Dt0cdP08CUCCMvvFEB4vlQAYfpdAgjXlwkgbL9bAOH7cgGE8fcIIJxfAWC6+r0CCOdXCiCcv08A4fwqAYTz9wsgnF8tgHD+AQGE82sEEM4/KIBwfi2A6fMPCSCcXyeAcP5hAYTzjwggnH9UAOH8egGE848JIJzfIIBw/nEBhPMbAW4Xzj8hgHB+kwDC+ScFEM5vFkA4/5QAwvktAgjnnxZAOL9VAOH8MwII57cB3CGcf1YA4fx2AYTzzwkgnN8hgHD+eQGE8zsFEM6/IIBwfpcAwvkXBRDO7wa4Uzj/kgDC+T0CCOdfFkA4v1cA4fwrAgjn9wkgnH9VAOH8fgGE868JIJw/AHCXcP51AYTzBwUQzr8hgHD+kADC+TcFEM4fFkA4/5YAwvkjAgjn3xZAOH8U4GnC+XcEEM4fE0A4/64AwvnjAgjn3xNAOH9CAOH8+wII508KIJz/QADh/CmAu4XzHwognD8tgHD+IwGE82cEEM5/LIBw/qwAwvlPBBDOnxNAOP+pAML5zwCMifpzAYTz5wUQzn8hgHD+ggDC+S8FEM5fFEA4/5UAwvlLAgjnvxZAOH9ZHw704FrN2K7VHUrHLpYnPmWtN5mIk6O93el4X9yy2Zh/vcJwvK203r44CyOV0TbCpLwMF3Z7kh+JR4b/1e/NeoZ2WWU2B/1wrDwvpolu70yHQrQ+GHKyLYo3me+/kKCC0isz6RR+XrTX648vRIDe3uDsHmf0Pfw+PMl+OOsNhkDZkLFE4mTgUZ7nDB8SOgJemoX7JtZoi5bPD7Y5e+4IvGKuAGyz7lpXeUf+/za5g8c07TG2VbW6PRWeI1omd8R0RnnXmQW4QukdmQj1AuWNxcOciQOeOT+IBtt4W1plSdzNzXGVi/DEI7Wrl+A9inbH0321p5YHZjVeqtWKgdp7uM8j6Tqo1d4IJIeKihQJ5gqLweXDI2XZltWV5NOXFFepIxazNz4Y9ovSv1pvBIL+XDcdczqhMt1ci6QKwNFdM7eG0i3py7U6NpGRrpsirLU6Hu6PXzgo0kKT6DFzvKxPnDdC8jKtriLSe3Yw4gQjLW8N+jMGpq5ewJZDmUfQ1+xISziw6vMZda04pzXWqoTwKS93LryoRkrvgq0ORnElVlcwpcHZkN5lOD2Qsy7tAyormS1LmOMqgBzMB3acXqbHhXa7d5aGtYB1mTXkONYcE3C2jV+1s9cTNz+cRlDoJGcaqpRkyF4kcON8OCXuGbZ7rK96laczQxMMNcGybVad25ohvY/YaHTu7PDiZC9ih9FL/eTGJWJ/0cvbHPvOvehgLIr5Rq2vsGw26QAk9Hhll8Eks/MqrVd3e8PhNnGwdQoiNdJH9hDEKY2dK4zvh8trtV4jB/RVTx+dJRFUTqVTd2rLqWMOH/aT+T0+HJ+VaLshaY+L8dgbu7tROMOyqFV9Yn8Qx9ySelfuk4O/bf11Wl9VTnVIedltAnb9SPU5BVoD4o6Mmb2YDo84R3Ar4bNQKZr3m6MxyhTDmUG02RvCCi0ruPlW3gqqbg9EWLwLRg6RHSk7A5ARIOl6VnL5aIeGyS1jGcbTsJq64MIQ7A6m0SyZDJrN0YV0fmlDVld5yzvj/f0enS5YAzo/EW8rKzQMk17vMn9GTGj/Uua9/nlngpYuVbflUiI9GOYpx35mCMucMBdD78QJuT/v7k8KKBqzZNC13pRlcXOb7paNKxgpk5qSqYezC2PI3XiYnH3m+wECHPyTjOpSVZCdiBsB5kTLUkfqPq2Di/vb46FjH5kM7bJBWThmEgkDj2iB2MaAvofrTA32laWL2SKKZpPzPNYeDhNweF2cbJmrjXAkFp0Zcm2N05z1QRSus+YbsosyjosjExPQ7HyD3d3GaHixxayf7w0NdabEuf+8mN79g5mMzhhcy9db5EvGKayXj1CXVrgLjZgyzEhciOgHGF9aHx9MKkx/rAm6F9d5hxYaZrXy4MVmwioPWm4sH51lev8vFEE4e3CiAKmUGZLGwIXEfBBLb3V3MAxP2XFFphAWeBhujOUezgKhG2HZZF3cWkV4vDobux+54YCNdnpRFrQ9Dg62JeSzDZkg1IuxkqjSZDxCLW1Lywej3aFcMcnVQZrlyiDqxEUhIq5WbbeLcf1aL0Kx7JJldmKs5aonB9vDQbQHM2lYutset8PefnXePWnEO9xIpoIfJlraYNQiA8FMhj2XNWHV2A0u0FOkxxGLiOIsLHRhUYouz3fztv8nzih+bxikViSuYlnbRwmYR+O2XCM9YQs2boux76hzZorhOxAfJzv3X3Ikif+yFE2mYa8PxXK0N77AXON5FUJmsC+6B/lKWxwbY/Yqo11xH017m0r3D6xaUtlr4oSMpaAUnh/sxFedccBVTuTmOlYXiZGYqJFncMRgJVZHHs2Uiq3Yl0H3XeVicatrvHB9qBH2FMlw2EBwnf1iNAy90mc9BrsDDDCSSy3L86NsKw3mkB256Sx5WxioleTeTBF2j2P0WuCkxJNcHKnPEChmHDFl1mUT4pxDxPTcOtc7Jhqx7DpQYL8/i9WQzQ95xiTSG1pJRi13VYS97f2S3AC4xw36EgZ2DElNoi2VUjd+enMpeR5BY3sSKfO87QRtuHySqZyjirFA1Xv42GYODZXK1fObBPtMPFNxCeHeDulgy0QYPUnlLaIhyLjbCHObl/Vx3OXcA2eWU0wPFPFTLAhU0NowkU6iUk3Ydpu3dzfvAOHZmgGePuodcVyIDnZ3CXSj9gPxRU3X0KwdHLGZ7AYz9W0qE50/K7bCeIgsP1nOVCLZn0MTyDUOZuIyiMNIOWaK1WBrlo2D/DIU6+PpDnorbyywPeci0CtsOvntaDw8mIVu68VQ7aQH9Rmtjrgeb264JpVXWe/Wfd9dIOSrW/kzAYCuGhdRrt0xxzMZx13Ybhxb5WGHE83NjA72A3SedYgU7pXTc45AkcUGogX4GWcPsGxTl8OLoV8s48pEDB53+ner1Q2sOetvHGka0QmreOvINLFLEFzAEjDf5o3nisLGLHhE1l/AOuFuBAK2pfMSG7eyKI9USAiktxqnBOO515IZf33dvjbJEnZstATKuecFS1ghLL7hl9qnbFvWysYbsNuc4q1NCFgjBilrTu8jwbgqEWsRqz15T5bJFrnrHswecs5UgTAiK2vDELgl726VfVSxXKmWuo31ri0mcs/9oX2wyghR0zOuRCp6+elO0gv8XSYxPzrLLHLAxf6mst6A++xpKzbVGWvyq3jR1D2YDuih7g+iybB30Yjxmvg2Jmuklv43hwecyVxrE5NhJqmG38OBiArn7ECbpqwVDnucFfZshezEIG2FfY7E6BIgemSWGhC3vBQOQ44WCGG2djCcDaT1cLo+CIf9TbsULNAOqsDcIww6fQ/G5RcDFJ+v1pOTeko+3B2/WFoSz5nTjLWeQNnYgOYS07qUcPNH/Yn40Yw5dKDsWbSJ5zOJV3qbqy/b7D+gQUllAFR62JRadD1FbhWPapBYWpnmAEjKuV+rlEpcXXIfi4UzgkuoO0bZS/b4iYKtWhvYztFMBFK4/DN2dq5yCTVrjqVBZGnGrxYaW9ZQoD15Nw/aeTK18fnQbcfjYf+UWV3cZkR/PRFrL0VbHhComF6sEB+hSjQ+wKaZyerLZNl88ZAnwy4bDscc6EReWHx6dw5xGSXVdudNDSlzwikHsnMdcy7Mbg36Z0O0jtEjFx4Hjriu3x9wBJQBZGcDpG7W259UovHddxGRZigY2CmEwplBCXHYz0ugIbODvxJnslLAJBuj45V8ednPJKmtMndthUa+JdOnsQjnLEkmX22WJWYv197orw+kzdtU98LbC1gHFijAY0AZ2fmcoBY6qD6pedPO8W6Ejnhfio2lORTZeMSdk71eFKol5RnAIu+aYJ7iC9YXqkwqawmeNpP+HVHGobGou0d2OnOSWtTTB1HTOrji66OL79Q4g3jaE+kztB/0hvMlN7P7b1q9OI10cgBS/6gzCr9hDStqs6xudaBtLxxEwXh35nQ/kCIafZcm4DIedSZ91sF15BfBrQ+Gw5jmx8nbLTPG/KSOBGozPvVFTSTdZEsL3f+N2KwD/5xmlJex6V/WnGVSRfMN4kuaKPohI/8hb/xCvNfgAClmaaehsRDGbAmnP0Uhz9fG49FwQGRqeDFu4fOY5D1OihIqs2Nidu4jmuPQqaGZgjfHBaLuc/TPxGjnCCQFb0sKjA8/L/jZuEB8gTn67TE61R/cEtsNyn9VRwbZBykkrJH6hFtWwVnCuOT3UyXSYcF9MoWznRLsH6Sw0iPBfSrlMzZ7KHbELY/+TX3ZHhYSUnr5YSMUCM0GmInSBMijJIvfxBrNLm7KjtWY9hEE9WVPfy1ea7Mnzhf7fVo9ADeDXdSJfweUVEifLL8lXbAJfysi32bRifFLydr7NbG+yNAvCuqr9UF8fIR7upG3EOXElHYepPjL8QmVaRLl/mycN8v8J+Je2V6cMqr5OWaseBuD+tOYLky22zWuJ2wstrhY6V/nXGRSS+FupD7q6VewPafQTGWEeujv9dwAZcBv0epF86w1ArIUEjIJErycPr8VWyJnUQ5atsAM4PsXm87jA5wd7ZOL1Ec8/UpOZwTL89OwcLDNYok38YvJoTaQkzEXUPqf9QKKw/IHtf4XY2KNT/pmrcZxxnZxEleoyo6lcuo3TWTZ+b/XxrAlrmB8e2envcme2F925VV13SGUJTyZYOOHJqvq+sM4S3pqhhrluadIP49+vHrEZdC2Qjsp2UToJaKnnqi+4RKkJe4Ivshmoq5Tj4xhW7Qp2VQI8Qb1qEWMJdtiS45jpHRsnrPFz5cZqrPNEKV/Qgzbom827GTRX6PVE+OMLbtPSE3kacSBbn9/PKrKKfGAIzgr++0Lpez/988Oeni1c4oXoysJSWmAgoXSZXaqNNV3pKns9iVTkyZ5SZoE2yHXE6C/M40O8CPQnnvD6Ziil6aL6u41kH2JNOHO+9JCt9xqys3IpaVEEY3boGZcj6eKi/JS6Dw3Lylcsjvdz8U5GyvGJmY+5DrZUCYq/nEoeozHxq5vUh/m7m6Eyp9t4r8zn4aRVn8Yo6vMD/k/wuW9v8oqyzHxL9nkTO9QJ3FqXumpL3qyHB18rKo5ecYNLnPzOhuf5VjSb4wa7XU8LaYkUt+ifz/BE1RNF3xSJzF/9ZIMt6Ci7sLrpRn1GaOGZtyCirCb+qWm6cKgP5g3+sMG17b3F4J6lvoRRhSVe/1Wu9qmjDG9JXUQXnKglcNnECg7Z6zJsoUs+pnz27sVB9qCZ1EzCYCtJhlb+OwIS4H3vyapRT2XaEJytcf1i8vYwuf1kStMEcs44jrlWCprCfL7uJ/07QpJLaokYCVq2NADZVctICzRuuCMu/QKT/16atNt2LEwrKsvQdqqG2h/+kTJ5dw8b0nKkXEJ3A3bqropnbckdYsyBkk9Qj00lbUE91gMQq4eqR6WZGxhy+bNr1IerR4+z9niYBc/Ye4+PHaeteX32goWJRSPSyMszTeFxlFhG9P6SQ62Jd35xBRd8OO2QyhLuCvtboTj/XCGU/wFrW9PIyzNWdtyjBSqOxZRlm5Pbm9QQ8RyPKmGu1i9+awzxT+g0wQtmehDFK+ZUxTGs9l4/zJcfvAwzeUYvXZONC8ZyOY2QdhRUGTuhw7TtMfs4pTOSV6nZcPGc0UnI2w4o2b6jab9sJzQ8tuHQmAv8bbH4i8wvrLxDcD9hMPZ3iboNzm0DDFB/qRDmjEl2Dc7LIuL042gi8q81SFpygotw/4Zh7NNJei3ObQ0lSB/1iFNUwn27Q4bmPW16GhxUn7O22MHspt5Micz9TB18+XwVjSakfzMQYyMKihMtMvYwheavIwLA04fzqXzlmRoUM1eX7YCSPbTeUtCg6CKrASmxyipWlf3G+TJA/srkbK6aPK2tKQ+pU22nHTbMaSBP7RFmGjjh8wLPm0LONfjiZ1Uf2Sz1pkg/xmbb7JbsY0Hgwek1kn1Nwto036FSEREl75ii9Idt0Ul9e9d0d5g2HdVN6ZjeQn9VVviumWWEOx/WMBaIQD9txZt2Bj+QTjcZXL+zuLj/Zgqqqq+jxMPyBaO5DQK75Wlv59F/36LNr9jqavfsjnXZ7dStPQRj8t0Bh2qr2TUb8seHGc+ulDD9AIZ4XwwU031J1xHBSNke6O3jy71pqJgn/MQIHfvImdW419/ryikvQIJJKaYFLxyXlCgnbNzO4fp+z49Z2WCAh/W6kdTuDa1uM95fQpVml/t/JgOe8lvB06rN6SomrgA4fR8GJjwKZ3+Zfx/E8qi0NC31HtTKPk5zpr6lXlfiTDJPc7HNOc5lCW+BmlTpNrq11JNtYkRjQ9klT+Qpqz1yPC/sUm/rsnEJakRfFCiJMRfTZ5dlqUd9iS6/6FUA4F5WRMgZLO8eY0jRuYP5l2tzFlH6h88/aV5kVkKZsiEudS/eup/aBtSFVcZMdOfcHmJo+Hj2Ljr17T+83hu5IQOD/WPmiBlgvM5NYP5r3NMlZGawzWHPIoSvKnN1ss+/N/mWOpb3D/NcUWkjsUyXY0o0P9rXiaOVhKr/Bet/rfmaHzoewFH1X+x2A4r79R+Vf13ZtgcEi9zr/52TRDqQYs3UTOmVP29Vp/2Rojzodv+t2mKdsBz4bBzrsp2dSDh6S946ju9IT4nInh+EF4wtK/IqNd5pnPOlcRB1er1sftbZOgoXJTsKz+GR9kPx02EYRulUa/21DtET/cnht3LM+rnvQsmgCmvCjgB4z+HeKbqB1Loov2Z6rJ6jUOW7FC5A59Nw/hXrK/z1A+68mJvh3NIHoYRc65e6qnXupLKaHIwSy4hPuOpH3cFsjMTckd33ugw5fF5DI+RhNd66qcwIFsGH2Cuz8kEM7yfdrS1cNbry4A+66mXOZx/XmaCKdff7TBNdnqs/cVaODqwBvjznv4ez6xWa3whtpJEMTz1HovGvhzsjxZKftmWUMHKRsSOqt5rkZZ8S3YOg/4VgmzoFGc1f3Swvy7yx+Hli576n1aPKSjR7bjgS576DkIYGFAm+4gB7M73nJ75JeoIiWLUx+c5W1yQtbUG0R9JP8RUnLgEaYmLoYnUxaLSsLeAV16KteR+hOJVUJ+pediCJtywiLFk1f0B46kOSCC5kcTlbHFtJtqFcTmHEYHgIem8JWlsIwILv91+rHr0YZwlPY1kIAVpJwTn5DGXYi35GU6OfSKs5sfOtKeeqp58CGUJX2AnIeDECi4idKWfsoiydOgIUQyzCJHsfs9QT13EWLJttA6DLlHFiEiW/sZU3lLs2CdLIgPqTVrdMs/a8v6uGJEapyRiB2YNlVbRJUhLjC6atsfrrIFWcniNs5bgvB1LgVm3chHXh/qChJswJp/X+hWamTOyKVJA2at0ZHa/+e/M7lU/gcUSjzrYH49ne0wNi/omR8f5OeLWZ1u9VdsW2zI5EZfEAsDwFxwhC8U67ZjAO3Oqnq/eDdsER+9h8kvcwdxP8FJ8m2k4Kg3Eosmjh/c4Lok5+YomnNlzV5Jf1eq3Yptsw3eCrpoV2HQWOac+okfUJcxC1hj/T2v12yY4Nzz0gOLjWn00LpBNbgbjmIBe/k5cNp/diswiIxGCT2g8gEso8vNnCp/S6ncNAcJhLpzuU39s5qLHfjgluC/z6O4fxG/Ps/GZBRD7/3nr5hXhSZPMm6zHSfUXcwZyPSAcHoTBF/S58CLxl7NnmdkXZ7i9OD/Ga/HFhDb3psTimO+/1tJTsegc/vcK4e54indDeEcGeJ/+jy6MXGXLivBI9X/SM5ZbwjUy8+ornvrPLAgd3WsQZEZP6Si75Bi7SOwKmI58FzteNJu7my/3wv3tsG8YvCxDVJZI1F4t7A/sy9JPZNjREArWWVaZ7jlJYgf7IS8a7E+GnAriF0fN3igcynDf4O3N9k3k8R8z6p2eBG9a2Bn11Yz6Ba+3wyBN6KXa2ybUuqbe5Z0XEjCm0c9n1LsTTBFbc7DPeMRRm8BZ/VJSJuefwsWA7YmSN3vqA0mJ4CiM1Bcy+n1pLJ7ue7X61QTVCjl+IsFGBD+VUe9PSqQr5iIhUl/MqF9L8G3WdlTHQNDxLyTYYGc8gfLLGf1XHs7FqN+LZVf69k5P/Y5DxzupoN/jqY/h7hMLFsKAieXk/bcZ9bvsxalLMyb04x5LwuaO4/0yT/0eexhuOdvtrlwB/H1G/bFnF57lMTJS6aPpbNY7otQtG/6bW5d/yqg/Y1UN1p5O1tSfe/3xDpFIAo5p3v+QUX8Bb0LijC99iRtxUNdf8jbRprn342V6mOgJWfqs9+lzrzqWX5lyf84ZX0aSqQk2bzuiVuV5DleiqpnvBHJJyi3+hnwYQ/DdGOnV7IcAMp26g7KOTLLdBJszn1pbb7S27K3tkskX8sVTDrFsEOa5wApOBC5Lygnylhgxx9QB2zOHIY3Oix7PEemn/L2puQqzhcgVI8uCC1JVLDY3iBq2ms0v2XZLznAueHhcqotmcMCQe1SMizE3gF7qvYQIjqdZp+kAgXu9p/VioU/JRVhhcFjW+euNTSepJSd8cx5vhMehUp8imGTEm7Y3nfTnfIpGlDQRfkvxJk9lNhcw6uZaJQgq5sepqthoyTePWvlSpROQ1/Ihr42WfLVOvs5gqbw5slIv+eY1VyYwD3+6W/E3QLJBmyVN1cpZRDNfks9/xA/q5ANvKax9HrK8iIyfhqwsopO3I6ublaBSqIpwHZFXR+YbY2TWtrjflh+MHk2+THIs+XiZNGU60T085uOLNKb1S4hOzIlsPy7P64pLyC7P7spCo1UCIQ0mU3iVQ7qaCf5qhzctJthrHNY2kKCvNZ+/qLe78oNpv9Wu+NLedXYqi42OPLZJrdL1tUq9G8/bDbX86SRzo5QkE3mTFCW5h8QiJfY8MfZz4X1LSnjTJD7lSHAio2DRKmx/IsZCDeo+5bUly3kDy8fpIm245+28jXYelM6HSBob9GE3fzaE1i1WkU0Y8hTbd1zC1tH4EMxZRiAxO17e7CFN1wBkKVbvgtUl5T6FczYTVyA9s6QVjmlm75NnKuZtqIq/OOiYpTeseWPvTRpLlfsUzhsTpHqfF7cU02FnRz2ze+qZNPxuKDjvYBPr8YJkZkRqOAGx273fU9nz4xmhEzIf8FRu/yAa7JjcBz21ZFm3E3JPzwSuhqOzxBaxWZZgM+bg4XfN8CkwrPPSWsISAzxmSyxJ5yI6NWvDrRZB6nE5Ob+U5uJbebkR/bWGDlb9cJd6CNMD4/3tQbjufo5Tt0PN7KSr15OKH2Z46YdxueLl6VR2bohU2hBpeTnbqpSwld3AfG+ySzdYzUq97Lcq7a68nuwG8gEEW5BZaGF+u87Y4yGgIbJnfIyFWSAuyahX7OKO7Lg4fiNQveFmXCPDPja/nlxTWS6759UrUjdnlv3jrF565MuTqTzMwM00vCL1CU+tLDRv8OxJcmS1MMosHrDNvEbbd6c2hxAtVG5Lm/LG2vyM3EwhiY5fODNdmK160e/Ks2MQi7Wbh/qGnKAGo7Muu6b1wLnA8gbfYT/paa+SQi8ygcdM+vQpT8nZgKn6OsRtoWQ1GrVmo253RUV/8X3kk4DSX23dCl8OFGyI9htA7tM+yjz/JtUy7K5fQizsG0Mv38ZYl/0SEgKJfMoo6Nov3koxO28HUy4tddJ49yRvMdakMu57TKrd6tSL+bYPqM0XJ90rOc9WmxuChWemFt7kvITkGJSLKtWtqGW2TE6WgzBEEmOyU7OcL7rfAKjAFx/CfkJ1vr7ylTc3HRmD7AZ+lQ3UlDpvEihHV2WmnJeWboyIP+7zeCpnK0Tbwxs0AF2fIZF4YIBuiOl60knUZuJQbjTpOgMozDA+h/4MdgzPrOVOWMPTucg0zb25wVGK5rTtVTo6sMyl4S5ItIXtbyHEqa5on2n6QbFVMV9lUMWmLJB2HyvwioFs2JmT+c18QpMtt2uiIrmTgZnPJeON3SOo5eaZdtkgVzbEhV4NDPpIsFUxDtfaqYY8iAQ62uoEgjlWyJvPbhzHnZcPaxmlO1ERr5boh58K2WHI7NvIuLCEhMSFWHUSYwnzxBTkg18P+uKLhZk4JHNiTZloqNfGUlQ5+wpj5WWHgEgZ3LYPhhghswB/i8kbcCDiUC8zHT8FkteoYf2Ag/KUXNZyGlk/2FsZApraf4cqX6a2148PXr0hxwD1NVZ5ESVjRm3/ns2gP74w4jwo75Y4k2AvcyqHRET0NhztXJxjl2QATMR05qJBObUs7yenkelbY7dKOdKxUpgPT2WNH2d0WHXq84xOnG28gG7VfssjI3xsvZxZP3DK1YlpdMIlxnjGfbin0zD6nyn7eYqBsqWFIUNYNV+6UC3zwRi9WOxmBJtYs5+Mg0T5pxN4/jMeoYyDQF5uIBuMZuKp/I8spi2I1L94evEBesQa4WbJz5/3IXZmh0nMJZx9w8VbHsxbaIPmUolVTlALt0cIT1KQujzKYODb8+APDs0lsZ8cMTlWWSqIz0EMjXpL+3JWLhNeBEV+OenbpvNh28ZxQkEY+HvYDovjEXECmPSGedML2at6DmISOFM6AnOAS/jlDYnybpp3Q5wPFITpnOPakHLL580x6VEu3PFl5zTSezug1Cgve1cmP52ReyTKDZuW/PAkxtibvxU5sHPWNaEIjtCJr7GtVi8NNR6ZN8iOynVT6qJxzfZ3nWseKVer+iiKPe1ZAqdV2+rYzMxxPONmSo4v4jbFyKhPZ9QJs2BuMl/jqStg55pv0frMRkviHnMpgKEadabDyqgeXuAYAOqqRdbqnzx19SLKmB1W7xrTWHBuMGmPZYqZ32sTVOFift94uavqOqbQrjnR54y+PsnOZeSfPX3Doa7aWUj19cZDBJVY1M+Hia8ksb+bEqEK6LcE9ZvmMpBggtv6iMul3sHOfzbBHu+0pMSF3E6I3Tnln4mf4GOwTtXZwTlZ1gkIVKvGrOjThcbpLk4RsNcM7iDJsB+1i2U5lZLLnprrngmKyC4ZqZxGrA3WtfVvWIsynbav0DzvwPz4wLwYZcG9GqOTPnpZk9f7Nh/25Q6z0ofUS1CFiwkys0sQ7ZRx77I++4cNtHpHHfdoutMxkDcbzFhsKszizzzYguwFuetiFXN75jIMaCkURm36SvlyQl/Zx5aVe5H8lmllF01gndO41cl0fB75k8j+Ee5kzg4QANnKyK8xJaklOcrKuQtML3MQj0WOTqxm4EJUgsINhnBxxFXmD11LblS9lQMzEh0PUfbnuCOZxYazlx1N7jKjWVqk3HKzdHg64jlb2aQ7Ep9nAXd6o/O9SELgoXt0hOmecAUydN1GiD2TL4Ui8CbeZyttWGnI1uTjwsLKxu2erLQtN0yr452eGc+28lLogM0HbbFfMugf5lgccumqtBydOUxOjMZQPzikheZ6G3p3M5MYKa/NgiLM+IjWPCptfhwM5FrQe+NZNBnPXNaLOGQ4ONa6pLJdt9zY5hzV12PAilqVr8RGYTxyZVlXrYCJnHBmmlX68vqabRYjAnU/kJ0YhdtmIwx2CIaK809zrvVIvS6D85bYnsRPQN/nkV7V8jkHm2CxbsvLOVyvJrW3OYLHv7RZHrPfmMZ+JKP0KLyQZLxL+liSPmaA4tGAYSyDqGwpK6N6eOHQEBhUP+nc6zM46fF5biZmW+50hOtyZY4mFOE6l4skZ1rRh5uNuxcs8KF3Ucwnhc6anwypt2RUTpS7aCXUy0SL4ucE1i2SeTtbR7RcPtMmH8Q1DtXGevZxJL5u/cW5b5ouqYx8zK3CwdCsWJ6gogU5pdVqlbbNeItVsZ3mNpY+TAwXBiavZs4y9/JKEcPpfvhFJhPIJBKIkt9KoJ7RwszoYS+axcJhuas3sPiXogPYcBPz1gzmOMU+i3iidAn/zPaivMQiW+EMIF8i8SJDnyhpMiv2Z09I5KVNS48u09Eg6ZFj6joRqbdn9GInje0gBDa3QlxBxNzWZS4tS+R1iUrJfBHizOhlyjig299vEqFgWTG2TDiGEZvXtnlvUxzY+TlevEpx0rhEJuxVkW1Al7l4nW2HvRlLip76EqgwMQdVIDyc5HSHjYNGpUPezREt02emEyOYMKWnnvMdiKNxOaVegCqKfbcuYU6MtjHur0Tr9ulnqF6VUcuJ0HJ5ujLepqHzjFMt69V+yIYS1i3PI+gsamwscKRendFrdopjqxup12TkizmLNjJSr83oYzQ1pbdr6rhZs5imbBUWTTixgG9exk5S/T5xFB1JzL4kM4vpu3JCbi40RIwzWr5HlKzSOzPq6vML6/EufEPUc2tKYIG5u1a+f7WOmxaw2giRVtelTEdsgrgGwjecscDOZLwpo26QbJDM4psz6sZkUfLmUBKwUDftcnEYNUZtiF1drR6yl6z/uzPq5oAZ5sTem+zdcxCaGHHknEOxGkwATuEENUVpBOG6lIzI09tDFtBEAJw6ISC2sVZo5xEiKxPW25DeuZjwyiBq9lgpESQ9A98K93sELkdnbWiXJcETAm+ymRmQLOqyytJQQXy3nAsLL3PsZj1bCAzz2Q/AtqFmLPsTU3k5AtWRL4TghNXmcWVUcN4FKsjKQUTjUgEI0f76nNl7gtl4grMFi2T3dCPUC4qDJFNWmI57/R14EnBfKN5ZnLb3Y1NmNDVVH8DeTWLG6kMcVCexvDbTaBuDVx9E2WowZijKe7hQiT6nm/IQWwOYe0S3qOpVns4yFU7rI/WejM6Z5VUv0XpJoEIvQkOsEX2YBKh7Q6ery72dHRpQWbUSSSgkSMKDq3G+LR15jjoS54tj+j2y6OepNfP7ZjqVU0cN6MSJc57Jrif++nHbcLN3cchEgjgRLQixuQXJ6CtSQ0vk9X0ZdeUunDZdWGFZXWW4V5ACpB4jebFxMIsG/dAf7QyxMxxDxTKztFcbwiaTih29T10ziIocndHiIQZ92Bn1xwEX/efURzL6OoNqhSnU9dvxqkfqwxl9wzTcsQobhC86CNF4F8VaVjeadgr4VTt7gfnp9jodtkO/yZT5nBIJwMm8vdxTD5mMiTddHO3kjdgQUlM3J78n5BohNI6hfNTpoXhBs4vy7qRiLweqdIkRPLw02N0t7h3I8WotNWsYZG339iWJlZmPEtQpRlCw98bNMFORtbBb75zNVSJjSlkoWljaEe5R3vyMgzlt7zF7gqKJ5W1O+zL9yEJ5gPGd7uxdpAm9MrkUt3o54nh8RyaXx6/J+GJx4ZKLIcQjhKW1YCLijNHNQ6Q+yu4t2YK0J2TZbYGapoX6Iofc5HLYpVb8YMeslPLcB9tLXRLzBylU/FeLdEJaEiH1OLECl+2BSk/jQsPn41iFdMDBIAkmcn/i5+swU+vVRr5Nqrmetxe8Xr5aMX+LzUbYAeS7HC0/cH/fKVcz9wNL6Xuq5biRVmgf4swbW/r6jSVtWK65NNelmGt+ZEPDbAIPcm20prxdVszl8CGJP/YwSnjSxtew+BeoXHj/ZIrpQfYt6rOYv3132aP+TNwN9/LGYt5N6NVPqiRBJnWlPDFI7ircH8mxWfmTGfLnEuyflbDhWHN/4v5iV6kiKwmU9e/p5Ksy07l6g7scyZFZ4vZG/gSYmbLlJNPlsiMmWdloyR/ha5kC8qvpfJrwiP3O9ZqZ4qO0QnLMTn5lXXpznFp1+1dSTtDfbo3b42610ThlrqOumA8dOQuTTDIPn8HNnaPz07MHEj4xAapE7mrx7Jq4DStlo/nQzGUTGrY/g4/U5zLztwAiR7jopkRCc7oPwgjWJ6lOu4vS9in2vrhqwB0VSkbtgdgdPbIWh6164WozoRcmm9IOwdbkgvxLh/piCXxKxfvZhz+SCvPzKZqFkZkXZbIQcn9bbHCNw7yai0sTAbPheo5Oi689PPOmYv58IrNhtCMrXOQqWGhy5oMzJktuKTB/htDllk0DLrPCgjfMJ3dW7dUTF71YVhw8N+Vsm1pktSWP+9QL3JdYVKHTbluJ5jpIrtOy+Rb3i1Uf8OF1G6y7Q27pzN0SmbvacvUI8Bz3USirEOXYhLXkGgHRM38MK4gzt5Fpx5nbyXTizB1kNuOMfE93K87IN3VPS8ZED8+sN7inEOhe+TJWwXzb/JvkT1jZDjy/xrXHfLa/2XSz6/4y4n1Mtf2LjFyN+sVTBCKBPfkAkaPI1Px6p9L25SVRLoZTtEsxTpZPZm650XQtrxC9RDeDwPZpNaY4wkUdsU+LXQv8fKtYtsyOpi8+5Y9Q2iEeD5qVerIgJ2xsFOgKxkJyJUkzXzd/5esqWXvL7Op2y/elZ8DXcDwvNCz+Whkd6XVy22NR18sgSG+Q1PbrRtNbOeOJ7N1EE0IO+BBhS3qzpI7VQ/NNudaJ1/xhC/dHjyjm4xn5Bjepj8Twd2r1ZA0fVZKPzMcm9dElrnUd/JhSRd5INYyRemxp/n2wx/m1ZjkfVALgx6/7Ju7whPXKRqclbT5xw0elzJ8veFI8hidLc8gP4FMqNUmeWqkHPlJtWvpGN75bJHXTdiu7sEz0bTXfitjtWFHhf6dsiXQkHvHTWuaP/t1NEjf3dGBp0dR7RoAWmqafyX7B+tuL2meZP+OQZJ9NI9Lsc+WPB5E+r83uaZcDmWjILgJYKOTlLw8CFVnVZtWXGbFWvOTkvFJfF0HzObQLv3VRAVKEccP2t2KlDuhkniC8NH6q2pD+VWv51j0ds8I1+2gACI4102LDUJcqeUvcTKB7aoeewHq6H/WL8rsE84kP870cc/az1j7EiIqJ/RomNl3kg8e4mq9MimndFTyuronw1Mb4WQNOVocd4UxRtvmme+9KyNV+O07Nvx1HRpc448oOtUicqfobefNnwy7zyTlynlymyzNoVY1t49wS6rmd8TB7JBlk0m7wZTF0ufJt/LtUFk7L5Tv4d6V8J/+ulu/i3yPlWFrWElE5mtizY7gZiFkAeFxoTpQFewWiR3Llgo5dZZ7EXN2Rf69BHjqk11blryVcVxLc9aU2/95QEi25MdGSm4DmyvkQJyU346OQPFSeJj3MqMHDE+l9RFBjFwL4BunVI7nIFT6Puod/Hl1al9qPyRcK0s3HugcKjzPC9fiWDOAJ7sHTE0WcSJ8kfx2X9Mk4HyRPCezfxH3qKft3MtAUklvQEZJbZTC3CeJ2GdwdiKnsSncWzN+EuKtQkpV5WoAdJL3bdOHpWyZ5RrNSbNsBPzNodFrmA0/Pshbg2U5DnlPNF4z9fG78F1+fl9jbvH1lAlSQ/ot5AGY3b8eLVwK2c4iZOI0u+jLK9UanbXltxBsBcDk2JZV1+Zu09nOYJ5FB+5rnVPGyr71Vxm25yrzqbM//VpQ2gGCkBIT3fwBJEQAAjZgLfNRVdsfvfyaZhEAC8nCGlwZkAXkk4gpYyMzwWc2otLuK+mHZ6qSmK+IDEdkJIC4xPMIr0UJb8LGgkCzPXSoiWpxJsizqSlEok7KC6eIiYpgg1i0Ngmu1/f7ufxJm/fTz6fpxuGfuOfec33nem3Ecj/Gabute/fSrLvkrzb7AClO1qiDyvVl3zBjz2M233nHXzGmRux6YVvG3kYrxppfpbZw+pr8ZaLKyHGM8JsvJvvmxH1c8On1WzPic3KeMMV1MD9PoMcYxVrUZZLI82XeUz5heOOaySDct/GcXK99LZHdnng567MHBOnjbrNj0ObPKZxbePmvmE4U3lc+aW/4T4zP/v5pnHABsd3KlygFDfvY90+fPfmjO9Pujhfc/9JPZM8ufuGPOY4/Ojg0/VbW+1OWcqtpwremz2JiqQmAPrzZmtedai8DcOX1GxczyOcaMcP5MPVnLjZmKrn3ZIFmcqnvSs8zkLvc+1Dcay2L7ZA7/3JdtfIP5H5etiNeIVcXuwnhqjnEczyIzKT+T4/gqa4tGEFrPYlN1XybH46sMRMmP17PE/MGfyfH6Ko250ThZ4tRmcrJ8P52b/MQ42XCq4pmcbN/CiH+hECwx+77J5PjSCHyepWbS+ExOjq8ylgwaJwfOyTmZnNy0P7lwtq3N5HTxLTSm0NW2bVcmJy+tLQvOrecyOV3TqLt4qs0KJ5PTzVd5tq6rYlBt1vfL5OSnY5AH53d/grogra0rnEk3ZXK6+yqvi4OtG5x7o5mcHr7KiH+gcfLh9J6fyblCnFJFtNrUrsvk9ExHtADO+q2ZnF6+yrLYGON0hzPprUxOb2lrdP259Fkmp0/anx5U1frsTM6VvoWBaMw4V8C5uyCT409noSccnz+TE/AtnJusNk4vOCMKMzl9le3rVW/LzOKiTE6/znpbZuZPzOT0T2PLghOYnMkZkI51NpyDt2dyBqaj48C5c1om5yohsPW2zEx+IJNzdbpCesO5viKTU5j2pw+cqZWZnEFuDHK7dHGcb3W256lYcqy399Elp9655B31wI1Hbrmy8qtPN3q7+27LMtkbfaYbjaxxkmVyTK4x+U7BUwzB7oONbVLakfby86lVM6lt1CBqBUp7LZ9dKmSVLAXQT2VIum9SaamIVC7sb2XvLSVbaVUClSolReFXoBVSBU9hUkDkupw0TzlVjrPIMYsds8QxSx1T7ZhljlnuYNCsdMxmwB90zLuO95BjDiPhMc96HJ+DL5qZXUzXjoHlTtWVZtJf28G60pgl+e507afvAz1XmavNUAd9fNOOV/9wFThmmHnWMQNMgdN3EVv9zXfMKFONmO/Ku4xTFvvPYHOpv8kjIpH6XhjGtlAnEfGPCXtqiyZfJozZiFFYnUTncRHmLKM9EF0fqi2a0MCF8aAlorHRyO8r8dbXtAaNmY3o1mBx/FLQWxabEoz4gyGt0djKkN0IRPegdSuM34bSR74ItdWNRFdW2BuI3h+KxvLDxjxnV29FcqclIv43QxXJLpI4jqgvXJFsw+x/h7zNpV/B+ZSPB6lkCGC54UD0dbi54ebSvwvhSG64tmhByJNInQpmEHUhTyB6Gm11IdSeRsMbRKclFIi+F/K21SX58iFf9gGvTXZe5ks7ap+zq7c4/lNLNJf+EIkzIS+NSyz/HYVXcfQ32sgLFcd3s5GHxM9CBDkvFE8tdjn1NRGUFbL208Y47J8IlsWibO4KAmixRInXertif6clEqk4kmuD2D9AaLYT62aOHNHG7wBzEc9OYTYQ8lQks8PRmKM4e8L1Nf8UbKu7AMJoEHOtEI0l0di/gi4+kbN7ISY0yJxWM8849TUFwO6q2liF9OaQJ+I/5O7U13zjEoHozyFqQnaHEjRWhtXYU8XxaWIVuDv1NUWkGwIMHaeKAIUeyYgw56ixiH8DgZjShNwGlx2NDbJsSyRSZ0MelYwIb8Q/FsTniUkplfZ1yJtITSUuWTg8l4DlholcDRv5bGyxK0X1L5Yojp9GK2XXVvc/EBdJZw4lcyzkjacKwonU65wvCMdTq9wN1bIkjKG4dSTif5R0nGZtLCGkB8ExoYHitisZrLVEIDofcG9PpDCnAXl/iRKPrqCFHvE/jYsjMf+LINEccpnojIAI48RTg+HVCMpgwjkND8ayMUwFfyt5/xw1jxDwvcK2HOSLabpNdgVKgyUC0cMcSQQpiJNYvsCRNiCNUNDOw7mHL1qxIiLi3w7yNpTu08ZJSvU4Xw4ThVbVfwNEOzg22ZU4L7dEIvUwR89o4xaQtvBlLIz9LvREagdYXF/Mr3k0ykWKQlWRzra87yTguCxWo/nTHuR4mHjvt0RFcgMVP0yTIYbHI+l9rWM6NsZbieL4RPeIMZOQaLcrAHuhfxKZ/Q5+IdFcOh5/xlMEWtHhEiOthLWiIzIrHVrNx/+nC6rTTiLi/yzkaS4dZgliPw4NhnIsIyo5UrmEMOejcr1dqYtNlqgt2gYsNjR72uryKcndoMkPM8B2K+VKwi5EPyeqmux/UMw3AfQ8556zK1FYaoni+IPoYJBF/Ldx9iOSOQ77zZJQuN/kyxCkdmkqfjvs6sri+GoUUdiqExG1RUPxiNIvi33EPH+Uz2bEL/3p5LftI0L9JAnbYDqijquvGYptWjAQvde6Fo2tsSue/dIS9TWqXdq4vuY9NrIIwlEU0+hlsRPgOM/nFL4zEyqSn1wmQKgC0uhPE/hhSMMZ1zcRttd0XITVp3Ysjh9lpT+NeQ99+0sqkgmCTAcjJr0NHaHQjFwHOttiuyxBjRHEvTp8lDB/jrsnUD9MeW/F8jRcbmWDFhOhbpBd2x6B6FEkWpDYD4AzbnYpNDbW2ZUjcy1RW3QnK01YW1QE9zjHBmCWNtXNor7Vaq24xD2ID8DaCDVyERIXyMedMBgGzaXzLHRZ0Wp4O+iatC8FEbr8Gbhd8SVN2AdCcXw4dtOEfUSI1Ul0HhdhHPNHakgNUBw/rsH/G0J6SGj2E4BjfEngyElt7OGLxtI2Vko8nlJbXMCjVXalgMstkUiFsH9WGwNx70MwaOXydgmNpxvYfFW3+V9yZDtfFuJzvd4E2yim50PeaOwQYqvh/h4/n1S8VFFT+ZxHtL+7Qc0yPE+zUaN79n3sGlLdRLwGl6B9M+ITGiL+arsicYMlymJfUuXvlmBlJeILCOAPg9zKmgY5SHDxx1M9IVrgfBd0O1U3d6O9CnNL7UpV1FnCmD24vDvI9fU2oWpF0dsA84fshlwlm0jeKqdegbiXTYVueoh83AP3SZkrAPMydn+LwhdUUc9geycKnwHhQXejIvkR4m8iQc3JiYjfS9+NwByNWBb7EbHTeFplV/x/1RLNpe9ikmaO+D9G4Rc45KbbFGtwD8FR24pDAEcHdkwXS3SyRJi92cZJpOZQGVMacM9Okob6mp5oPDERiIeRbynhTcV4ofngoumIbkqq+CphFvEDQDxDIGeqtfbgZjVe/RfePa0Q9QXrOjbCSBGI2qIHiMyLfFmGM5t0rW4E/M8JlR5+WxTmX4FuGxjeYeOXCtVhxHfxOUxm4qpq3Y0NLoea4ayOtGosv8K5C5j7B7ui7CFLJFIRNul1Y+R7C0f6sHkwRFetwKEPXOzudfw1ThldB9eALIfR+ANs5+liWwBmZeTv7UpGXrJExP8KCrtqmu4HUB4b/wbCbEl8jIRuof9A8WcK2ZdIfECkvyQ9e0M8+0WQHjnD6hLNpc/qefKeJQB9AP3TCWkjweupp8eryFaVFMfr8CY+AT/XoHJKQ0c2GQSmSiJBUvC8JTQD6Ue9ShogjnBpv01McjrCOAwnD6NtckeAaxW+d4G9Es5+NpYpn2+AZAk+7WRdpJbfhLIquOuQXKgU1CC+gI2lRG++NmbwJWY119c8LB2jES3Hdn90fF81kUcuJiCRx6dfx4a6dSSSdGtx/K9khepznTKneQ6ow/G1ifCcJIVTmggPIfp+E6B+RgonN6kueR01MR/jEBcbUXSJUeFt4m98fHCayPqoEI/qRnfKHW/E5SmA2N1YFitnndBIgh4XkaC7u3KWxwZJAjwE1xg4TwXZWe0SNI7LAlzYEhH/WnJW10i3Pg3cLxubSxfhVN8mRvDDoYrk2CZNzba6m5oANwoJ+eE6Zl7yqKH34DZlIQIcepXsECBV2/uWqK/R6LxeFZvDzT6CK1jP6IGS6M3zuzuf3kh9E7IbbXUncLWATXsZ5vBy2wp6ve2f1VA/BncFiH5hVw+zN5Pg4VJbpErapTwdsEQg2sInrko6R9Lf4tPOxvvS9jUQUzj8tcLsbkRjeRhvB3MvvTfOwR1AU+kFO0h/NrzDkaE4out1qMbVDZcJIuGGgtWYnVx27hOM64AOsYTCyH1XQl2kgmQP0W1E7o/uAEuPOTZWqRu18RpatzHAwKsjidQXODAKmMxYKVWLy4pW8DZZgvpkRaIsdhFzXxAwL29LdCjtUqrVWhEhs5JI47gIhsex1MJRkEqpC931xfXKDt1o7DVLuDOgUe3bArxLePYxMR6lFJ6D0DV0jsPYc4ktmJBEk9Ki146u0wNsfqIWfA1OO3rSf2UbM98Seq1YiYrk6PSRATDQoZ6UUnfFigiZdSXAoSMCJh0WqZQKuqxoNZtIl24hMudeR4qMfbtnEJ9qJg+3BDYmoN+hmNWMPOKNWUrUdQe6k5cmiluiufSQK6EXho7UFp21OrDzmSXgXIQw1L+PDkE0EL2CKtNfBIV2pTi/awljwiTckfbJKDpHWCaTcK4eEYA3YB17mRCLmI4lyx9gfDR4zyjqQ1DdTlX3tSv28izRXKrfCU5pQxE/Qvjaidhr+pOgnfNo1a8OrC7RXPorde4BNB3jyxt4YTO03R7UU14rEhrDarz7ySEOt9XdQg5PoXosiUn/CaKfeLTyQ4XsfeuRYJYzcorjGzFBQkRoMDDfDGlNE50sEZJO8XAZrUfoZLSnCf3kQvomg/ciBXA3epp1b/0NGy/Ta7OpiLqgxawrThWllRG2xhL89kI+X9C77AUc2ICJDSjdGGSyboYzYSIB3wQRf6Ot7nncezBBRNZApBIVyWq7omyGJQLRm9GRXYLEIJTsK4mn8ljvk/0Ufu8CYYpPrkrP9cYc54ZhJvFlgxxpAdFHKOvBh0rR07OtbgRlNw/PeIELjAjw/iPEX/B7xgpER2koP4no1dTRw/jcXVX2I1w0nL2deP1emSxFohGIpWxgTkRb3Y/J0VQ+ee4dyiYYFnH0WAN9sBrO4UaZ5XHaxEt3niUsMn4PahRUrl39CNUSLI5fR6hcZ2yKpYxc6p4qJRs91DdS76eoZ5ONQm3oJ5PhVOrrwWjsOvXeSURvpLjzURbSnx8TMXWDoqF6GkVn9QL3NWHevx7w9iMIHiR6hLk7PAQ8bU+EcfQ7iijUPALSHnosPcIpP5GaiwEg1NdUoW84vagn8HUK3VpEb8RQPRJAUOdZCNHYyxZCIrWFI0Cor3kRZf2A/yISQBDRaU+EfnzruEnohPTtGk/5ANBJpK+dToKga6Q46O0ktqiRxEoTtkzdP4U7ibQJVrfH9M6xZkRUJK/V67Ifvg2mLLpTJ30V1Sx0XsHhkySiiyrpn0mRRtsCFF1SN1bx26J9ZvZHRH/Fl5GrKxWONeTqaqbZGjauVX2ucf2TGRGCsMNSbO3ogLDDQtB73EKIxl6yEBR3C0E/MwiCXnYWglrcQtCIFoSK5ONsWAiLUCYIi9iwEBZdtifC9hgXg1v0IlSnFclyztnCDbExjQfTxaBKG3cnWUI9xvuutTEa+zVOLWgkMp/zJ8pg7s9cRt+UIMXbF+CtiF+DqXF6d4yG8wSm9PjEnIhA9AAf/cHO+GSaYa4HMfyQKFNBDBqG3jjiP4mVHhcQERaZul9Q7TgQds0HrdJuzP8C(/figma)--&gt;&quot;&gt;&lt;/span&gt;&lt;span style=&quot;&quot;&gt;[expired] displayPrompt(“Expired”)&lt;/span&gt;" style="text;html=1;align=center;verticalAlign=middle;resizable=0;points=[];autosize=1;strokeColor=none;fillColor=none;" vertex="1" parent="1">
          <mxGeometry x="260" y="590" width="210" height="30" as="geometry" />
        </mxCell>
        <mxCell id="kOkCrrmOxWz7fs_OmsVv-4" value="" style="endArrow=open;endFill=1;endSize=12;html=1;rounded=0;" edge="1" parent="1">
          <mxGeometry width="160" relative="1" as="geometry">
            <mxPoint x="455" y="660" as="sourcePoint" />
            <mxPoint x="275" y="660" as="targetPoint" />
            <Array as="points">
              <mxPoint x="455" y="660" />
            </Array>
          </mxGeometry>
        </mxCell>
        <mxCell id="kOkCrrmOxWz7fs_OmsVv-5" value="&lt;span data-buffer=&quot;&lt;!--(figma)ZmlnLWtpd2kZAAAAMDoAALWdeZhkS1XgI25m1tLVy9s3Hovsu2/nsZPLrcrszu3lzazqfuJLsipvdSWdlZnkzep+/cYFERERERFRERERERERERERERERERERERURERnGcRjHcRzHcZz5nYi4N29W92Pmn3nf9zpOnDhxYjvnxIkTkbf+VdfCKOqdDdsXJ6FSV51sVOrdoJ1vtRX/1Rslv1ss5+sbfkBWdwK/lcp7htqvl4AzQWWjnq8CZYP2maoPkDNAN/CF15KhNZy7walKs9vyq4281FyuN9qV9TPdoNzoVEvdTnOjlS9J/RUHdkuNuuRX43zLX2/5QRnUkaDo1/0u6Ga5e0/Hb50BuZZGtvxmVZBHS5X1ddJjxWrFr7e7hRatF/OB9O14qm8nG50W4/ClZyeCdsvP12wJ+Stc3o74yvz9g4hJOA2spAmd39lhMkFBVeo26qZhZTJbrUpbxqDr437Y3OtFIWRFitqmJYhqjU0D6q3BqD8YnW0dDIWm3qjf67caFKhGyZQLB7taj6DQB6VKjWKnxqgAdTFf38wHQN5Gq9FpAmTWW/ma0GULjUbVz9e7jabfyrcrjTrI3KZfbDdaQEsyTtLlasWwXfGr1UozEHC1BRHLbtb1SMvf6FTzrW6zUT2zYZis0VS95JeY7jnd0bZ/Wrp0LKhWioI4HpypFRoiIycqdRqrGyyzWimekqm6Mijnm353q9Iud13dq4qNeh2epoNXF0UeC9VG8RS5a7YqpQ0jW9fCqyYjva7mlyp5gOvLlY1ylf+l+IYABnawNzqwy2S3qnlp9KatfFCudNu0TO4hm/lWJV8w/b+57YCHGqBbZD7IPSwmcZL98GCvNwm3BrO9dnj/zK7MTcE9nXzLp1RRyU2ipm+1hpEdrw0LmSbEnWwmyZYaW9LP7OXmM9fMt/LVKnqDaNe6LTe8pUV01V8X7LJf3+iW8vQ8bxpfkTwa0pHMqmTWK4brEQM3qiVfpnitjdb49zYq0sujzZZf8teRhlK32WoU/UDk6hjT5Vel/Hgsd92g4vp4IkHVOtV2pWmQV9Ty9U6+2q3Umx3p25Vl/3TeCs5VxbK/2TLg1U2qOfQ1DYZtQVlc6dl1zWpHmr8+32o1tuJh3mBz8VzcWBiGo34NDRF++SDotstM5YbYClVvtGrGQulSvnXKF+ae66UIQkbEHqkuYADIZouNaiPJ5YwwmTpLAXprIKMo1Cg1EETyK7ZKnF2dC9mRoLHe7hoe5NbK+VYpyRnL5Ld8qw3H/NNFBoqMkjleNst1Isi3O4nCXmFaAbiy2qlV6o2g0pYmrmr2BiMnfitBo2pWUCESpQrzSmvSVTA6QUlq5gNLASgoRE00G1wmwUHkpDZbqeXNyHJYq5MVgKXNSskX47Rc2WcTCXZ6w9DOPrtAy28XzcSvV2ScGoEzrbWt4GX83d1wx/U4W0HNW+wBeTSAQlVqNZrzrF5vYHRYyXoJ/e9IB71CvnhqEZURBSwa27rUQCQqGHLQqtPE3pHqamPLAHShbfsQIBHVbjHfFNHKznNoRKto7HFOmJbCnfG0NxuMR9SJrS4ts77MK7BmuJVT/lzavGrYEzPeng72ycV14N0t+27ldf1gfzucdkaDWQTfVl6GqpqV0341AND0mp1MKL3ieBTNpvMVXmblwSspN0PStbxsRB79cNOeCYrsYwDZdTiWurZGzmUM9VIwm47Phfnh4OyICgkzhXlmYQF0o9N2oGeJi70JEhmPh+Ea0dCJwfOsRsq8yCAyNuvf06lU2eywVCCzTqbEBtmtNsf0IXxYwAS1lLbhy3Mr3b2V/Eoqfxv51VT+dvJHUvk7yK+l8neSP5rK30X+WLHSKqZbP25He3I8kJmpsXu3wKqCv+nLCHQ8cK8wHg/D3qgxCWMByXbqVlOZRqrJlgOsg04B42pg77RRYCOvZvLL4+nggfFo1htS3Zm21Noiy2YWvJMdNsv1iunhvPZmOJ0NUD3BNZoUpaoWGu12owbk1cYHUVg8mEbjKfODXc9j+yhQxVYjQNMqLWDtn/FF9RA9ch6unmmqmWco2MIiIk4+i6kmyZEUK1WgpZpYVKmyzBLjJQKtJOtnsqubKPt4WhtMp9KBRIvMqpNqA2CBsIxsSW0RYa/Ui/asPfGKbKOg1FzAtbE5Vh+yzfoGKHWy6Uuqg01JvGZJfL6Mf/9kPJ0d1qEMvgUmnd3LKYqKEXgWpn0dIxKV9aq9i+OD2cZ00LdMslatUjM+76BntSwzr9PszWbhdEQRVJWm0RBstLHV2qznwWzcCqPBA7BOpsh0x8xM0g+dQJ5Ua08PRjtO/LxSJRD3RHgqXFW2ZgAdzC4OwyB0Y2fpWkHD2cc2Ti2JLiJdVlbwr/EV6kXZWDJtv9ZstPLGt87GbJjMWZjM5CX7DaCOdwsMR2/nnF3GZExlDPS9zK7pgWajxAk0sKU2ck1zl8yunVKvgJCJiQHOmArF8QEdmrp6Sw9Wj2l3i5PJd9qyc2VTrHKG1cmDaDbYvUjRg3Jp5ot+F1NgXXzbg8AumrGvIHHpg8q9frfdwKiY+VhAIGOsaaXWxDcmJyXQ2ME3x9FA1pLtA5Trp8oXmOWOPUUYsq2pmGK2Fk4X+SZo5VJbnJ4Rt1pQx9zsEAp+e8v6MhqSERpKs3ZNV+KVQvN9ORJ15TRIXndaZp0K7L+kmWK1YTzMLO5wN/aNyec6TfxPv2t88m6rU29XzClkCaUqVcSZMeu9XKFr016q5eP452i74a7y67TelarsROR1rcEpFFcS2LOwLchQqyweF3DWFuA7CFnO5oynvQQVXq1xZDl4mhGulFr5DdJVyk75Z+JqR8huNuzJZQ3YjqNs1vJokkfByB9rT3sju2h2DDexg+K4t7uYfPZSGS1kCtVkETd9QL3OUZbU43TEqWa91Uh890wKFZv+bApnjXwuhUms/FKzE5QtzjFbnmNiXitzlGW1OkcknI7IgdTiHKe1OSbmdHSOspyOzREJp+O2oywTRDGzEwvImN8VC1jL8soFXML1KtOSwzqmV6dxMc9r0kjL8to0KuF4HfaqUuxKGbnrcQaJB+TrmDGjdDfg9zdwD+eYG/1ehI7aFT9OCKHYKVSKFChhHWc0Pnoq64mtsS42NUSJkqKs0C1gcrbuAm7Jmukkvxw0W9bGr2xgqNhDE8SqI00QRyxkVABttfK/tohsb4mBOHoIWebMA/pYsDMdD4elwdTaCjrttOjrWHRm2FhcWxdDMxN9D/uYqVlIuX+6yeZmrWYRDuIlmZze6LCtaC8irEJjwMtKD8e4Ogb0iuMhvoTOTtWq0mf5x9vmn0yPf7LW3aDy/eT0Rf7xWqCgniMu8E9mj3+yhlMwG0+osCOweoHSE2eHIfBqvdl0cL/SS/u33EJe799yK4m3f8ttJJn9WwWZ3b9VkLn9WwW51OxNsbmVUT+knnf2YNBX96WYrinP+v8Unu8ND0Lq6ANzFrhZeevMUr23Hyqd2e3tD4YXodeRbL4AHkxm0c50MJmRywjtZm866FHlYD+cDnbWB2cPpkwt26078yrEjvUE0Jz1TWQO2DSzWDWY9HYQ6oW6HP7xAMSImbwmquCOiZdhsC6LKwNMc8BUcpw3MA4S4mzWN1272JtECPO8CvpnzouapBtnvKbP2U26ngHRTXLicxPNEzAHisFuAC6l+DfjeU93C5+cf3HNcYcATH8CM8ksTkJVQaaNqmm8fGPg18PezEzw3+gmRzqKVPG2piFxvfCKzUDwGekNqekgac5F85YImYhvutxoleqkK/n1lpSvlurGGB2pd2rSpTU8aIloHWVHlCEdK9n0uLjWpCc4gUp6RT5vvPkriza9iuOMpFcHNn9Na9MEMq4VxSS9LtgyEdTri8GWpDewOIK/sVg0obSbAusmPaRcMTHSm52H8tBGqy79e5hMCunD2d9kKR9RaptD6zesV/MyjkfWNlqygT8qQNZIH83xQNp/zDreLOljyzZ9XNm2+/i2zT/hHps+sWnTJ8mRh/TJ1fWC5J/SaJr0qa22Sb+xaevf0jxVl3m6tYr5IL2NVPp5e6tdlfwdpJK/M19obZLelS9sSv5ppNLvuzctn6dv0iHSZxSqW7I+zyQVumeRCt2z86fKMo7nFE+ao9xzi+tGEZ5XbJp8vthpCV2BrV7yRYybpKV1y98nnCb9WSe9jXSD9HbSMs1KexVS4X+ybMdDaxvSn2q5cVLkBpfUeCD1Co4EaeNk82l3kzZPNu8WPvecbD79FtLWyeYtd5AG1ZM1qdcmair0HXY1WZdNcV9It0ilH6drp2qCP1OvGsfr3nrnVJv0m9gApF/PJw1Iv3mTCSe9rxm0Bd8lFfwLWqdaku+1mmVJt1udgqz7ToCLS9pv236E7bo5bOyyTLJ+ZzeJbZHubdrywaYd9ws3Txl5ObfZardIh6S3ke4HAZZXqRGp5Mekt5NOSO8gfRHpnaRT0rtII9Knkc5IZZ4OSJ9Oej4IsNlKXSAVfveTCr+LpMLvAVLh9+9Ihd+3kAq/byUVft9GKvy+nVT4vVgHwW3C8Dt0cdP08CUCCMvvFEB4vlQAYfpdAgjXlwkgbL9bAOH7cgGE8fcIIJxfAWC6+r0CCOdXCiCcv08A4fwqAYTz9wsgnF8tgHD+AQGE82sEEM4/KIBwfi2A6fMPCSCcXyeAcP5hAYTzjwggnH9UAOH8egGE848JIJzfIIBw/nEBhPMbAW4Xzj8hgHB+kwDC+ScFEM5vFkA4/5QAwvktAgjnnxZAOL9VAOH8MwII57cB3CGcf1YA4fx2AYTzzwkgnN8hgHD+eQGE8zsFEM6/IIBwfpcAwvkXBRDO7wa4Uzj/kgDC+T0CCOdfFkA4v1cA4fwrAgjn9wkgnH9VAOH8fgGE868JIJw/AHCXcP51AYTzBwUQzr8hgHD+kADC+TcFEM4fFkA4/5YAwvkjAgjn3xZAOH8U4GnC+XcEEM4fE0A4/64AwvnjAgjn3xNAOH9CAOH8+wII508KIJz/QADh/CmAu4XzHwognD8tgHD+IwGE82cEEM5/LIBw/qwAwvlPBBDOnxNAOP+pAML5zwCMifpzAYTz5wUQzn8hgHD+ggDC+S8FEM5fFEA4/5UAwvlLAgjnvxZAOH9ZHw704FrN2K7VHUrHLpYnPmWtN5mIk6O93el4X9yy2Zh/vcJwvK203r44CyOV0TbCpLwMF3Z7kh+JR4b/1e/NeoZ2WWU2B/1wrDwvpolu70yHQrQ+GHKyLYo3me+/kKCC0isz6RR+XrTX648vRIDe3uDsHmf0Pfw+PMl+OOsNhkDZkLFE4mTgUZ7nDB8SOgJemoX7JtZoi5bPD7Y5e+4IvGKuAGyz7lpXeUf+/za5g8c07TG2VbW6PRWeI1omd8R0RnnXmQW4QukdmQj1AuWNxcOciQOeOT+IBtt4W1plSdzNzXGVi/DEI7Wrl+A9inbH0321p5YHZjVeqtWKgdp7uM8j6Tqo1d4IJIeKihQJ5gqLweXDI2XZltWV5NOXFFepIxazNz4Y9ovSv1pvBIL+XDcdczqhMt1ci6QKwNFdM7eG0i3py7U6NpGRrpsirLU6Hu6PXzgo0kKT6DFzvKxPnDdC8jKtriLSe3Yw4gQjLW8N+jMGpq5ewJZDmUfQ1+xISziw6vMZda04pzXWqoTwKS93LryoRkrvgq0ORnElVlcwpcHZkN5lOD2Qsy7tAyormS1LmOMqgBzMB3acXqbHhXa7d5aGtYB1mTXkONYcE3C2jV+1s9cTNz+cRlDoJGcaqpRkyF4kcON8OCXuGbZ7rK96laczQxMMNcGybVad25ohvY/YaHTu7PDiZC9ih9FL/eTGJWJ/0cvbHPvOvehgLIr5Rq2vsGw26QAk9Hhll8Eks/MqrVd3e8PhNnGwdQoiNdJH9hDEKY2dK4zvh8trtV4jB/RVTx+dJRFUTqVTd2rLqWMOH/aT+T0+HJ+VaLshaY+L8dgbu7tROMOyqFV9Yn8Qx9ySelfuk4O/bf11Wl9VTnVIedltAnb9SPU5BVoD4o6Mmb2YDo84R3Ar4bNQKZr3m6MxyhTDmUG02RvCCi0ruPlW3gqqbg9EWLwLRg6RHSk7A5ARIOl6VnL5aIeGyS1jGcbTsJq64MIQ7A6m0SyZDJrN0YV0fmlDVld5yzvj/f0enS5YAzo/EW8rKzQMk17vMn9GTGj/Uua9/nlngpYuVbflUiI9GOYpx35mCMucMBdD78QJuT/v7k8KKBqzZNC13pRlcXOb7paNKxgpk5qSqYezC2PI3XiYnH3m+wECHPyTjOpSVZCdiBsB5kTLUkfqPq2Di/vb46FjH5kM7bJBWThmEgkDj2iB2MaAvofrTA32laWL2SKKZpPzPNYeDhNweF2cbJmrjXAkFp0Zcm2N05z1QRSus+YbsosyjosjExPQ7HyD3d3GaHixxayf7w0NdabEuf+8mN79g5mMzhhcy9db5EvGKayXj1CXVrgLjZgyzEhciOgHGF9aHx9MKkx/rAm6F9d5hxYaZrXy4MVmwioPWm4sH51lev8vFEE4e3CiAKmUGZLGwIXEfBBLb3V3MAxP2XFFphAWeBhujOUezgKhG2HZZF3cWkV4vDobux+54YCNdnpRFrQ9Dg62JeSzDZkg1IuxkqjSZDxCLW1Lywej3aFcMcnVQZrlyiDqxEUhIq5WbbeLcf1aL0Kx7JJldmKs5aonB9vDQbQHM2lYutset8PefnXePWnEO9xIpoIfJlraYNQiA8FMhj2XNWHV2A0u0FOkxxGLiOIsLHRhUYouz3fztv8nzih+bxikViSuYlnbRwmYR+O2XCM9YQs2boux76hzZorhOxAfJzv3X3Ikif+yFE2mYa8PxXK0N77AXON5FUJmsC+6B/lKWxwbY/Yqo11xH017m0r3D6xaUtlr4oSMpaAUnh/sxFedccBVTuTmOlYXiZGYqJFncMRgJVZHHs2Uiq3Yl0H3XeVicatrvHB9qBH2FMlw2EBwnf1iNAy90mc9BrsDDDCSSy3L86NsKw3mkB256Sx5WxioleTeTBF2j2P0WuCkxJNcHKnPEChmHDFl1mUT4pxDxPTcOtc7Jhqx7DpQYL8/i9WQzQ95xiTSG1pJRi13VYS97f2S3AC4xw36EgZ2DElNoi2VUjd+enMpeR5BY3sSKfO87QRtuHySqZyjirFA1Xv42GYODZXK1fObBPtMPFNxCeHeDulgy0QYPUnlLaIhyLjbCHObl/Vx3OXcA2eWU0wPFPFTLAhU0NowkU6iUk3Ydpu3dzfvAOHZmgGePuodcVyIDnZ3CXSj9gPxRU3X0KwdHLGZ7AYz9W0qE50/K7bCeIgsP1nOVCLZn0MTyDUOZuIyiMNIOWaK1WBrlo2D/DIU6+PpDnorbyywPeci0CtsOvntaDw8mIVu68VQ7aQH9Rmtjrgeb264JpVXWe/Wfd9dIOSrW/kzAYCuGhdRrt0xxzMZx13Ybhxb5WGHE83NjA72A3SedYgU7pXTc45AkcUGogX4GWcPsGxTl8OLoV8s48pEDB53+ner1Q2sOetvHGka0QmreOvINLFLEFzAEjDf5o3nisLGLHhE1l/AOuFuBAK2pfMSG7eyKI9USAiktxqnBOO515IZf33dvjbJEnZstATKuecFS1ghLL7hl9qnbFvWysYbsNuc4q1NCFgjBilrTu8jwbgqEWsRqz15T5bJFrnrHswecs5UgTAiK2vDELgl726VfVSxXKmWuo31ri0mcs/9oX2wyghR0zOuRCp6+elO0gv8XSYxPzrLLHLAxf6mst6A++xpKzbVGWvyq3jR1D2YDuih7g+iybB30Yjxmvg2Jmuklv43hwecyVxrE5NhJqmG38OBiArn7ECbpqwVDnucFfZshezEIG2FfY7E6BIgemSWGhC3vBQOQ44WCGG2djCcDaT1cLo+CIf9TbsULNAOqsDcIww6fQ/G5RcDFJ+v1pOTeko+3B2/WFoSz5nTjLWeQNnYgOYS07qUcPNH/Yn40Yw5dKDsWbSJ5zOJV3qbqy/b7D+gQUllAFR62JRadD1FbhWPapBYWpnmAEjKuV+rlEpcXXIfi4UzgkuoO0bZS/b4iYKtWhvYztFMBFK4/DN2dq5yCTVrjqVBZGnGrxYaW9ZQoD15Nw/aeTK18fnQbcfjYf+UWV3cZkR/PRFrL0VbHhComF6sEB+hSjQ+wKaZyerLZNl88ZAnwy4bDscc6EReWHx6dw5xGSXVdudNDSlzwikHsnMdcy7Mbg36Z0O0jtEjFx4Hjriu3x9wBJQBZGcDpG7W259UovHddxGRZigY2CmEwplBCXHYz0ugIbODvxJnslLAJBuj45V8ednPJKmtMndthUa+JdOnsQjnLEkmX22WJWYv197orw+kzdtU98LbC1gHFijAY0AZ2fmcoBY6qD6pedPO8W6Ejnhfio2lORTZeMSdk71eFKol5RnAIu+aYJ7iC9YXqkwqawmeNpP+HVHGobGou0d2OnOSWtTTB1HTOrji66OL79Q4g3jaE+kztB/0hvMlN7P7b1q9OI10cgBS/6gzCr9hDStqs6xudaBtLxxEwXh35nQ/kCIafZcm4DIedSZ91sF15BfBrQ+Gw5jmx8nbLTPG/KSOBGozPvVFTSTdZEsL3f+N2KwD/5xmlJex6V/WnGVSRfMN4kuaKPohI/8hb/xCvNfgAClmaaehsRDGbAmnP0Uhz9fG49FwQGRqeDFu4fOY5D1OihIqs2Nidu4jmuPQqaGZgjfHBaLuc/TPxGjnCCQFb0sKjA8/L/jZuEB8gTn67TE61R/cEtsNyn9VRwbZBykkrJH6hFtWwVnCuOT3UyXSYcF9MoWznRLsH6Sw0iPBfSrlMzZ7KHbELY/+TX3ZHhYSUnr5YSMUCM0GmInSBMijJIvfxBrNLm7KjtWY9hEE9WVPfy1ea7Mnzhf7fVo9ADeDXdSJfweUVEifLL8lXbAJfysi32bRifFLydr7NbG+yNAvCuqr9UF8fIR7upG3EOXElHYepPjL8QmVaRLl/mycN8v8J+Je2V6cMqr5OWaseBuD+tOYLky22zWuJ2wstrhY6V/nXGRSS+FupD7q6VewPafQTGWEeujv9dwAZcBv0epF86w1ArIUEjIJErycPr8VWyJnUQ5atsAM4PsXm87jA5wd7ZOL1Ec8/UpOZwTL89OwcLDNYok38YvJoTaQkzEXUPqf9QKKw/IHtf4XY2KNT/pmrcZxxnZxEleoyo6lcuo3TWTZ+b/XxrAlrmB8e2envcme2F925VV13SGUJTyZYOOHJqvq+sM4S3pqhhrluadIP49+vHrEZdC2Qjsp2UToJaKnnqi+4RKkJe4Ivshmoq5Tj4xhW7Qp2VQI8Qb1qEWMJdtiS45jpHRsnrPFz5cZqrPNEKV/Qgzbom827GTRX6PVE+OMLbtPSE3kacSBbn9/PKrKKfGAIzgr++0Lpez/988Oeni1c4oXoysJSWmAgoXSZXaqNNV3pKns9iVTkyZ5SZoE2yHXE6C/M40O8CPQnnvD6Ziil6aL6u41kH2JNOHO+9JCt9xqys3IpaVEEY3boGZcj6eKi/JS6Dw3Lylcsjvdz8U5GyvGJmY+5DrZUCYq/nEoeozHxq5vUh/m7m6Eyp9t4r8zn4aRVn8Yo6vMD/k/wuW9v8oqyzHxL9nkTO9QJ3FqXumpL3qyHB18rKo5ecYNLnPzOhuf5VjSb4wa7XU8LaYkUt+ifz/BE1RNF3xSJzF/9ZIMt6Ci7sLrpRn1GaOGZtyCirCb+qWm6cKgP5g3+sMG17b3F4J6lvoRRhSVe/1Wu9qmjDG9JXUQXnKglcNnECg7Z6zJsoUs+pnz27sVB9qCZ1EzCYCtJhlb+OwIS4H3vyapRT2XaEJytcf1i8vYwuf1kStMEcs44jrlWCprCfL7uJ/07QpJLaokYCVq2NADZVctICzRuuCMu/QKT/16atNt2LEwrKsvQdqqG2h/+kTJ5dw8b0nKkXEJ3A3bqropnbckdYsyBkk9Qj00lbUE91gMQq4eqR6WZGxhy+bNr1IerR4+z9niYBc/Ye4+PHaeteX32goWJRSPSyMszTeFxlFhG9P6SQ62Jd35xBRd8OO2QyhLuCvtboTj/XCGU/wFrW9PIyzNWdtyjBSqOxZRlm5Pbm9QQ8RyPKmGu1i9+awzxT+g0wQtmehDFK+ZUxTGs9l4/zJcfvAwzeUYvXZONC8ZyOY2QdhRUGTuhw7TtMfs4pTOSV6nZcPGc0UnI2w4o2b6jab9sJzQ8tuHQmAv8bbH4i8wvrLxDcD9hMPZ3iboNzm0DDFB/qRDmjEl2Dc7LIuL042gi8q81SFpygotw/4Zh7NNJei3ObQ0lSB/1iFNUwn27Q4bmPW16GhxUn7O22MHspt5Micz9TB18+XwVjSakfzMQYyMKihMtMvYwheavIwLA04fzqXzlmRoUM1eX7YCSPbTeUtCg6CKrASmxyipWlf3G+TJA/srkbK6aPK2tKQ+pU22nHTbMaSBP7RFmGjjh8wLPm0LONfjiZ1Uf2Sz1pkg/xmbb7JbsY0Hgwek1kn1Nwto036FSEREl75ii9Idt0Ul9e9d0d5g2HdVN6ZjeQn9VVviumWWEOx/WMBaIQD9txZt2Bj+QTjcZXL+zuLj/Zgqqqq+jxMPyBaO5DQK75Wlv59F/36LNr9jqavfsjnXZ7dStPQRj8t0Bh2qr2TUb8seHGc+ulDD9AIZ4XwwU031J1xHBSNke6O3jy71pqJgn/MQIHfvImdW419/ryikvQIJJKaYFLxyXlCgnbNzO4fp+z49Z2WCAh/W6kdTuDa1uM95fQpVml/t/JgOe8lvB06rN6SomrgA4fR8GJjwKZ3+Zfx/E8qi0NC31HtTKPk5zpr6lXlfiTDJPc7HNOc5lCW+BmlTpNrq11JNtYkRjQ9klT+Qpqz1yPC/sUm/rsnEJakRfFCiJMRfTZ5dlqUd9iS6/6FUA4F5WRMgZLO8eY0jRuYP5l2tzFlH6h88/aV5kVkKZsiEudS/eup/aBtSFVcZMdOfcHmJo+Hj2Ljr17T+83hu5IQOD/WPmiBlgvM5NYP5r3NMlZGawzWHPIoSvKnN1ss+/N/mWOpb3D/NcUWkjsUyXY0o0P9rXiaOVhKr/Bet/rfmaHzoewFH1X+x2A4r79R+Vf13ZtgcEi9zr/52TRDqQYs3UTOmVP29Vp/2Rojzodv+t2mKdsBz4bBzrsp2dSDh6S946ju9IT4nInh+EF4wtK/IqNd5pnPOlcRB1er1sftbZOgoXJTsKz+GR9kPx02EYRulUa/21DtET/cnht3LM+rnvQsmgCmvCjgB4z+HeKbqB1Loov2Z6rJ6jUOW7FC5A59Nw/hXrK/z1A+68mJvh3NIHoYRc65e6qnXupLKaHIwSy4hPuOpH3cFsjMTckd33ugw5fF5DI+RhNd66qcwIFsGH2Cuz8kEM7yfdrS1cNbry4A+66mXOZx/XmaCKdff7TBNdnqs/cVaODqwBvjznv4ez6xWa3whtpJEMTz1HovGvhzsjxZKftmWUMHKRsSOqt5rkZZ8S3YOg/4VgmzoFGc1f3Swvy7yx+Hli576n1aPKSjR7bjgS576DkIYGFAm+4gB7M73nJ75JeoIiWLUx+c5W1yQtbUG0R9JP8RUnLgEaYmLoYnUxaLSsLeAV16KteR+hOJVUJ+pediCJtywiLFk1f0B46kOSCC5kcTlbHFtJtqFcTmHEYHgIem8JWlsIwILv91+rHr0YZwlPY1kIAVpJwTn5DGXYi35GU6OfSKs5sfOtKeeqp58CGUJX2AnIeDECi4idKWfsoiydOgIUQyzCJHsfs9QT13EWLJttA6DLlHFiEiW/sZU3lLs2CdLIgPqTVrdMs/a8v6uGJEapyRiB2YNlVbRJUhLjC6atsfrrIFWcniNs5bgvB1LgVm3chHXh/qChJswJp/X+hWamTOyKVJA2at0ZHa/+e/M7lU/gcUSjzrYH49ne0wNi/omR8f5OeLWZ1u9VdsW2zI5EZfEAsDwFxwhC8U67ZjAO3Oqnq/eDdsER+9h8kvcwdxP8FJ8m2k4Kg3Eosmjh/c4Lok5+YomnNlzV5Jf1eq3Yptsw3eCrpoV2HQWOac+okfUJcxC1hj/T2v12yY4Nzz0gOLjWn00LpBNbgbjmIBe/k5cNp/diswiIxGCT2g8gEso8vNnCp/S6ncNAcJhLpzuU39s5qLHfjgluC/z6O4fxG/Ps/GZBRD7/3nr5hXhSZPMm6zHSfUXcwZyPSAcHoTBF/S58CLxl7NnmdkXZ7i9OD/Ga/HFhDb3psTimO+/1tJTsegc/vcK4e54indDeEcGeJ/+jy6MXGXLivBI9X/SM5ZbwjUy8+ornvrPLAgd3WsQZEZP6Si75Bi7SOwKmI58FzteNJu7my/3wv3tsG8YvCxDVJZI1F4t7A/sy9JPZNjREArWWVaZ7jlJYgf7IS8a7E+GnAriF0fN3igcynDf4O3N9k3k8R8z6p2eBG9a2Bn11Yz6Ba+3wyBN6KXa2ybUuqbe5Z0XEjCm0c9n1LsTTBFbc7DPeMRRm8BZ/VJSJuefwsWA7YmSN3vqA0mJ4CiM1Bcy+n1pLJ7ue7X61QTVCjl+IsFGBD+VUe9PSqQr5iIhUl/MqF9L8G3WdlTHQNDxLyTYYGc8gfLLGf1XHs7FqN+LZVf69k5P/Y5DxzupoN/jqY/h7hMLFsKAieXk/bcZ9bvsxalLMyb04x5LwuaO4/0yT/0eexhuOdvtrlwB/H1G/bFnF57lMTJS6aPpbNY7otQtG/6bW5d/yqg/Y1UN1p5O1tSfe/3xDpFIAo5p3v+QUX8Bb0LijC99iRtxUNdf8jbRprn342V6mOgJWfqs9+lzrzqWX5lyf84ZX0aSqQk2bzuiVuV5DleiqpnvBHJJyi3+hnwYQ/DdGOnV7IcAMp26g7KOTLLdBJszn1pbb7S27K3tkskX8sVTDrFsEOa5wApOBC5Lygnylhgxx9QB2zOHIY3Oix7PEemn/L2puQqzhcgVI8uCC1JVLDY3iBq2ms0v2XZLznAueHhcqotmcMCQe1SMizE3gF7qvYQIjqdZp+kAgXu9p/VioU/JRVhhcFjW+euNTSepJSd8cx5vhMehUp8imGTEm7Y3nfTnfIpGlDQRfkvxJk9lNhcw6uZaJQgq5sepqthoyTePWvlSpROQ1/Ihr42WfLVOvs5gqbw5slIv+eY1VyYwD3+6W/E3QLJBmyVN1cpZRDNfks9/xA/q5ANvKax9HrK8iIyfhqwsopO3I6ublaBSqIpwHZFXR+YbY2TWtrjflh+MHk2+THIs+XiZNGU60T085uOLNKb1S4hOzIlsPy7P64pLyC7P7spCo1UCIQ0mU3iVQ7qaCf5qhzctJthrHNY2kKCvNZ+/qLe78oNpv9Wu+NLedXYqi42OPLZJrdL1tUq9G8/bDbX86SRzo5QkE3mTFCW5h8QiJfY8MfZz4X1LSnjTJD7lSHAio2DRKmx/IsZCDeo+5bUly3kDy8fpIm245+28jXYelM6HSBob9GE3fzaE1i1WkU0Y8hTbd1zC1tH4EMxZRiAxO17e7CFN1wBkKVbvgtUl5T6FczYTVyA9s6QVjmlm75NnKuZtqIq/OOiYpTeseWPvTRpLlfsUzhsTpHqfF7cU02FnRz2ze+qZNPxuKDjvYBPr8YJkZkRqOAGx273fU9nz4xmhEzIf8FRu/yAa7JjcBz21ZFm3E3JPzwSuhqOzxBaxWZZgM+bg4XfN8CkwrPPSWsISAzxmSyxJ5yI6NWvDrRZB6nE5Ob+U5uJbebkR/bWGDlb9cJd6CNMD4/3tQbjufo5Tt0PN7KSr15OKH2Z46YdxueLl6VR2bohU2hBpeTnbqpSwld3AfG+ySzdYzUq97Lcq7a68nuwG8gEEW5BZaGF+u87Y4yGgIbJnfIyFWSAuyahX7OKO7Lg4fiNQveFmXCPDPja/nlxTWS6759UrUjdnlv3jrF565MuTqTzMwM00vCL1CU+tLDRv8OxJcmS1MMosHrDNvEbbd6c2hxAtVG5Lm/LG2vyM3EwhiY5fODNdmK160e/Ks2MQi7Wbh/qGnKAGo7Muu6b1wLnA8gbfYT/paa+SQi8ygcdM+vQpT8nZgKn6OsRtoWQ1GrVmo253RUV/8X3kk4DSX23dCl8OFGyI9htA7tM+yjz/JtUy7K5fQizsG0Mv38ZYl/0SEgKJfMoo6Nov3koxO28HUy4tddJ49yRvMdakMu57TKrd6tSL+bYPqM0XJ90rOc9WmxuChWemFt7kvITkGJSLKtWtqGW2TE6WgzBEEmOyU7OcL7rfAKjAFx/CfkJ1vr7ylTc3HRmD7AZ+lQ3UlDpvEihHV2WmnJeWboyIP+7zeCpnK0Tbwxs0AF2fIZF4YIBuiOl60knUZuJQbjTpOgMozDA+h/4MdgzPrOVOWMPTucg0zb25wVGK5rTtVTo6sMyl4S5ItIXtbyHEqa5on2n6QbFVMV9lUMWmLJB2HyvwioFs2JmT+c18QpMtt2uiIrmTgZnPJeON3SOo5eaZdtkgVzbEhV4NDPpIsFUxDtfaqYY8iAQ62uoEgjlWyJvPbhzHnZcPaxmlO1ERr5boh58K2WHI7NvIuLCEhMSFWHUSYwnzxBTkg18P+uKLhZk4JHNiTZloqNfGUlQ5+wpj5WWHgEgZ3LYPhhghswB/i8kbcCDiUC8zHT8FkteoYf2Ag/KUXNZyGlk/2FsZApraf4cqX6a2148PXr0hxwD1NVZ5ESVjRm3/ns2gP74w4jwo75Y4k2AvcyqHRET0NhztXJxjl2QATMR05qJBObUs7yenkelbY7dKOdKxUpgPT2WNH2d0WHXq84xOnG28gG7VfssjI3xsvZxZP3DK1YlpdMIlxnjGfbin0zD6nyn7eYqBsqWFIUNYNV+6UC3zwRi9WOxmBJtYs5+Mg0T5pxN4/jMeoYyDQF5uIBuMZuKp/I8spi2I1L94evEBesQa4WbJz5/3IXZmh0nMJZx9w8VbHsxbaIPmUolVTlALt0cIT1KQujzKYODb8+APDs0lsZ8cMTlWWSqIz0EMjXpL+3JWLhNeBEV+OenbpvNh28ZxQkEY+HvYDovjEXECmPSGedML2at6DmISOFM6AnOAS/jlDYnybpp3Q5wPFITpnOPakHLL580x6VEu3PFl5zTSezug1Cgve1cmP52ReyTKDZuW/PAkxtibvxU5sHPWNaEIjtCJr7GtVi8NNR6ZN8iOynVT6qJxzfZ3nWseKVer+iiKPe1ZAqdV2+rYzMxxPONmSo4v4jbFyKhPZ9QJs2BuMl/jqStg55pv0frMRkviHnMpgKEadabDyqgeXuAYAOqqRdbqnzx19SLKmB1W7xrTWHBuMGmPZYqZ32sTVOFift94uavqOqbQrjnR54y+PsnOZeSfPX3Doa7aWUj19cZDBJVY1M+Hia8ksb+bEqEK6LcE9ZvmMpBggtv6iMul3sHOfzbBHu+0pMSF3E6I3Tnln4mf4GOwTtXZwTlZ1gkIVKvGrOjThcbpLk4RsNcM7iDJsB+1i2U5lZLLnprrngmKyC4ZqZxGrA3WtfVvWIsynbav0DzvwPz4wLwYZcG9GqOTPnpZk9f7Nh/25Q6z0ofUS1CFiwkys0sQ7ZRx77I++4cNtHpHHfdoutMxkDcbzFhsKszizzzYguwFuetiFXN75jIMaCkURm36SvlyQl/Zx5aVe5H8lmllF01gndO41cl0fB75k8j+Ee5kzg4QANnKyK8xJaklOcrKuQtML3MQj0WOTqxm4EJUgsINhnBxxFXmD11LblS9lQMzEh0PUfbnuCOZxYazlx1N7jKjWVqk3HKzdHg64jlb2aQ7Ep9nAXd6o/O9SELgoXt0hOmecAUydN1GiD2TL4Ui8CbeZyttWGnI1uTjwsLKxu2erLQtN0yr452eGc+28lLogM0HbbFfMugf5lgccumqtBydOUxOjMZQPzikheZ6G3p3M5MYKa/NgiLM+IjWPCptfhwM5FrQe+NZNBnPXNaLOGQ4ONa6pLJdt9zY5hzV12PAilqVr8RGYTxyZVlXrYCJnHBmmlX68vqabRYjAnU/kJ0YhdtmIwx2CIaK809zrvVIvS6D85bYnsRPQN/nkV7V8jkHm2CxbsvLOVyvJrW3OYLHv7RZHrPfmMZ+JKP0KLyQZLxL+liSPmaA4tGAYSyDqGwpK6N6eOHQEBhUP+nc6zM46fF5biZmW+50hOtyZY4mFOE6l4skZ1rRh5uNuxcs8KF3Ucwnhc6anwypt2RUTpS7aCXUy0SL4ucE1i2SeTtbR7RcPtMmH8Q1DtXGevZxJL5u/cW5b5ouqYx8zK3CwdCsWJ6gogU5pdVqlbbNeItVsZ3mNpY+TAwXBiavZs4y9/JKEcPpfvhFJhPIJBKIkt9KoJ7RwszoYS+axcJhuas3sPiXogPYcBPz1gzmOMU+i3iidAn/zPaivMQiW+EMIF8i8SJDnyhpMiv2Z09I5KVNS48u09Eg6ZFj6joRqbdn9GInje0gBDa3QlxBxNzWZS4tS+R1iUrJfBHizOhlyjig299vEqFgWTG2TDiGEZvXtnlvUxzY+TlevEpx0rhEJuxVkW1Al7l4nW2HvRlLip76EqgwMQdVIDyc5HSHjYNGpUPezREt02emEyOYMKWnnvMdiKNxOaVegCqKfbcuYU6MtjHur0Tr9ulnqF6VUcuJ0HJ5ujLepqHzjFMt69V+yIYS1i3PI+gsamwscKRendFrdopjqxup12TkizmLNjJSr83oYzQ1pbdr6rhZs5imbBUWTTixgG9exk5S/T5xFB1JzL4kM4vpu3JCbi40RIwzWr5HlKzSOzPq6vML6/EufEPUc2tKYIG5u1a+f7WOmxaw2giRVtelTEdsgrgGwjecscDOZLwpo26QbJDM4psz6sZkUfLmUBKwUDftcnEYNUZtiF1drR6yl6z/uzPq5oAZ5sTem+zdcxCaGHHknEOxGkwATuEENUVpBOG6lIzI09tDFtBEAJw6ISC2sVZo5xEiKxPW25DeuZjwyiBq9lgpESQ9A98K93sELkdnbWiXJcETAm+ymRmQLOqyytJQQXy3nAsLL3PsZj1bCAzz2Q/AtqFmLPsTU3k5AtWRL4TghNXmcWVUcN4FKsjKQUTjUgEI0f76nNl7gtl4grMFi2T3dCPUC4qDJFNWmI57/R14EnBfKN5ZnLb3Y1NmNDVVH8DeTWLG6kMcVCexvDbTaBuDVx9E2WowZijKe7hQiT6nm/IQWwOYe0S3qOpVns4yFU7rI/WejM6Z5VUv0XpJoEIvQkOsEX2YBKh7Q6ery72dHRpQWbUSSSgkSMKDq3G+LR15jjoS54tj+j2y6OepNfP7ZjqVU0cN6MSJc57Jrif++nHbcLN3cchEgjgRLQixuQXJ6CtSQ0vk9X0ZdeUunDZdWGFZXWW4V5ACpB4jebFxMIsG/dAf7QyxMxxDxTKztFcbwiaTih29T10ziIocndHiIQZ92Bn1xwEX/efURzL6OoNqhSnU9dvxqkfqwxl9wzTcsQobhC86CNF4F8VaVjeadgr4VTt7gfnp9jodtkO/yZT5nBIJwMm8vdxTD5mMiTddHO3kjdgQUlM3J78n5BohNI6hfNTpoXhBs4vy7qRiLweqdIkRPLw02N0t7h3I8WotNWsYZG339iWJlZmPEtQpRlCw98bNMFORtbBb75zNVSJjSlkoWljaEe5R3vyMgzlt7zF7gqKJ5W1O+zL9yEJ5gPGd7uxdpAm9MrkUt3o54nh8RyaXx6/J+GJx4ZKLIcQjhKW1YCLijNHNQ6Q+yu4t2YK0J2TZbYGapoX6Iofc5HLYpVb8YMeslPLcB9tLXRLzBylU/FeLdEJaEiH1OLECl+2BSk/jQsPn41iFdMDBIAkmcn/i5+swU+vVRr5Nqrmetxe8Xr5aMX+LzUbYAeS7HC0/cH/fKVcz9wNL6Xuq5biRVmgf4swbW/r6jSVtWK65NNelmGt+ZEPDbAIPcm20prxdVszl8CGJP/YwSnjSxtew+BeoXHj/ZIrpQfYt6rOYv3132aP+TNwN9/LGYt5N6NVPqiRBJnWlPDFI7ircH8mxWfmTGfLnEuyflbDhWHN/4v5iV6kiKwmU9e/p5Ksy07l6g7scyZFZ4vZG/gSYmbLlJNPlsiMmWdloyR/ha5kC8qvpfJrwiP3O9ZqZ4qO0QnLMTn5lXXpznFp1+1dSTtDfbo3b42610ThlrqOumA8dOQuTTDIPn8HNnaPz07MHEj4xAapE7mrx7Jq4DStlo/nQzGUTGrY/g4/U5zLztwAiR7jopkRCc7oPwgjWJ6lOu4vS9in2vrhqwB0VSkbtgdgdPbIWh6164WozoRcmm9IOwdbkgvxLh/piCXxKxfvZhz+SCvPzKZqFkZkXZbIQcn9bbHCNw7yai0sTAbPheo5Oi689PPOmYv58IrNhtCMrXOQqWGhy5oMzJktuKTB/htDllk0DLrPCgjfMJ3dW7dUTF71YVhw8N+Vsm1pktSWP+9QL3JdYVKHTbluJ5jpIrtOy+Rb3i1Uf8OF1G6y7Q27pzN0SmbvacvUI8Bz3USirEOXYhLXkGgHRM38MK4gzt5Fpx5nbyXTizB1kNuOMfE93K87IN3VPS8ZED8+sN7inEOhe+TJWwXzb/JvkT1jZDjy/xrXHfLa/2XSz6/4y4n1Mtf2LjFyN+sVTBCKBPfkAkaPI1Px6p9L25SVRLoZTtEsxTpZPZm650XQtrxC9RDeDwPZpNaY4wkUdsU+LXQv8fKtYtsyOpi8+5Y9Q2iEeD5qVerIgJ2xsFOgKxkJyJUkzXzd/5esqWXvL7Op2y/elZ8DXcDwvNCz+Whkd6XVy22NR18sgSG+Q1PbrRtNbOeOJ7N1EE0IO+BBhS3qzpI7VQ/NNudaJ1/xhC/dHjyjm4xn5Bjepj8Twd2r1ZA0fVZKPzMcm9dElrnUd/JhSRd5INYyRemxp/n2wx/m1ZjkfVALgx6/7Ju7whPXKRqclbT5xw0elzJ8veFI8hidLc8gP4FMqNUmeWqkHPlJtWvpGN75bJHXTdiu7sEz0bTXfitjtWFHhf6dsiXQkHvHTWuaP/t1NEjf3dGBp0dR7RoAWmqafyX7B+tuL2meZP+OQZJ9NI9Lsc+WPB5E+r83uaZcDmWjILgJYKOTlLw8CFVnVZtWXGbFWvOTkvFJfF0HzObQLv3VRAVKEccP2t2KlDuhkniC8NH6q2pD+VWv51j0ds8I1+2gACI4102LDUJcqeUvcTKB7aoeewHq6H/WL8rsE84kP870cc/az1j7EiIqJ/RomNl3kg8e4mq9MimndFTyuronw1Mb4WQNOVocd4UxRtvmme+9KyNV+O07Nvx1HRpc448oOtUicqfobefNnwy7zyTlynlymyzNoVY1t49wS6rmd8TB7JBlk0m7wZTF0ufJt/LtUFk7L5Tv4d6V8J/+ulu/i3yPlWFrWElE5mtizY7gZiFkAeFxoTpQFewWiR3Llgo5dZZ7EXN2Rf69BHjqk11blryVcVxLc9aU2/95QEi25MdGSm4DmyvkQJyU346OQPFSeJj3MqMHDE+l9RFBjFwL4BunVI7nIFT6Puod/Hl1al9qPyRcK0s3HugcKjzPC9fiWDOAJ7sHTE0WcSJ8kfx2X9Mk4HyRPCezfxH3qKft3MtAUklvQEZJbZTC3CeJ2GdwdiKnsSncWzN+EuKtQkpV5WoAdJL3bdOHpWyZ5RrNSbNsBPzNodFrmA0/Pshbg2U5DnlPNF4z9fG78F1+fl9jbvH1lAlSQ/ot5AGY3b8eLVwK2c4iZOI0u+jLK9UanbXltxBsBcDk2JZV1+Zu09nOYJ5FB+5rnVPGyr71Vxm25yrzqbM//VpQ2gGCkBIT3fwDREwAAlZkJdFRVmsfvq0oqCyRsgSoQMALKFhLtBmUgVeGoKZVpF9SjdGMxnRHEBRHpCio2MSCEJdGBcbdFIWkVtVFEtLUqiXR6UMYFSUYF04NCRKwgPfYwQcBu7fn97yvCO54+M6c5FPd79/vuty/3PRzHZ/ym58qOh/6an7fKbAutNNWr86Pnz7tizjm3XXjxFVfNnR696obplf8crTzP9DMFxulvTjNDTEaGY4zPZDiZF952feWts+fFTcDJvscYk2N6myafMY6xrM0ZJsOXeUXFnNmF55wi6amFP3ax9P0E9nLu0EGfPThMBy+ZF5+9YF7F3MLL5829q/CCinkLK35hAub/Z3O/gwLPOTli5aBDXuaMebfFr5xdMeuCigWzYoWzbvrF/LkVd12x4LZb58dHdVQ/oe3Cy26LF4qmo3rdaNN/qTHVhRgwarkxa3yjrS7mytlzKudWLDBmjPN3c8xYYcw1cN2WiXZLU/V3+1YYJ89/08BYPIPtfVn88/NMEyjiL26wJH4jVDW7ixOpBcZxfEvMlAFejBOoOlQ/Fnf7lpptt3gxvkDVzPg5xvH77jXzR3kx/sDiUCxunAxh5nsxGYGqtvKLjJMJpvCQF5MZqKorHmOcgG+Z+VORFxMIVJ2dKDROFpjs672YrEBVvDVsnGwwG5/0YrIDVVYDcas+4MXkpLnl+Jabn+R5MbmBxdHgYslZbq4b6sX0SMvJBVNU6sX0TPutB5g1l3oxeYHFxiBH3HrP8GLy09x6gtl3pxfTK/DLha1fEDQwFy7zYnorCj2Mkw9m+jovpk+gypiJxukF5tGEF9M3zS0A5i/bvZh+aR/0BhPa58UUBKqiwSHG6QNm17deTH9hyuW3GvPrnl7MgLTffGCK+nsxwXSG9AVTNdyLCYlbk+ypMT+b6MUMTNvjB/Nt1IsZlM6qfmC2XO7FnJaOQgGYWdO9mMGBxQtblytDaszKCi9mSHeG1JjvF3gxQ9PekaXLqr2Y09OWZoHpucqLKUzHtAeYrke8mDPSedAfzNYnvZhh8s4S129vbfZihguD3+SD0JtezIi0DyRn19tezJlpORlg1uz0Ys7qrjnk7PViRnbXXI1p/sqLGZX2gSy98IQXMzpt6QC6y4AML2ZM2tdBMBuzvZixbnyyc3Ic5wd9zndPvHWCv+DDezvePu4vumHirosGVP35q/X+XoFLMkzm+oDpSTNTm80wWSbbmDwn/x6HJlxkbKOiJdFiRvGbr4ai1qEmoXagwleJq5hVtipQlaKKTuWlQlLJqDhUBkp4pbaSWOmqxFQKKtmUVkogpYqSoobwK9AKKU7drDApIHI9z3vlTjlOLpIzzD1OteMsoS075l7HLHPMcsfUOGaFY1Y6ZpVjnsbIdxzzruN/3zE7ofCZR3xOwMFmzZwc0+Nkc3en0ioz5Wd2MDFV6/Lc6TRIz0N8Q83p5iwHfjxpx69/GKWOGWkeccxgk+8MXMLWaeZMU2SWQxYIXWWcmfH/DreVB5t9ApKp88tAbIx0A9HgOWW+uuKppwBj1iMUVDfQfVyAqfEZJxQbAXpjxOcChDsaXBdmdYHO+h5lvlj8jIgH+CriK0mMsoA/FCuNkO1lodisSCIVKPPXFdewkVdW2fq0XdloscDM+G6OZJX5SxKHIXXKGmqPR0KxwxEofGXR4EcRrbH4yxF095WhgEHTT1ydBDTUvhjxC4jFP+Dgjkhl6/6Iv638tzx0sfmYXf2J1DILzIzfxA8VY/FLONuBo85lo1U6j4BiGz9ZjHc2cUUoSTyKApMa/ZWtsy1QkijiSEspN5FUeGb8dnyyMVxX/G0YHaaFK1vDMJvGxmoppY1XxSwcin0csUeSqW8i4sFoL7NM5QRJ0epvqG22QDLVzgrFzPgxxH2Di/w4Ex5yuJhqtVIESKwo0nocQ4fbkdTOUTQVU1d11xbXqkRqaRgnvGoBY+S3pjC07ah3HMs+xxFF8sphgOv4HeYw8lzgGUSIojlijzTUfoyZO9j8Qp59FUwXfB61K3bfaYFk6kqXorJ1XPrIYBDwqCvOtUzdFSkCJNalQA8dkWLiYTUVU6kuKVrNCtK2JLEeR5CSApKpIxHS23AmDXSjBIg6FY4Gx7lV0Q3QjCV/KlVxDO5Xw6ctjJv/iY2XCOR8xNWHyddqNh6xodZKyq21QGXrQ9jweBhPPY6q6xCxDqbrwz4lPwGYjIc2ACTe6Kx/DKNuTGLdWoBUsrJ1uV1hNscCodiF8MgsheIMmGwrTaRyWX8u+SnCthkNU/yyVXyuNeZ9HBGKbQVLiQhAZpkvmXoemZOUYx9boKH2CCJ+VIasLHJrLLWVT6ENVSkWgO1DWhZQgY670Va+H8H55NrbKi8deZHzR1DvqYg/mfqYhF2LY1+wqw8PnwKwVeUrBRJKhx0WqCu2CaoMOszBd+HWxfqHiD8a/A62XxGT7/ihgIC28p5oJIqCMnx7GG2GoLOS74wy4vM2DM/CgOfsiuHjTwF4wnUFq5F3/hN2zyopBsMCXGWr4wI6b1Enacwh2kAo9gTMaAPG3GiBWHwcTLepuA7CdD6d81nCcFzlN40wuG0gFl/ltgFEixmIj2Sujqimx8KLIleXVNUbk24Dla2bLBAN/h4/5IhiD6QBnN+J2L8oAH8G8xU/NUm6lzHZROQ1sNmE6l9kWjb9YFGEwHeQAd1AvUw7ALd61fIBOLxBFNqpsvfUTFp5+JSHbajXKTkv8dAF20ftSir80gJt5ddC8aUq5UfE6A8wHMrRt7SRSyS3sJELxa8U+FxKZqmLaaiNwqyQdZA2zkX+XrpNjM3NKpmlIsVfT9gV+ZsskEwloHxIab8D1zyHr9s4sksbitMxLOtAbChCKDPJAkd+9pHGL1L1R9EwFkbcQYCmUk0KEnAyZ18HmNQocVrN65nGSaYWKHiNRMFGsbGhti/H9k6G4U7EtJdiVVhK2dBKCa0NtUPdWDfUXoZ192PDXHl4K6mxHEf8D43hPjXHgfjvYTbKoHpcPrgBC5/kQRNygyK5HkN+jbly/TNqfW+inSb522z8RobthHwzv524PBHxCQjFGl1MW/luzurIQcXvZc4dRdwDdoXZTRZIpqJsEj9jRkDazpH+bL6jPrISgz5xdVfrpPgwyqhRDEezLJx6GbJzNcQXoXMeefavdiV/nrJANPgyDHuoc7SgUC4b/4GGmaL4HAoDj/+C8R/lshNQfIKnTxDQ1yMMdQGUooxhdQF1VhL3PQugtObVbFzahPP6qj2/Am11aUmiHmsSk7BzLSynNZ6MpnFAi0RD7zELqCNqNuO1RoBdlOt2fJJ10o0jMXIn3KaedHCd3Pcuaq8C08JGjeL5Bprci02bWJeohDbArBrsw1AuVghqIV/ExjK8d6c25vAQt5wbam8Wj3GQViD7NHhcqpzIJRaToMjlN+jkRjupNBbKTcr6n0gK2ecaZQ7TpUoSayCnS3XWz7AA/Q/yplKcvJ/ecyu/pznygy6VSK1WGKbhkNcgfxopu7Wxn8o5hoZnoZjtUtdhZR61tdau6PAbC8h9iVS2Jst7bGRwe/kQxt+Jx170OMJP96xDqs0vTgFoqO6sNpUGCLbxtZV/iUlpgHkSpoF0WMDyiwbvo/g/ZA0rD96DX0tpZWsSz22fjOUviG/jSVcYp6H2YbSjWEOxzRbQzZPC1+EPifLXmLsX9iMV9oNIno7JB9modTeUJZIbirWoJD6EQiOnBQW+VDvcDKaLjYftypGFFqgrvpL1oEJXDHYPxwYjdps2cjmrKaX+iBQXmAH5YKSN0TAthuIo8bgSRFJd8A6ruqRoNSeINtciOawMX/a3AMnZjwmZw5TIp+D6lHHpzSFcITZ0hR6i6lNAhxGyg0g4swyPfoSIkYSsxa5M2g0W6KxfDsXpivLVHBnAcBmP7EzlQQEbh1C3ABsSckoBzl/FxniOTJNTroYiHz66zewJW6ah2IMYpKp5UIH8yALSoyRBCUoxMpWC1jz7ImxV580BxvmIHqHK60einM9Gf4y8UVOsyAJgRqNuCeeHY5hPCg3GoOfpwH2Zhdcq9BqOW0mTY5wnTaLBzzBmGN2hxa54+AELuEneR7OiL6SqhQ9It1FiGkfdKtSOk0LW7DgldJQU+oCa6q1u2JezZyLpOnQ5R/3yAawrRRdlXKmc+5kFpEdn/UT5MhuVx3OkLyYUaWMw2BH4QLYMVExHg5UP3Gibzx3jcKNEJCUigAvWyVewNKC+SvWMtAAZeS6mqePORPksqXUvpuXB8gm7otYGC2jIlCTY0NTvrNdryBYsytPlcQt2fq3Qbob0a/JUr5h/UjPTVVY3yUftigXLLKDQ2CtENHgJZ/eTEeciv00UI8D8nocRUG1WJPXGlTaH1RheazVb7EusAL2X6iZJONIAU7KJUTWKg2lALreobqD7uAAGwO/+puskvRsA46JY7UWxi/Y4TLFtsYDu83XFIxWoOPNiLE7USrBd4DxLUZKY7B4xZgoUXXbFVf3gP4XYnondULSVn4d7zyNHtcLDBcZaCitFRyRWPLSabyl8RZWy0lR6i2C8r4bRQo/azUMSN+/TxlYeOjF8IytxS6QU66NwXW1XolJhgWQqglKHtDGEiHyKG7W+d3KjkZ/K+hVNtn/kyHM8LMZhDbpibkTdxzTA3odsDdjPCNXdamlq+tfwOwLpae4GY4WSPMBGrQbYx8g1OLNZFpbC/WnIJzVGg8vtCsV4C3AfIFDvliJlFeSLyIFr6ROZSvEsKAbJur4A7WB+jHaMR2Ouhns14pbZlejUW8CYrZi8JUxdbcdVB2G0HcWC6iLbsWE82iWhvFhGvQxwHZty3ewIKTUD7N0Sl4/ONex+BMPHVWL3I3sTDO9Hw3fcDX2HIM2hYCzIiGjQT0WNQRyzcmb8p/hONbfartj/igXayt9FJPM2Gvwcht9gkBtuO+KVmozqZpujNmtV8N2Ana16rxAAhwm45Qh6lpMezONk6hpkZNAKFmIAWuhuIqENtc/YFS/8uwVKEooTWnTW/xXgGCplodpuazxWvMb5fBr0aneDYWwp7N1CR3TZSKYOsHL7kEsUSd6A7Eo06iwQit2JcvRjTV2SuFRvB/DSxJgAcB8mjkU8dwAVZzfQ7QEBxiF/wDFJBYhVLD6BjZG63F6Mu7+GzS348HXptgLNl1KpG+yKKrq86I1jJ0eYtaof2jpHVD5j5DTl8AwetCJFgAa4CsxO9GRqH5Haw4Nuicz8kkQjQBd6aO4R/rbyFRZIpm7m6JfauAhN23mYAKLFVZ2ZhS6uLaZE3WeE3PQ3OpMFulECzAGam6pCLsHufdY33I/Jw0ubsftXTK+pzUpMZDfTFhMAx5rQ9Ti2+ps1xXltasYjRZGG2u+b3M6wp4mcmIaILU0z4xWsk5q4od8uIEmm9eAsuYdKaA1AzDCjI8zOGhfgzclFoRwzDiAafAgz65sI8n2oe6KprXwJjhjYjCNvjlS2TmhWp+msv6AZ5YqgkB2uYeap//vbhrqKAH3baCtPf9uIxceQmEpSbkD6lFGS6MVP3zi+j9iNzvq9mJrPJpFQHle2Pov2qpxHVEa7wa5Eoxfs6lOMPAATTN82BJDqOywQirXzS6gTHCYv/o1fFxt8wONtChVTGPyd3OxuxOK5CO9C5366Rh8GO5jWoPzg24Y+uXCVxxDdGtOfNLoBPOG6gtWYDekmAehmiXW5eoMH8H6qxV2wcPCOoptVRu4sQx81IvddjqgkLNBW/r5LoTavI3XFhywP5PzRAmB0sTE4NIDLIQ3F+qC27hqFdsXaH1uAqwwWO+I+FUaHcfdU+govswJQXp9iJpwChKIlTyA0nyB8HPpSRg21I2DdhZsG2hV5uRZoK/cR3g5tqOp24fsuovmqLhtdnIerviSwukBb+ZtKhR1w2s3DG1hhv1M+Zw/qlUcrFHqxUyRnkY8Y3Fl/EVHsgPUEQpy+3OizjVY+PkjeD2rX7KFSiS3zYJ3c306F7udwb344SGOvs34M3r4DxbnAqIkIgPWDAP9A110JKZdFjdrO+tNx380UVC8596cobzh7OUp8JgPKoWhCvXI2ECegs/56VLuGX64a0Rxh0WEJR3frC9caMDubJJbB2MyUvcMCVrOSxPQmqarbjtW9JHE2SeEaYz/BihlGqt7L6arciwVUtgaJ5XzKtVAbauyjCNBr4Vj8bKXcPkgnEtM8mEV0e5uMqPHyhtxYREL1Q+/heqXxoe8gnOCDoncZNeiTf115Aoyjbi8INregaW9NsVs4FcRTCxGACg211fAbRQpq/J4t1z0E6UQENUCBCko4q0Is/pJVIZl6hiOo0FD7JMwGof6TUKCCgG55AswdivAYxNGcBLCpGi1wAVnHy4Jbvt0AGNG4dWwBe5yLITQAItRHJlqrWlcaSKNcWTYAuhHpgd1B6DlaN9FB2DaMtOhFnvBSUZLIwKQ+aLOPQOQok35LiFTRixB/XKyr+UzG2x63N0h0Q5hJrAbIHWuJ1ekU8Vo2RkvBta6mEiNAKrj9mK3nT6rwvFVBH7asCrH4U1YF+d2qoLuEVNAnEquCPo9YFdSZpEJl6+1sWBWWwEwqLGHDqrDklDwBtsYY627SC1CeVrZWcM4mboSN6QyeY2GlNuZOsYBqjDl5sCkW/x1GLWrCM1/r5s0HhWwqflqY5B2I4gchH46oc9W/x4G5C1H6ioM4AfqPKN7lqFe6Bp0Xcb3x4ad4mQzSiyX/74T/p7BS41JEgNVM1S9VbTuQ7uoPWsXdmP8F(/figma)--&gt;&quot;&gt;&lt;/span&gt;&lt;span style=&quot;&quot;&gt;[notReadCard] displayPrompt(“Card Not Read”)&lt;/span&gt;" style="text;html=1;align=center;verticalAlign=middle;resizable=0;points=[];autosize=1;strokeColor=none;fillColor=none;" vertex="1" parent="1">
          <mxGeometry x="225" y="630" width="280" height="30" as="geometry" />
        </mxCell>
      </root>
    </mxGraphModel>
  </diagram>
</mxfile>
